COMMENT @(#)52	1.2  src/bos/usr/lpp/tls/fonts/Chtp223.bdf, cmdtw, bos411, 9428A410j 2/24/94 13:36:20
COMMENT
COMMENT   COMPONENT_NAME: cmdtw
COMMENT
COMMENT   FUNCTIONS: none
COMMENT
COMMENT   ORIGINS: 27
COMMENT
COMMENT   IBM CONFIDENTIAL -- (IBM Confidential Restricted when
COMMENT   combined with the aggregated modules for this product)
COMMENT                    SOURCE MATERIALS
COMMENT
COMMENT   (C) COPYRIGHT International Business Machines Corp. 1992
COMMENT   All Rights Reserved
COMMENT   US Government Users Restricted Rights - Use, duplication or
COMMENT   disclosure restricted by GSA ADP Schedule Contract with IBM Corp.
COMMENT
STARTFONT 2.1
FONT  -IBM_AIX-Sung-Medium-R-Normal--35-230-100-100-M-340-CNS11643.1986-2
SIZE 35 100 100
FONTBOUNDINGBOX 34 35 0 -4
STARTPROPERTIES 20
FONTNAME_REGISTRY "_"
FOUNDRY "IBM_AIX "
FAMILY_NAME "Sung"
WEIGHT_NAME "Medium "
SLANT "R"
SETWIDTH_NAME "Normal" 
ADD_STYLE_NAME ""
PIXEL_SIZE 35
POINT_SIZE 230
RESOLUTION_X 100
RESOLUTION_Y 100
SPACING "M"
AVERAGE_WIDTH 340
CHARSET_REGISTRY "CNS11643.1986" 
CHARSET_ENCODING "2" 
FONT_ASCENT 31
FONT_DESCENT 4
DEFAULT_CHAR 0
CAP_HEIGHT 35
COPYRIGHT "Copyright, 1992 by IBM."
ENDPROPERTIES
CHARS 7650
STARTCHAR 2121
ENCODING 8481
SWIDTH 1020 0
DWIDTH 34 0
BBX 34 35 0 -4
BITMAP
0000000020
0000000000
0000000000
0000008000
010000e000
010000e000
0100018000
0080018000
0080018000
0040030000
0040030000
0020060000
0020060000
00100c0000
00100c0000
0008180000
000c100000
0004300000
0002600000
0001400000
0001c00000
0001c00000
0003600000
0006300000
000c1c0000
00300e0000
0060038000
01c001e000
030000fc00
0c00003e00
3000000800
0000000000
0000000000
0000000000
0000000000
ENDCHAR
STARTCHAR 2122
ENCODING 8482
SWIDTH 1020 0
DWIDTH 34 0
BBX 34 35 0 -4
BITMAP
0000000020
0000000000
0000000000
0000000000
0380000000
0100000000
0100002000
0100007000
010003f000
01003c2000
0103c06000
013c006000
01c0006000
3f00006000
6100006000
0100006000
0100006000
0100006000
0100004000
0100004000
010010c000
01000fc000
0100018400
0100000400
0100000400
0100000400
0100000400
0100000c00
01c0003e00
00fffff800
0000000000
0000000000
0000000000
0000000000
0000000000
ENDCHAR
STARTCHAR 2123
ENCODING 8483
SWIDTH 1020 0
DWIDTH 34 0
BBX 34 35 0 -4
BITMAP
0000000020
0000000000
0000000000
0000000000
1800001000
1e00001c00
1800001000
1800001000
1800001000
1800001000
1800001000
1800001000
1800001000
1800001000
1800001000
1800001000
1800001000
1800001000
1800001000
1800001000
1800001000
1800001000
1800001000
1800001000
1800001000
1800001000
1800001000
1ffffff000
1800001000
1000001000
0000000000
0000000000
0000000000
0000000000
0000000000
ENDCHAR
STARTCHAR 2124
ENCODING 8484
SWIDTH 1020 0
DWIDTH 34 0
BBX 34 35 0 -4
BITMAP
0000000020
0000000000
0000000000
1000002000
1000007000
1ffffff800
1800000000
1800000000
1800000000
1800000000
1800000000
1800000000
1800000000
1800000000
1800000000
1800000000
1800000000
1800000000
1800000000
1800000000
1800000000
1800000000
1800000000
1800000000
1800000000
1800000000
1800001000
1800003800
1ffffffc00
1800000000
1800000000
0000000000
0000000000
0000000000
0000000000
ENDCHAR
STARTCHAR 2125
ENCODING 8485
SWIDTH 1020 0
DWIDTH 34 0
BBX 34 35 0 -4
BITMAP
0000000020
0000000000
0000000000
1000001800
0800001c00
0ffffffe00
0800000000
0800000000
0800000000
0800000000
0800000000
0800000000
0800000000
0800000000
0800000000
0800000000
0800000000
0800000000
0800000000
0800000000
0800000000
0800000000
1800000000
1800000000
1800000000
1000000000
1000000000
1000000000
2000000000
2000000000
4000000000
0000000000
0000000000
0000000000
0000000000
ENDCHAR
STARTCHAR 2126
ENCODING 8486
SWIDTH 1020 0
DWIDTH 34 0
BBX 34 35 0 -4
BITMAP
0000000020
0000000000
0000000000
0000001800
4000001c00
3ffffffe00
0004000000
000c000000
000c000000
000c000000
000c000000
0008000000
0008000000
0008006000
001ffff000
001800c000
001000c000
001000c000
003000c000
002000c000
006000c000
0040008000
00c0008000
00c0008000
0180018000
0300018000
0200010000
0600030000
0803030000
1000fe0000
20001c0000
4000100000
0000000000
0000000000
0000000000
ENDCHAR
STARTCHAR 2127
ENCODING 8487
SWIDTH 1020 0
DWIDTH 34 0
BBX 34 35 0 -4
BITMAP
0000000020
0000000000
0000000000
0000000000
0000000800
8000001c00
7ffffffe00
00100c0000
00100c0000
00100c0000
00100c0000
00100c0000
00100c0000
00100c0000
00100c0000
00100c0000
00100c0000
00100c0000
00100c0000
00300c0000
00300c0000
00200c0000
00200c0000
00600c0000
00400c0000
00800c0000
01800c0000
03000c0000
06000c0000
08000c0000
30000c0000
0000000000
0000000000
0000000000
0000000000
ENDCHAR
STARTCHAR 2128
ENCODING 8488
SWIDTH 1020 0
DWIDTH 34 0
BBX 34 35 0 -4
BITMAP
0000000020
0000000000
0000010000
0000038000
00000f4000
0000780000
0007c00000
01fe000000
3e06000000
0006000000
0006000000
0006000000
0006000000
0006000800
0006000c00
0006001e00
00063fe000
00ffc00000
7f06000000
0006000000
0006000000
0006000000
0006000000
0006000400
0006000400
0006000400
0006000400
0006000400
0006000c00
0003fffe00
0000fff000
0000000000
0000000000
0000000000
0000000000
ENDCHAR
STARTCHAR 2129
ENCODING 8489
SWIDTH 1020 0
DWIDTH 34 0
BBX 34 35 0 -4
BITMAP
0000000020
0000000000
0000000000
0000006000
080000f000
0ffffff000
0000000000
0000000000
0000000000
0000000000
0000000800
0000001c00
7ffffffe00
0001800000
0001800000
0001800000
0001800000
0001800000
0001800000
0001800000
0001800000
0001800000
0001800000
0001800000
0001800000
0001800000
0001800000
0001800000
0001800000
007f800000
000f000000
0006000000
0000000000
0000000000
0000000000
ENDCHAR
STARTCHAR 212a
ENCODING 8490
SWIDTH 1020 0
DWIDTH 34 0
BBX 34 35 0 -4
BITMAP
0000000020
0000000000
0000000000
0000000000
0800003000
0ffffff800
0800003000
0800003000
0800003000
0800003000
0800003000
0800003000
0800003000
0800003000
0800003000
0800003000
0800003000
0800003000
0800003000
0800003000
0800003000
0800003000
0800003000
0800003000
0800003000
0800003000
0800003000
0800003000
0ffffff000
0800003000
0800000000
0000000000
0000000000
0000000000
0000000000
ENDCHAR
STARTCHAR 212b
ENCODING 8491
SWIDTH 1020 0
DWIDTH 34 0
BBX 34 35 0 -4
BITMAP
0000000020
0000000000
0000000000
0001c00000
0001800000
0001800000
0001802000
0e00803800
0600801000
0400801000
0400801000
0400801000
0400801000
0400801000
0401801000
0401801000
0401801000
0401801000
0401801000
07fffff000
0c01003000
0c01001000
0403000000
0002000000
0006000000
0004000000
000c000000
0018000000
0020000000
00c0000000
0300000000
0400000000
0000000000
0000000000
0000000000
ENDCHAR
STARTCHAR 212c
ENCODING 8492
SWIDTH 1020 0
DWIDTH 34 0
BBX 34 35 0 -4
BITMAP
0000000020
0000000000
0000010000
0000038000
0000060000
00000c0000
0000180000
0000700000
0000c00000
000380e000
000e01c000
0030018000
03c0030000
00000e0000
0000180000
0000300000
0000e00000
0003e00000
000e600000
0038600000
01c0600000
0600600000
0000600000
0000600000
0000600000
0000600000
0000600000
0000600000
0000600000
0000600000
0000600000
0000400000
0000000000
0000000000
0000000000
ENDCHAR
STARTCHAR 212d
ENCODING 8493
SWIDTH 1020 0
DWIDTH 34 0
BBX 34 35 0 -4
BITMAP
0000000020
0000000000
0000001000
0000001800
3ffffffc00
0001000000
0001000000
0001000000
0401000000
0781000000
0401001000
0401fff800
0401001000
0401001000
0c01003000
0c01003000
0c01003000
0c01003000
0fffffe000
1800002000
1800002000
0000002000
0000006000
0000006000
0000004000
0000004000
000000c000
0000008000
0001018000
0000e70000
00001e0000
0000080000
0000000000
0000000000
0000000000
ENDCHAR
STARTCHAR 212e
ENCODING 8494
SWIDTH 1020 0
DWIDTH 34 0
BBX 34 35 0 -4
BITMAP
0000000020
0000000000
0007000000
000c000000
000c000000
0008000800
4008001e00
3ffffffe00
0010000000
0030000000
0020000000
004000c000
00ffffe000
00c000c000
014000c000
024000c000
044000c000
084000c000
104000c000
604000c000
404000c000
004000c000
004000c000
004000c000
004000c000
004000c000
004000c000
004000c000
004000c000
00403f8000
0040018000
0040000000
0000000000
0000000000
0000000000
ENDCHAR
STARTCHAR 212f
ENCODING 8495
SWIDTH 1020 0
DWIDTH 34 0
BBX 34 35 0 -4
BITMAP
0000000020
0000000000
00c0000000
00f0000000
00c0000000
00c0000000
00c0002000
0080007800
01fffff800
0180000000
0180000000
0300000000
0300000000
0300004000
03fffff000
060000c000
060000c000
000000c000
000000c000
000004c000
0000388000
0003c08000
007e008000
1fe0018000
0e00018000
0800018000
0000010000
0000030000
0000030000
0001fe0000
00003c0000
0000100000
0000000000
0000000000
0000000000
ENDCHAR
STARTCHAR 2130
ENCODING 8496
SWIDTH 1020 0
DWIDTH 34 0
BBX 34 35 0 -4
BITMAP
0000000020
0000000000
0000000000
2000018000
1fffffe000
000801c000
0008018000
0008018000
0008018000
0008018000
0008418000
0008618000
07fff18000
0018018000
0018008000
0018008000
0018008000
0018208000
0010308000
0ffff88000
001000c000
0020004000
0020004200
0040004200
0040006200
0080002200
0100003600
0300001400
0400001c00
0800000e00
3000000600
0000000000
0000000000
0000000000
0000000000
ENDCHAR
STARTCHAR 2131
ENCODING 8497
SWIDTH 1020 0
DWIDTH 34 0
BBX 34 35 0 -4
BITMAP
0000000020
0000000000
0000000000
0000004000
100000e000
0ffffff000
0000000000
0000000000
0000000000
0000000000
0000000800
4000001c00
3ffffffe00
00300c0000
00300c0000
00300c0000
00300c0000
00300c0000
00300c0000
00300c0000
00300c0000
00300c0000
00200c0000
00600c0000
00400c0000
00400c0000
00800c0000
01000c0000
03000c0000
04000c0000
18000c0000
0000000000
0000000000
0000000000
0000000000
ENDCHAR
STARTCHAR 2132
ENCODING 8498
SWIDTH 1020 0
DWIDTH 34 0
BBX 34 35 0 -4
BITMAP
0000000020
0000000000
0080200000
00f0380000
00c0300000
00c0300000
0180300000
0180300000
0100300000
0300300800
023ffffe00
0600300c00
0f00300800
0a00300800
1a00200800
3200200800
2200200800
4200200800
8200600800
0200400800
0200400800
0200c00800
0200c01800
0201801800
0201001800
0203001800
0206001000
0204001000
0208103000
02300fe000
066000e000
0640000000
0000000000
0000000000
0000000000
ENDCHAR
STARTCHAR 2133
ENCODING 8499
SWIDTH 1020 0
DWIDTH 34 0
BBX 34 35 0 -4
BITMAP
0000000020
0000000000
0080000000
00e1008000
00e180c000
0181ffc000
0181808000
0181808000
0101808000
0301808000
0201808000
0601808000
0701808000
0e01808000
0a00808000
1a01808000
3201808000
2201808000
4201808000
0201808000
0201808000
0201008000
0201008000
0201008200
0201008400
0203008400
0202008400
0206008400
0204008400
020800fe00
0610000000
0210000000
0000000000
0000000000
0000000000
ENDCHAR
STARTCHAR 2134
ENCODING 8500
SWIDTH 1020 0
DWIDTH 34 0
BBX 34 35 0 -4
BITMAP
0000000020
0000000000
0080000000
01e0000000
0180018000
01807fc000
0100010000
0300010000
0300010000
0201010000
0603810000
0703010000
0e03010000
1e03010000
1603008000
2602008000
4602008000
4602008000
0606004000
0606004000
0604004000
0604006000
0604002000
060c003000
0608003000
0618001800
0610001800
0630000c00
0660000e00
0640000700
0680000000
0600000000
0000000000
0000000000
0000000000
ENDCHAR
STARTCHAR 2135
ENCODING 8501
SWIDTH 1020 0
DWIDTH 34 0
BBX 34 35 0 -4
BITMAP
0000000020
0000000000
0001c00000
0001800000
0001000000
0001000000
0001000000
0801000400
0ffffffc00
0801000e00
0801001800
1001001000
3001002000
3001004000
6003c00000
0003e00000
0002c00000
0002c00000
0002c00000
0006c00000
0004c00000
000cc00000
0008c00000
0018c00400
0010c00800
0020c00800
0040c00800
0080c00800
0300c00c00
04007ffe00
78001ff000
4000000000
0000000000
0000000000
0000000000
ENDCHAR
STARTCHAR 2136
ENCODING 8502
SWIDTH 1020 0
DWIDTH 34 0
BBX 34 35 0 -4
BITMAP
0000000020
0000000000
0060000000
0070000000
00c0000000
00c0000000
0080000c00
01fffffe00
0100000c00
0300000800
0600000800
0400000800
0870000800
1060000800
2060000800
4061000800
0861800800
07ffc01800
0061801800
0061801800
0041841800
0041841800
00c1841800
0081841000
0181861000
0300fe1000
0200003000
0c00003000
3000006000
0000786000
000007c000
0000038000
0000000000
0000000000
0000000000
ENDCHAR
STARTCHAR 2137
ENCODING 8503
SWIDTH 1020 0
DWIDTH 34 0
BBX 34 35 0 -4
BITMAP
0000000020
0000000000
0002000000
0007800000
001c300c00
04f01ffe00
0780100800
0400100800
0400100800
0400100800
0400100800
0400100800
0400100800
0400100800
0400100800
0400100800
0400100800
0400100800
0400100800
0400100800
040c100800
0430100800
07c0100800
7f00100800
380011f800
2000103800
0000301000
0000300000
0000300000
0000300000
0000300000
0000100000
0000000000
0000000000
0000000000
ENDCHAR
STARTCHAR 2138
ENCODING 8504
SWIDTH 1020 0
DWIDTH 34 0
BBX 34 35 0 -4
BITMAP
0000000020
0000000000
001c000000
0018000000
0018000000
0008000000
0008060000
1fffff0000
0018040000
0018040000
0018040000
0010040000
0030040000
0030040400
0060040400
0040040400
00c0040400
0180060600
060203fe00
1c03800000
6007000000
0006000000
000c000000
0008040000
0018020000
0010018000
002000c000
0040007000
00803ff800
1fffc01c00
0fc0000c00
0800000000
0000000000
0000000000
0000000000
ENDCHAR
STARTCHAR 2139
ENCODING 8505
SWIDTH 1020 0
DWIDTH 34 0
BBX 34 35 0 -4
BITMAP
0000000020
0000000000
0000000000
0100200000
01c0380000
0100200000
0100200000
0100200000
0100200000
0100200000
0110200000
8118200000
7ffc200000
0100200000
0100200000
0100200000
0100200000
0100200000
0100200000
0100200000
0104200000
011c200000
0170200000
03c0200400
3f00200400
7800200400
2000200400
0000200c00
0000300e00
00003ffe00
000003c000
0000000000
0000000000
0000000000
0000000000
ENDCHAR
STARTCHAR 213a
ENCODING 8506
SWIDTH 1020 0
DWIDTH 34 0
BBX 34 35 0 -4
BITMAP
0000000020
0000000000
0000000000
0000020000
3fffff8000
0030030000
0030060000
0030060000
0030040000
00300c0000
00200c0000
00200c0000
0020080c00
00601ffe00
0060180800
0060000800
0040600800
007ff00800
00e0400800
0090c01800
0090801800
0189801800
0105001800
0303001000
0607c01000
040cf03000
0c183c3000
1860082000
3180206000
60001fc000
4000038000
0000010000
0000000000
0000000000
0000000000
ENDCHAR
STARTCHAR 213b
ENCODING 8507
SWIDTH 1020 0
DWIDTH 34 0
BBX 34 35 0 -4
BITMAP
0000000020
0000000000
0002000000
0001c00000
0001000000
0001000000
0001000000
0001008000
040100e000
03ffffe000
000100c000
000100c000
000100c000
000100c000
000100c000
000100c000
000300c800
200300de00
1ffffffe00
0002800000
0002400000
0006600000
000c200000
000c100000
0018080000
0030060000
0060070000
00c001c000
018000f000
0600003e00
1800000800
2000000000
0000000000
0000000000
0000000000
ENDCHAR
STARTCHAR 213c
ENCODING 8508
SWIDTH 1020 0
DWIDTH 34 0
BBX 34 35 0 -4
BITMAP
0000000020
0000000000
0000800000
0000e00000
0000c00000
0040c00000
0070c20000
00c0c18000
0180c06000
0180c03000
0300c01800
0600c01c00
0c00c00e00
101f800600
6003800000
0001000000
0000000000
0001000000
7fff800000
0001800000
0000800000
0000800000
0000400000
0000200000
0000300000
0000080000
0000060000
0000038000
000001e000
0000007c00
0000001e00
0000000000
0000000000
0000000000
0000000000
ENDCHAR
STARTCHAR 213d
ENCODING 8509
SWIDTH 1020 0
DWIDTH 34 0
BBX 34 35 0 -4
BITMAP
0000000020
0000000000
0001000000
0001c00000
0001800000
0001800800
4001800e00
7ffffffe00
0001800000
0001800000
0001800000
0001800000
0401802000
0401803800
07fffff000
0601802000
0601802000
0601802000
0601802000
0601802000
0601802000
0601802000
0601802000
0601802000
0601802000
0601802000
060187e000
060180e000
0601800000
0001800000
0001800000
0001000000
0000000000
0000000000
0000000000
ENDCHAR
STARTCHAR 213e
ENCODING 8510
SWIDTH 1020 0
DWIDTH 34 0
BBX 34 35 0 -4
BITMAP
0000000020
0000000000
0000000000
0400006000
0200007000
03fffff000
0201800000
0201800000
0201800000
0201800000
0201800000
0201800000
0201800800
4201801c00
3ffffffe00
0001000000
0003600000
0003700000
0002400000
0006400000
0004400000
000c400000
0008400000
0018400400
0030400400
0060400400
00c0400400
0180400400
0300600e00
0c007ffe00
700007c000
0000000000
0000000000
0000000000
0000000000
ENDCHAR
STARTCHAR 213f
ENCODING 8511
SWIDTH 1020 0
DWIDTH 34 0
BBX 34 35 0 -4
BITMAP
0000000020
0000000000
0080000000
0040180000
007ffc0000
0040100000
0040100000
0040100000
00c0100800
00c0100800
0080100800
0180100800
0300180c00
06000ffc00
0c00000000
1000000000
0000010000
0fffffc000
0040038000
0020070000
0030060000
00180c0000
000c180000
0006300000
0001e00000
0001c00000
0003380000
000c0f0000
007003e000
038000fe00
7c00001800
0000000000
0000000000
0000000000
0000000000
ENDCHAR
STARTCHAR 2140
ENCODING 8512
SWIDTH 1020 0
DWIDTH 34 0
BBX 34 35 0 -4
BITMAP
0000000020
0000000000
0000000000
020000c000
03ffffe000
020180c000
020180c000
020180c000
020180c000
020180c000
020180c000
020180c000
020180c000
020180c000
020180d800
3ffffffc00
020180c000
020180c000
020180c000
020180c000
020180c000
020180c000
020180c000
020180c000
020180c000
020180c000
020180c000
020180c000
03ffffc000
020000c000
020000c000
0200000000
0000000000
0000000000
0000000000
ENDCHAR
STARTCHAR 2141
ENCODING 8513
SWIDTH 1020 0
DWIDTH 34 0
BBX 34 35 0 -4
BITMAP
0000000020
0000000000
0080000000
01e0000000
0180002000
0180007000
03fffff800
0300000000
0600000000
0400030000
09ffffc000
1800000000
3000000000
6000008000
100001c000
0fffffc000
0000018000
0000018000
0000018000
0000018000
0000008000
0000008000
0000008300
000000c200
000000c200
0000004200
0000006200
0000003400
0000003400
0000001c00
0000000e00
0000000000
0000000000
0000000000
0000000000
ENDCHAR
STARTCHAR 2142
ENCODING 8514
SWIDTH 1020 0
DWIDTH 34 0
BBX 34 35 0 -4
BITMAP
0000000020
0000000000
0020020000
003c038000
0030020000
0030020000
0030020000
0030020000
0030020000
0030020000
0030020000
0030020000
003ffe0000
0030020000
0000020000
0000020000
0000020000
0000020000
0ffffe0000
0010020000
0010020000
0010020000
0030020000
0030020000
0020020000
0060020000
0040020000
00c0020000
0180020000
0300020000
0c00020000
0000020000
0000000000
0000000000
0000000000
ENDCHAR
STARTCHAR 2143
ENCODING 8515
SWIDTH 1020 0
DWIDTH 34 0
BBX 34 35 0 -4
BITMAP
0000000020
0000000000
0010200000
001c3c0000
0018100000
0018100000
0018100000
1808101800
1c08101c00
1808101800
1808101800
1808101800
1808101800
1808101800
1808101800
1808101800
1808101800
1818101800
1818101800
1ff81ff800
1818101800
1818101800
1010101000
0010100000
0030100000
0020100000
0060100000
00c0300000
0180300000
0600300000
1c00300000
2000100000
0000000000
0000000000
0000000000
ENDCHAR
STARTCHAR 2144
ENCODING 8516
SWIDTH 1020 0
DWIDTH 34 0
BBX 34 35 0 -4
BITMAP
0000000020
0000000000
0040040000
0070070000
0060040000
0060040000
0060040000
0060040000
0060041000
4060041c00
3ffffffc00
0060040000
0064040000
0062040000
0061040000
0060c40000
0060c40000
0060640000
0040040000
0040040c00
4040041e00
7ffffffe00
00c0040000
0080040000
0080040000
0100040000
0300040000
0200040000
0400040000
0800040000
1000040000
6000040000
0000000000
0000000000
0000000000
ENDCHAR
STARTCHAR 2145
ENCODING 8517
SWIDTH 1020 0
DWIDTH 34 0
BBX 34 35 0 -4
BITMAP
0000000020
0000000000
0080000000
00e0000000
00c0000000
0080000000
0180003000
0110007800
030ffffc00
0300000000
0600000000
0700000000
0e00000000
0a00000000
1200000000
2200004000
420000e000
4207fff000
0200000000
0200000000
0200000000
0200000000
0200000000
0200000000
0200000000
0200000000
0200000800
0280001e00
027ffffe00
0200000000
0200000000
0200000000
0000000000
0000000000
0000000000
ENDCHAR
STARTCHAR 2146
ENCODING 8518
SWIDTH 1020 0
DWIDTH 34 0
BBX 34 35 0 -4
BITMAP
0000000020
0000000000
0100000000
01e0000000
0180000000
0180003000
0100003800
031ffffc00
0200100000
0600100000
0600100000
0f00100000
0e00100000
0e00100000
1600100000
2600100000
2600100000
4600100000
0600100000
0600100000
0600100000
0600100000
0600100000
0600100000
0600100000
0600100000
0600100800
0600101c00
067ffffe00
0600000000
0600000000
0600000000
0000000000
0000000000
0000000000
ENDCHAR
STARTCHAR 2147
ENCODING 8519
SWIDTH 1020 0
DWIDTH 34 0
BBX 34 35 0 -4
BITMAP
0000000020
0000000000
0080400000
00e0780000
0180200000
0180200000
0100200000
0300200000
0300200000
0200200000
0600200000
0700200000
0e00201800
1e00201c00
16003ffc00
2600200000
4600200000
8600200000
0600200000
0600200000
0600200000
0600200000
0600200000
0600200000
0600200000
0600200000
0600200000
0600200800
0640200e00
067ffffe00
0600000000
0400000000
0000000000
0000000000
0000000000
ENDCHAR
STARTCHAR 2148
ENCODING 8520
SWIDTH 1020 0
DWIDTH 34 0
BBX 34 35 0 -4
BITMAP
0000000020
0000000000
0101000000
01e1c00000
0181800000
0181800000
0303001000
0302003800
0207fffc00
060c000000
0408000000
0f10000000
0e20000000
1e40018000
1607ffc000
260003c000
4600060000
46000c0000
0600180000
0600300000
0600600000
0600c00000
0601800400
0603000400
0602000400
0606000400
060c000400
0608000c00
0608000e00
060ffffe00
0603fff000
0400000000
0000000000
0000000000
0000000000
ENDCHAR
STARTCHAR 2149
ENCODING 8521
SWIDTH 1020 0
DWIDTH 34 0
BBX 34 35 0 -4
BITMAP
0000000020
0000000000
0001000000
0003c00000
0003800000
0006800000
0006400000
000c200000
0018300000
0030180000
00300c0000
0040060000
0080030000
010001c000
060000e000
0c00027c00
3000071e00
41ffff8000
0001000000
0001000000
0001000000
0001000000
0001000000
0001000000
0001000000
0001000000
0001000000
0001001000
0001003800
3ffffffc00
0000000000
0000000000
0000000000
0000000000
0000000000
ENDCHAR
STARTCHAR 214a
ENCODING 8522
SWIDTH 1020 0
DWIDTH 34 0
BBX 34 35 0 -4
BITMAP
0000000020
0000000000
0001800000
0003c00000
0003800000
0006400000
000c200000
0008100000
00180c0000
0030060000
00c0038000
018001e000
0300007800
0c00001e00
3800000400
6001c00000
0001800000
0001000000
0001000000
0f01003800
0e01003c00
0c01003000
0c01003000
0c01003000
0c01003000
0c01003000
0c01003000
0c01003000
0c01003000
0ffffff000
0c00003000
0800002000
0000000000
0000000000
0000000000
ENDCHAR
STARTCHAR 214b
ENCODING 8523
SWIDTH 1020 0
DWIDTH 34 0
BBX 34 35 0 -4
BITMAP
0000000020
0000000000
0010001000
001e000e00
0018000c00
0018078c00
0018070c00
0018060c00
0018060c00
0018860c00
4019c60c00
3fffe60c00
0018060c00
0018060c00
0018060c00
1018060c00
0818060c00
0418060c00
0218060c00
0318060c00
0118060c00
0118060c00
0018060c00
0018040c00
0018000c00
0018000c00
0018000c00
0018000c00
0018000c00
03f801f800
0038001800
0020001000
0000000000
0000000000
0000000000
ENDCHAR
STARTCHAR 214c
ENCODING 8524
SWIDTH 1020 0
DWIDTH 34 0
BBX 34 35 0 -4
BITMAP
0000000020
0000000000
0200000000
0380000c00
0600000e00
0600080800
0400070800
0c01c60800
0fffe60800
1800060800
1000060800
2000060800
6000060800
4008060800
0ffc060800
001e060800
0018060800
0030060800
0060060800
00c0060800
01c0060800
0180060800
0300060800
0600040800
0400400800
0c00400800
0800400800
1800400800
1800c00800
0fffe3f800
03ff003800
0000002000
0000000000
0000000000
0000000000
ENDCHAR
STARTCHAR 214d
ENCODING 8525
SWIDTH 1020 0
DWIDTH 34 0
BBX 34 35 0 -4
BITMAP
0000000020
0000000000
0000000000
2000003000
1000003800
1ffffffc00
1000c00000
1000e00000
1070c00000
1020c04000
1020c0e000
1020cfe000
1021f0c000
103fc0c000
11e0c0c000
1620c0c000
1020c0c000
1020c08000
1020c98000
1020c78000
1020c31000
1020c01000
1020001000
1020001000
1038007800
101ffff000
1000000000
1000001000
1000003800
3ffffffc00
3000000000
0000000000
0000000000
0000000000
0000000000
ENDCHAR
STARTCHAR 214e
ENCODING 8526
SWIDTH 1020 0
DWIDTH 34 0
BBX 34 35 0 -4
BITMAP
0000000020
0000000000
0000000000
038820e000
030e38e000
030820c000
030820c000
030820c000
030820c000
030820c000
030820c000
030820c000
030820c000
030820cc00
830820ce00
7fffffff00
020820c000
020820c000
020820c000
020820c000
060820c000
060820c000
040820c000
040820c000
040820c000
0c0820c000
080820c000
180820c000
100820c000
200820c000
4008208000
0000000000
0000000000
0000000000
0000000000
ENDCHAR
STARTCHAR 214f
ENCODING 8527
SWIDTH 1020 0
DWIDTH 34 0
BBX 34 35 0 -4
BITMAP
0000000020
0000000000
0000000000
0000000800
0710000e00
070ffffe00
0600020000
0600020000
0600020000
0600020000
0600020000
0660020000
7ff0020000
0600020000
0600020000
0600020000
0600020000
0600020000
0600020000
0600020000
0600020000
0630020000
06c0020000
0780020000
1e00020000
7800020000
2000020000
2000020000
0000020000
0000fe0000
00000e0000
0000080000
0000000000
0000000000
0000000000
ENDCHAR
STARTCHAR 2150
ENCODING 8528
SWIDTH 1020 0
DWIDTH 34 0
BBX 34 35 0 -4
BITMAP
0000000020
0000000000
0000000000
0000008000
07ffffc000
008001e000
0040030000
0060070000
0020060000
00180c0000
000c180000
0006700000
0001c00000
0003f80000
001c1f0000
00e003fc00
1f01007c00
2000e00000
0000800000
0000800000
0000804000
080080e000
07fffff000
0000800000
0000800000
0000800000
0000800000
0000800000
0000801c00
7ffffffe00
0000000000
0000000000
0000000000
0000000000
0000000000
ENDCHAR
STARTCHAR 2151
ENCODING 8529
SWIDTH 1020 0
DWIDTH 34 0
BBX 34 35 0 -4
BITMAP
0000000020
0000000000
0080000000
00e0000000
0080000000
0180402000
0182203000
03ff3ff800
0306203000
0206203000
0606203000
0404203000
0c04203000
0a0c203000
130c203000
2188203000
6198202000
00d0202000
00b0202000
0030276000
002021c000
0060208400
00c0200400
0080200400
0100200400
0300200400
0200200400
0400200400
0800300e00
10003ffc00
6000000000
0000000000
0000000000
0000000000
0000000000
ENDCHAR
STARTCHAR 2152
ENCODING 8530
SWIDTH 1020 0
DWIDTH 34 0
BBX 34 35 0 -4
BITMAP
0000000020
0000000000
0001000000
0003c00000
0003000000
0002001000
0006003800
7ffffffc00
0008100000
0018080000
00300c0000
0060060000
00c0018000
018700e000
0604007800
0c04001f00
300c000400
c00c008000
0fffffc000
000800c000
0008018000
0018018000
0010018000
0030018000
0020018000
0060010000
00c0010000
0080010000
0100030000
0603e60000
0c003c0000
3000080000
0000000000
0000000000
0000000000
ENDCHAR
STARTCHAR 2153
ENCODING 8531
SWIDTH 1020 0
DWIDTH 34 0
BBX 34 35 0 -4
BITMAP
0000000020
0000000000
0001000000
0001e00000
0001800000
0801800000
0801800c00
0ffffffe00
1000000800
3000001000
6000002000
0000000000
0000000000
0000000c00
4000001e00
3ffffffe00
0000800000
0000800000
0000800000
0000800000
0000800000
0000800000
0000800000
0000800000
0000800000
0000800000
0000800000
0000800000
0000800000
003f800000
0003800000
0003000000
0000000000
0000000000
0000000000
ENDCHAR
STARTCHAR 2154
ENCODING 8532
SWIDTH 1020 0
DWIDTH 34 0
BBX 34 35 0 -4
BITMAP
0000000020
0000000000
0001800000
0001e00000
0001800000
0801800000
0801800800
0ffffffe00
1800001800
1008001000
300e002000
6004004000
000c000000
000c000000
000c040000
1ffffe0000
000c0c0000
00080c0000
00080c0000
00180c0000
00180c0000
00100c0000
00300c0000
00300c0400
00600c0400
00400c0400
00c00c0400
01800c0400
03000c0c00
06000ffe00
180003f800
6000000000
0000000000
0000000000
0000000000
ENDCHAR
STARTCHAR 2155
ENCODING 8533
SWIDTH 1020 0
DWIDTH 34 0
BBX 34 35 0 -4
BITMAP
0000000020
0000000000
0001800000
0001c00000
0003800000
0006400000
0006200000
000c100000
0018080000
0030040000
0060030000
00c001c000
030000f000
0600003e00
1801000e00
6001e00000
0001800000
0001800000
0001800000
0081800000
00e1820000
00c1810000
0181808000
0181804000
0301806000
0601803000
0401801800
0c01801800
1001800c00
201f800800
0007000000
0002000000
0000000000
0000000000
0000000000
ENDCHAR
STARTCHAR 2156
ENCODING 8534
SWIDTH 1020 0
DWIDTH 34 0
BBX 34 35 0 -4
BITMAP
0000000020
0000000000
0000004000
0800006000
0ffffff000
0c00006000
0c00006000
0c00006000
0c00006000
0c00006000
0fffffe000
0c00004000
0c03800000
0c03000000
0c03000000
0c03000000
0c03020000
0dffff0000
0c02060000
0c02060000
0c06060000
0806060000
0804060400
0804060400
080c060400
1808060400
1018060400
1030060400
3060060600
20c003fe00
4300000000
4400000000
0000000000
0000000000
0000000000
ENDCHAR
STARTCHAR 2157
ENCODING 8535
SWIDTH 1020 0
DWIDTH 34 0
BBX 34 35 0 -4
BITMAP
0000000020
0000000000
0001000000
2001e01000
3801800e00
3001800800
3001800800
3001800800
3001800800
3001800800
3001800800
3001800800
3ffffff800
3000000800
3000000800
1001c00000
0001000000
0003000000
0003000400
7ffffffe00
0003000c00
0006000c00
0006000c00
000c000c00
0008000800
0010001800
0030001800
00c0001800
0180203000
06001ff000
380003e000
4000018000
0000000000
0000000000
0000000000
ENDCHAR
STARTCHAR 2158
ENCODING 8536
SWIDTH 1020 0
DWIDTH 34 0
BBX 34 35 0 -4
BITMAP
0000000020
0000000000
0001000000
07ffc00000
0003800000
0006400000
0004200000
000c100000
0018080000
0030060000
0060030000
008001c000
0300007000
0c00003f00
1800000e00
6001c00000
0001e00000
0001800000
0c01802000
0601803800
0401802000
0401802000
0401802000
0401802000
0401802000
0401802000
0401802000
0401802000
0401802000
0fffffe000
0c00002000
0400002000
0000000000
0000000000
0000000000
ENDCHAR
STARTCHAR 2159
ENCODING 8537
SWIDTH 1020 0
DWIDTH 34 0
BBX 34 35 0 -4
BITMAP
0000000020
0000000000
0400000000
0780000000
0200000400
0204000f00
0207fffe00
4220030000
4230030000
7ff8030000
6230030000
6230030000
6230030000
6230030000
6230030000
6230030000
6230030000
6230030000
6230030000
6230030000
6230030000
6230030000
62a0030000
62e0030000
6260030000
0200030000
0200030000
0200030000
0600030000
06007f0000
0600060000
0200000000
0000000000
0000000000
0000000000
ENDCHAR
STARTCHAR 215a
ENCODING 8538
SWIDTH 1020 0
DWIDTH 34 0
BBX 34 35 0 -4
BITMAP
0000000020
0000000000
0001800000
0001e00000
0801800800
0801801e00
0ffffffe00
0c00000000
0c00000000
0c00000000
0c00000000
0c10000000
0c1c000000
0c18000000
0c18008000
0c1801e000
0c18038000
08180e0000
0818380000
0818c00000
081f000000
0818000000
0818000000
0818000000
1818000800
1818000800
1018000800
1018000800
1018001800
200ffffc00
2003ffc000
4000000000
0000000000
0000000000
0000000000
ENDCHAR
STARTCHAR 215b
ENCODING 8539
SWIDTH 1020 0
DWIDTH 34 0
BBX 34 35 0 -4
BITMAP
0000000020
0000000000
0001800000
0001e00000
1001801800
0801801e00
0ffffffc00
0c00000000
0c00000000
0c01000000
0c00e00000
0c00c00000
0c00c00000
0c00c00000
0800c00000
0800c00000
0800c00000
0801c00000
0801a00000
0801a00000
0803300000
0803100000
0802080000
18060c0000
180c060000
100c030000
1018018000
103000e000
2060007000
2180003e00
4700001800
0c00000000
0000000000
0000000000
0000000000
ENDCHAR
STARTCHAR 215c
ENCODING 8540
SWIDTH 1020 0
DWIDTH 34 0
BBX 34 35 0 -4
BITMAP
0000000020
0000000000
0400000000
0780000000
0200000800
020ffffe00
0200100c00
0200100800
0280100800
1240100800
1220100800
2220100800
2230100800
2220100800
6200101800
6200301800
0200301800
0200301800
0200201800
0200201800
0200601800
0200401800
0200401000
0200c01000
0200801000
0201803000
0201003000
0202103000
06041c6000
060803c000
0610018000
0220000000
0000000000
0000000000
0000000000
ENDCHAR
STARTCHAR 215d
ENCODING 8541
SWIDTH 1020 0
DWIDTH 34 0
BBX 34 35 0 -4
BITMAP
0000000020
0000000000
0000800000
0000e40000
0000c60000
0000c38000
0000c18000
0400c08800
0400c01c00
07fffffe00
0600c00000
0600c00000
0600c00000
0600403000
0600407800
0600406000
060060c000
0600608000
0600618000
0600330000
0600320000
0600160000
06001c0000
06021c0200
060c3e0200
0630670200
07c0c38400
1f0101c400
7c0600f400
2008003c00
2030000e00
00c0000000
0000000000
0000000000
0000000000
ENDCHAR
STARTCHAR 215e
ENCODING 8542
SWIDTH 1020 0
DWIDTH 34 0
BBX 34 35 0 -4
BITMAP
0000000020
0000000000
0400080000
03800e0000
02000c0000
02000c0000
02000c0000
02000c0000
02400c0800
42640c0c00
3ff3fffe00
0200080800
0200080800
0200080800
0200080800
0200080800
0230180800
02c0180800
0f80180800
7e00100800
3200100800
2200301800
0200201800
0200601800
0200401800
0200c01000
0201801000
0201003000
0202083000
3e0c07e000
0e1001c000
0c20000000
0000000000
0000000000
0000000000
ENDCHAR
STARTCHAR 215f
ENCODING 8543
SWIDTH 1020 0
DWIDTH 34 0
BBX 34 35 0 -4
BITMAP
0000000020
0000000000
00c0000000
00f0004000
00c0006000
01fffff800
0180000000
0300020000
0600070000
0c7fff8000
1800000000
3000008000
400000c000
0fffffe000
000000c000
0000008000
0000308000
0000788000
0000608000
0000c08000
000080c000
000180c000
0003004200
0006004200
000c006200
0018006200
0030003400
0040003400
0080001c00
0300000e00
1c00000600
0000000000
0000000000
0000000000
0000000000
ENDCHAR
STARTCHAR 2160
ENCODING 8544
SWIDTH 1020 0
DWIDTH 34 0
BBX 34 35 0 -4
BITMAP
0000000020
0000000000
0000000000
0000010000
07ffff8000
000003c000
0000060000
00000c0000
0000100000
0001200000
0001c00000
0001802000
0009c03800
3fffc06000
001da0c000
0019a18000
0011930000
00318e0000
0021880000
0061840000
0041820000
00c1830000
0181818000
010180c000
0201807000
0401803800
0801801e00
1001800f00
2001800000
401f800000
0003000000
0002000000
0000000000
0000000000
0000000000
ENDCHAR
STARTCHAR 2161
ENCODING 8545
SWIDTH 1020 0
DWIDTH 34 0
BBX 34 35 0 -4
BITMAP
0000000020
0000000000
0000000000
1000060000
0c007f0000
0600060000
0200040000
0000040000
0023840000
0043040000
0042040000
6082040000
3082020000
1882020000
0d02020000
0102020000
0102010000
0206010000
0206010000
0606018000
0404008000
0404008000
0c0c00c000
7808006000
0808006000
0810003000
0c10003800
0c20001c00
0c40000c00
0c80000700
0d00000400
0000000000
0000000000
0000000000
0000000000
ENDCHAR
STARTCHAR 2162
ENCODING 8546
SWIDTH 1020 0
DWIDTH 34 0
BBX 34 35 0 -4
BITMAP
0000000020
0000000000
0001000000
1800e00000
0600c00000
0300c00000
0300c00000
0000c00000
0040c00000
0040c08000
4040c1c000
609fffc000
1880c08000
0c80c08000
0d00c08000
0100808000
0100808000
0200808000
0201808000
0601808000
0401808000
0401008000
0c03008000
7c03008400
0c02008400
0c06008400
0c04008400
0c08008400
0c18008600
0c2000fe00
0cc0000000
0000000000
0000000000
0000000000
0000000000
ENDCHAR
STARTCHAR 2163
ENCODING 8547
SWIDTH 1020 0
DWIDTH 34 0
BBX 34 35 0 -4
BITMAP
0000000020
0000000000
0000100000
18000e0000
0c00080000
0600080000
0300080000
0100080000
0000080000
0030180800
0028180e00
4027fffe00
3040180c00
1840180c00
0c80100c00
0880300c00
0100300c00
0100300800
0300200800
0200600800
0600400800
0400c00800
0c00c00800
7c01800800
0801001800
0803001800
0c06001800
0c0c001000
0c18103000
0c300ff000
0c4001e000
0080000000
0000000000
0000000000
0000000000
ENDCHAR
STARTCHAR 2164
ENCODING 8548
SWIDTH 1020 0
DWIDTH 34 0
BBX 34 35 0 -4
BITMAP
0000000020
0000000000
0018000000
001c1c0000
0018070000
0018038000
0018018000
0008001000
0008001800
7ffffffe00
0018000000
0018000000
0018000000
001803c000
0018030000
0018030000
0018030000
0034030000
0024020000
0022060000
0063060000
0041040000
00c08c0000
0080d80000
0100700000
0300300000
0600dc0000
0c01870000
180203e000
600c007c00
0070001800
0080000000
0000000000
0000000000
0000000000
ENDCHAR
STARTCHAR 2165
ENCODING 8549
SWIDTH 1020 0
DWIDTH 34 0
BBX 34 35 0 -4
BITMAP
0000000020
0000000000
0041000000
3070e00000
1070c00000
08c0c00000
0980c00000
0700c00000
0e00c00000
1a00c08000
6220c1c000
011fffc000
0100c08000
0180c08000
0380c08000
0380808000
0680808000
0480808000
0881808000
1081808000
2081808000
c081008000
0083008000
0083008400
0082008400
0086008400
0184008400
0188008400
2318008600
1f3000fe00
0440000000
0080000000
0000000000
0000000000
0000000000
ENDCHAR
STARTCHAR 2166
ENCODING 8550
SWIDTH 1020 0
DWIDTH 34 0
BBX 34 35 0 -4
BITMAP
0000000020
0000000000
0000000000
0000002000
0000007000
1ffffff800
0001800000
0001880000
0001860000
0001830000
0001818000
0001808000
0001808000
0001800000
0001808000
000181c000
07ffffe000
0001800000
0001800000
0001800000
0001800000
0001800000
0001800000
0001800000
0001800000
0001800000
0001800800
0001801c00
7ffffffe00
0000000000
0000000000
0000000000
0000000000
0000000000
0000000000
ENDCHAR
STARTCHAR 2167
ENCODING 8551
SWIDTH 1020 0
DWIDTH 34 0
BBX 34 35 0 -4
BITMAP
0000000020
0000000000
0002000000
0001c00000
0003000000
0003000000
0003000000
1803001800
0ffffffc00
0802001000
0802001000
0806001000
0804001000
0804001000
0804101000
0804181000
08080c1000
08083e1000
080fe31000
08fe031000
0860011000
0840001000
0800001000
0800001000
0800001000
0800001000
0800001000
0800001000
0800001000
180007f000
1800007000
0800000000
0000000000
0000000000
0000000000
ENDCHAR
STARTCHAR 2168
ENCODING 8552
SWIDTH 1020 0
DWIDTH 34 0
BBX 34 35 0 -4
BITMAP
0000000020
0000000000
0000000000
1020000000
1ff0004000
1864006000
1863fff000
186000c000
1860018000
1860010000
1860030000
1fe0060000
1860040000
18600c0000
1860180000
1860100000
1860300000
1860600000
1860400000
1fe0c00000
1060800000
1061000000
1063000400
1062000400
1062000400
1066000400
3066000400
2067000600
2063fffe00
27e0fff800
40e0000000
0080000000
0000000000
0000000000
0000000000
ENDCHAR
STARTCHAR 2169
ENCODING 8553
SWIDTH 1020 0
DWIDTH 34 0
BBX 34 35 0 -4
BITMAP
0000000020
0000000000
0000000000
10201c0000
1ff0180000
1060180000
1040180000
10c0180000
1080180000
1088180c00
1107fffc00
1100181800
1200181800
1100101800
1080101800
1040101800
1040301800
1020301800
1020201800
1020201800
1030601800
1030601000
1020401000
17e0c01000
10c0801000
1001801000
1001003000
1002003000
1006102000
100c0fe000
101801c000
0010000000
0000000000
0000000000
0000000000
ENDCHAR
STARTCHAR 216a
ENCODING 8554
SWIDTH 1020 0
DWIDTH 34 0
BBX 34 35 0 -4
BITMAP
0000000020
0000000000
0080200000
01e03c0000
0180100000
0180100000
0100100800
0300100c00
027ffffe00
0600100000
0700100000
0e00100000
0e00100000
1600100000
2640106000
463ffff000
c604006000
0602004000
060200c000
0602008000
0601018000
0600830000
0600c60000
0600440000
06002c0000
0600180000
06006c0000
0600c70000
060301c000
060c00fc00
0670001e00
0680000000
0000000000
0000000000
0000000000
ENDCHAR
STARTCHAR 216b
ENCODING 8555
SWIDTH 1020 0
DWIDTH 34 0
BBX 34 35 0 -4
BITMAP
0000000020
0000000000
0040200000
00f01c0000
00c0110000
00c0108000
0080106000
0180106000
0100102000
0300100800
0300100c00
071ffffe00
0600100000
0a00100000
1a001f0000
3200360000
6200340000
4200340000
0200240000
0200240000
0200640000
0200640000
0200440000
0200c40400
0200840400
0201840400
0203040400
0202040400
020c040600
031807fe00
032001f800
0240000000
0000000000
0000000000
0000000000
ENDCHAR
STARTCHAR 216c
ENCODING 8556
SWIDTH 1020 0
DWIDTH 34 0
BBX 34 35 0 -4
BITMAP
0000000020
0000000000
0080000000
00f2001000
00c1001800
00c1fffc00
0181001800
0181001800
0101001800
0301001800
0201001800
0701001800
0e01001800
0a01001800
1a01fff800
3201041800
6201041000
c201040000
0203040000
0203020000
0203020000
0203010000
0202010000
0202018000
020600c000
0204004000
020c006000
0208003000
0218001c00
0210000e00
0220000400
0200000000
0000000000
0000000000
0000000000
ENDCHAR
STARTCHAR 216d
ENCODING 8557
SWIDTH 1020 0
DWIDTH 34 0
BBX 34 35 0 -4
BITMAP
0000000020
0000000000
0101000000
01e1c00000
01c1000000
0183000000
0102001000
0306003800
0207fffc00
060c080000
0408080000
0f10080000
0e30080000
1e60080000
3600080000
2600080800
4640081e00
863ffffe00
0600080000
0600080000
0600080000
0600080000
0600080000
0600080000
0600080000
0600080000
0600080000
0600080000
0600080000
0600080000
0600180000
0400080000
0000000000
0000000000
0000000000
ENDCHAR
STARTCHAR 216e
ENCODING 8558
SWIDTH 1020 0
DWIDTH 34 0
BBX 34 35 0 -4
BITMAP
0000000020
0000000000
0100000000
01c8000000
0108000c00
030ffffe00
0308000800
0218001000
0610002000
0630000000
0601010000
0e01818000
0c01ffc000
1401818000
3401818000
2401818000
4400818000
8401818000
0401818000
0401818000
0401818000
0401818000
0401018000
0401018000
0403018400
0402018400
0406018400
0404018400
0408018600
061801fe00
0620007c00
0440000000
0000000000
0000000000
0000000000
ENDCHAR
STARTCHAR 216f
ENCODING 8559
SWIDTH 1020 0
DWIDTH 34 0
BBX 34 35 0 -4
BITMAP
0000000020
0000000000
0080200000
01e0780000
0180700000
0180480000
0100cc0000
0301840000
0201820000
0603010000
060600c000
0f0c006000
0e18063000
1e37ff1e00
1660000f00
2680000000
4600000000
c600000000
0600004000
063fffe000
060000c000
0600008000
0600018000
0600010000
0600030000
0600020000
0600060000
0600040000
06000c0000
0600080000
0600180000
0400000000
0000000000
0000000000
0000000000
ENDCHAR
STARTCHAR 2170
ENCODING 8560
SWIDTH 1020 0
DWIDTH 34 0
BBX 34 35 0 -4
BITMAP
0000000020
0000000000
0080000000
01e0010000
01803f8000
0180010000
0100c10000
0301e10000
0301808000
0201008000
060300c000
0702004000
0e06002000
0e04003000
160c301800
2608380e00
6610300700
c620200000
0620600000
0600600000
0600400000
0600c10000
0600808000
060080c000
0601806000
0601003000
060207f000
0603fc1800
063fc01800
0610000800
0610000000
0400000000
0000000000
0000000000
0000000000
ENDCHAR
STARTCHAR 2171
ENCODING 8561
SWIDTH 1020 0
DWIDTH 34 0
BBX 34 35 0 -4
BITMAP
0000000020
0000000000
0080200000
01e0380000
0180280000
01806c0000
0100440000
0300c20000
0201810000
0603018000
060200e000
0f04007000
0e08003c00
1e33018f00
166381c400
2683018000
4603018000
8601018000
0603018000
0603018000
0603018000
0603018000
0603018000
0602018000
0602018000
0606018000
060c018000
060c018000
0618018000
0630018000
0660018000
0680000000
0000000000
0000000000
0000000000
ENDCHAR
STARTCHAR 2172
ENCODING 8562
SWIDTH 1020 0
DWIDTH 34 0
BBX 34 35 0 -4
BITMAP
0000000020
0000000000
0100000000
01e0000000
01c0c00000
0180300000
0100180000
03000e0000
0300070000
0201010000
0601c00000
0701800000
0e01800000
0e01800000
1601800000
3611802000
2611801000
4611801800
0611800800
0611800c00
0631800600
0631800600
0621802200
0661802200
06e1802000
0641802000
0601802000
0601806000
0601807000
0600ffe000
0600000000
0000000000
0000000000
0000000000
0000000000
ENDCHAR
STARTCHAR 2173
ENCODING 8563
SWIDTH 1020 0
DWIDTH 34 0
BBX 34 35 0 -4
BITMAP
0000000020
0000000000
0080000000
00e0000000
0180002000
0188007800
018ffff800
0300000000
0300000000
0200000000
0600000000
0700000000
0e00000800
0e40001c00
163ffffe00
3600200000
2600600000
4600600000
0600400000
0600c08000
0600808000
0600804000
0601002000
0601003000
0601001800
0602003800
060203cc00
0605fc0c00
063f000600
0630000600
0620000000
0000000000
0000000000
0000000000
0000000000
ENDCHAR
STARTCHAR 2174
ENCODING 8564
SWIDTH 1020 0
DWIDTH 34 0
BBX 34 35 0 -4
BITMAP
0000000020
0000000000
0080000000
00e00e0000
01800c0000
01800c0000
01000c0400
03080c0e00
030fffff00
02000c0000
06000c0000
07000c0000
0e040c0800
0a07fffc00
12060c1800
22060c1800
62060c1800
42060c1800
02060c1800
02060c1800
02060c1800
02060c1800
02060c1800
02060c1800
02060c1800
02060c1800
02060df800
02060c3000
02000c0000
02000c0000
06000c0000
0200080000
0000000000
0000000000
0000000000
ENDCHAR
STARTCHAR 2175
ENCODING 8565
SWIDTH 1020 0
DWIDTH 34 0
BBX 34 35 0 -4
BITMAP
0000000020
0000000000
0100200000
01e03c0000
0180100000
0180103800
010010fc00
030013c000
02003e0000
061ff00000
0600100000
0700100000
0e10102000
0e0e103800
1608103000
2608103000
4608103000
c608103000
0608103000
0608103000
0608103000
060ffff000
0608103000
0608102000
0600100400
0600100400
0600100400
0600100400
0600100400
06001ffe00
06000ffc00
0600000000
0000000000
0000000000
0000000000
ENDCHAR
STARTCHAR 2176
ENCODING 8566
SWIDTH 1020 0
DWIDTH 34 0
BBX 34 35 0 -4
BITMAP
0000000020
0000000000
0100000000
01e0001800
018ffffc00
0180010000
0104010000
0307810000
0206010000
0606010000
0404010000
0f04010000
0e04010800
1e0c010c00
160fffff00
2608070000
4608050000
c6000d0000
0600190000
0600310000
0600210000
0600410000
0600810000
0601010000
0606010000
060c010000
0630010000
0640010000
0600030000
06007f0000
0600060000
0400000000
0000000000
0000000000
0000000000
ENDCHAR
STARTCHAR 2177
ENCODING 8567
SWIDTH 1020 0
DWIDTH 34 0
BBX 34 35 0 -4
BITMAP
0000000020
0000000000
0100000000
01c0000800
01a0001c00
011ffffe00
03000c0000
0200180000
0200180000
0600300000
0600300000
0f00600000
0e00780000
1e00f00000
1601b30000
260130c000
4602306000
c606303000
060c301800
0618300c00
0630300600
0640300200
0600300000
0600300000
0600300000
0600300000
0600300000
0600300000
0600300000
0600300000
0600300000
0400200000
0000000000
0000000000
0000000000
ENDCHAR
STARTCHAR 2178
ENCODING 8568
SWIDTH 1020 0
DWIDTH 34 0
BBX 34 35 0 -4
BITMAP
0000000020
0000000000
0100000000
01c0001000
019ffff800
0300103000
0300103000
0200103000
0200103000
0600103000
0408103000
0e1ffff000
0e18103000
1c18100000
1418100000
2418100000
2410100000
4430100c00
443ffffe00
0430100c00
0460100800
0420100800
0400100800
0400101800
0400101800
0400121800
040011f000
0400106000
0400300000
0600300000
0600300000
0400100000
0000000000
0000000000
0000000000
ENDCHAR
STARTCHAR 2179
ENCODING 8569
SWIDTH 1020 0
DWIDTH 34 0
BBX 34 35 0 -4
BITMAP
0000000020
0000000000
0080000000
00e2000c00
00c3fffe00
0182000800
0182000800
0102000800
0302000800
0202000800
0602000800
0702000800
0e03fff800
1e02000800
1602000800
2602000800
4602000800
8602000800
0602000800
0603fff800
0602000800
0602000800
0606000800
0606000800
0604000800
0604000800
060c000800
0608000800
0608000800
061003f800
0620003800
0220000000
0000000000
0000000000
0000000000
ENDCHAR
STARTCHAR 217a
ENCODING 8570
SWIDTH 1020 0
DWIDTH 34 0
BBX 34 35 0 -4
BITMAP
0000000020
0000000000
0100004000
01e001f000
01883f9000
018fe00000
030c000000
030c000000
020c000000
060c000000
060c000800
0f0c000e00
0e0fffff00
160c020000
360c020000
660c020000
460c020000
860c020000
060c020000
0608020000
0608020000
0608020000
0608020000
0608020000
0618020000
0610020000
0610020000
0630020000
0620020000
0640020000
0640020000
0400020000
0000000000
0000000000
0000000000
ENDCHAR
STARTCHAR 217b
ENCODING 8571
SWIDTH 1020 0
DWIDTH 34 0
BBX 34 35 0 -4
BITMAP
0000000020
0000000000
0000000000
4000000800
3040001c00
183ffffe00
0c00c00000
0600800000
0600800000
0041800000
0041804000
0081006000
0083fff000
010300c000
010200c000
010200c000
0206008000
0206008000
0204018000
040c018000
040c018000
0c0fff0000
4818010000
3818030000
1800030000
0800030000
0800020000
0800020800
0800061c00
0cfffffe00
0c00000000
0000000000
0000000000
0000000000
0000000000
ENDCHAR
STARTCHAR 217c
ENCODING 8572
SWIDTH 1020 0
DWIDTH 34 0
BBX 34 35 0 -4
BITMAP
0000000020
0000000000
0000001000
0001000e00
1001c00800
0fffc20800
0000038800
0000030800
0000030800
0000030800
0000030800
0000430800
4000f30800
3ffff30800
030c030800
030c030800
030c030800
030c030800
030c030800
030c030800
020c030800
020c030800
020c020800
060c120800
040c100800
040c100800
0c0c100800
080c300800
100ff80800
3007e1f800
4000003800
0000002000
0000000000
0000000000
0000000000
ENDCHAR
STARTCHAR 217d
ENCODING 8573
SWIDTH 1020 0
DWIDTH 34 0
BBX 34 35 0 -4
BITMAP
0000000020
0000000000
0000000000
0801001e00
0fff800c00
0803000800
0803070800
0883038800
0883020800
0843020800
0863020800
0823020800
0823020800
0823020800
0803420800
8803620800
7ffff20800
0803020800
0803020800
0803020800
0803020800
0803060800
1803060800
1803000800
1803000800
1003000800
1003000800
1003000800
2003001800
207f03f800
4006003800
0004002000
0000000000
0000000000
0000000000
ENDCHAR
STARTCHAR 217e
ENCODING 8574
SWIDTH 1020 0
DWIDTH 34 0
BBX 34 35 0 -4
BITMAP
0000000020
0000000000
0001c00000
0001000000
0003001000
1003001800
1ffffffc00
0002001000
0006001000
000c003000
0018003000
0030002000
00c03c6000
038003c000
3c00018000
01c0030000
0180038000
4186830600
3fff7ffe00
0106020400
0106020400
0106020c00
0306060c00
0306040c00
0306040c00
02040c0c00
0604080800
0404180800
080c300800
19fc43f800
203b807000
4000000000
0000000000
0000000000
0000000000
ENDCHAR
STARTCHAR 2221
ENCODING 8737
SWIDTH 1020 0
DWIDTH 34 0
BBX 34 35 0 -4
BITMAP
0000000020
0000000000
0000001000
2000003000
1ffffffc00
1000000000
100f000000
100e000000
1018002000
1018007000
103ffff000
10618c6000
10c30c6000
1182086000
1206186000
100c186000
1008306000
1018204000
1030604000
1060c04000
1181804000
130300c000
140600c000
100c00c000
1010008000
1060798000
10800f0000
1000060800
1000001c00
1ffffffe00
3000000000
1000000000
0000000000
0000000000
0000000000
ENDCHAR
STARTCHAR 2222
ENCODING 8738
SWIDTH 1020 0
DWIDTH 34 0
BBX 34 35 0 -4
BITMAP
0000000020
0000000000
0000000000
2000001800
1ffffffc00
1000000000
1000800000
1000e00000
1000806000
17fffff800
1000000000
1000000000
1010080000
10180c0000
101ffc0000
1018080000
1008080000
1018080000
1018080000
1018080000
1018081000
1018081000
1010081000
1030081800
1060081c00
10c00ff800
1300000000
1600000800
1000000e00
3fffffff00
3000000000
1000000000
0000000000
0000000000
0000000000
ENDCHAR
STARTCHAR 2223
ENCODING 8739
SWIDTH 1020 0
DWIDTH 34 0
BBX 34 35 0 -4
BITMAP
0000000020
0000000000
0000000000
0001800000
3fffc01800
0001801c00
0001801800
0001801800
0001801800
0001801800
0001801800
0001801800
0001801800
0001801800
0001801800
1001801800
1ffffff800
1801801000
1801800000
1801800000
1801800000
1801800000
1801800000
1801800000
1801800000
1801800000
1801801000
1801801c00
1801fffe00
1801800000
1801800000
0000000000
0000000000
0000000000
0000000000
ENDCHAR
STARTCHAR 2224
ENCODING 8740
SWIDTH 1020 0
DWIDTH 34 0
BBX 34 35 0 -4
BITMAP
0000000020
0000000000
0000000800
0800001c00
0ffffffe00
0800000000
0800002000
0800003000
087ffff800
0800040000
0808040000
081e040000
0818040000
0810040000
0810040000
0830040800
0830041c00
083ffffe00
0860340000
0800340000
1800640000
1800c40000
1801840000
1006040000
100c040000
1030040000
10c0040000
2300040000
2000040000
4001fc0000
40001c0000
0000100000
0000000000
0000000000
0000000000
ENDCHAR
STARTCHAR 2225
ENCODING 8741
SWIDTH 1020 0
DWIDTH 34 0
BBX 34 35 0 -4
BITMAP
0000000020
0000000000
0000000000
0000000800
0007fffc00
60c0003e00
3fe0003000
20c0004000
20c0008000
20c0010000
20c00e0000
20c00e0000
20c0080000
20c0080000
20c0080800
20c0080c00
20dffffe00
20c0080000
20c0080000
20c0080000
20c0080000
20c0080000
3fc0080000
60c0080000
60c0080000
2000080000
0000080000
0000080000
0000080000
0001f80000
0000380000
0000200000
0000000000
0000000000
0000000000
ENDCHAR
STARTCHAR 2226
ENCODING 8742
SWIDTH 1020 0
DWIDTH 34 0
BBX 34 35 0 -4
BITMAP
0000000020
0000000000
2000000800
1000000c00
1ffffffe00
1000000800
1003800800
1002000800
1006000800
1004000800
100c008800
17ffffe800
10080c0800
1018080800
1010080800
1030180800
1020180800
1060100800
1060300800
10f8200800
10c7600800
1000e00800
1001b80800
10030e0800
100c030800
1070018800
1380008800
1000000800
1000000800
1ffffff800
1000000800
0000000000
0000000000
0000000000
0000000000
ENDCHAR
STARTCHAR 2227
ENCODING 8743
SWIDTH 1020 0
DWIDTH 34 0
BBX 34 35 0 -4
BITMAP
0000000020
0000000000
0003000000
0007800000
0006000000
000c000000
2030000800
10e0000c00
1ffffffc00
1000000800
1000020800
1000078800
1100060800
10c0040800
10200c0800
1018180800
100c180800
1003300800
1001e00800
1000c00800
1000b00800
1001180800
10020c0800
100c060800
1018030800
1060018800
1180018800
1200000800
1000000800
1ffffff800
1000000800
1000000800
0000000000
0000000000
0000000000
ENDCHAR
STARTCHAR 2228
ENCODING 8744
SWIDTH 1020 0
DWIDTH 34 0
BBX 34 35 0 -4
BITMAP
0000000020
0000000000
0000000000
0400003000
078ffff800
0600003000
0600003000
0600003000
0600003000
0600003000
0600003000
0660003000
7ff0003000
0606003000
0607fff000
0606003000
0606003000
0606000000
0606000000
0606000000
0606000000
0616000000
0636000000
06c6000400
0786000400
1e06000400
7806000400
6006000400
2003000e00
0003fffe00
00007fe000
0000000000
0000000000
0000000000
0000000000
ENDCHAR
STARTCHAR 2229
ENCODING 8745
SWIDTH 1020 0
DWIDTH 34 0
BBX 34 35 0 -4
BITMAP
0000000020
0000000000
0800400000
0700700000
0600400000
0600c00000
0600801800
0601801c00
0601fffe00
0643000000
0662000000
7ff4000000
0608000000
0610018000
0603ffc000
060003e000
0600070000
06000e0000
06000c0000
0600180000
0610300000
0660600000
07c0c00400
0701800400
7c01800400
7003000400
6006000400
0006000400
0006000e00
0003fffe00
00007ff000
0000000000
0000000000
0000000000
0000000000
ENDCHAR
STARTCHAR 222a
ENCODING 8746
SWIDTH 1020 0
DWIDTH 34 0
BBX 34 35 0 -4
BITMAP
0000000020
0000000000
0400600000
0780700000
0600400000
0600c00000
0600800000
0601800400
0601800e00
0643fffe00
8662000c00
7ff6000c00
060c000c00
0608000c00
0610800c00
0600600c00
0600300c00
0600180c00
0600180c00
0600080800
0610000800
0660000800
06c0000800
0700001800
3e00001800
7800001800
6000001800
2000003000
0000103000
00000ff000
000001e000
0000010000
0000000000
0000000000
0000000000
ENDCHAR
STARTCHAR 222b
ENCODING 8747
SWIDTH 1020 0
DWIDTH 34 0
BBX 34 35 0 -4
BITMAP
0000000020
0000000000
0003800000
0003000000
0002001000
0006001800
7ffffffc00
000c180000
00180c0000
0030060000
0060030000
00c0018000
018000e000
0600003800
0d00011f00
31c1e1e400
4181818000
0181818000
0181818000
0181818000
0181818000
0181818000
0181818000
0181818000
0101818000
0101818000
0101818000
0301818000
0201818000
0400018000
0800018000
1000000000
0000000000
0000000000
0000000000
ENDCHAR
STARTCHAR 222c
ENCODING 8748
SWIDTH 1020 0
DWIDTH 34 0
BBX 34 35 0 -4
BITMAP
0000000020
0000000000
0000040000
0000070000
0018040000
7ffc0c0000
00180c0000
0018080000
0018080000
0018080000
0018180c00
001bffff00
0018103000
0018103000
3018303000
3ff8203000
3018203000
3010602000
3000602000
3000406000
3000c06000
3000f0c000
30008cc000
3009878000
303001c000
30c0036000
3f00023800
7c000c1c00
3000180e00
2000700600
0007c00200
0000000000
0000000000
0000000000
0000000000
ENDCHAR
STARTCHAR 222d
ENCODING 8749
SWIDTH 1020 0
DWIDTH 34 0
BBX 34 35 0 -4
BITMAP
0000000020
0000000000
0300002000
03c0007000
020001e000
02000f0000
0200780000
0607980000
0410180000
7ff8180000
0410180000
0c30180000
0830180800
0830180c00
1830181e00
18201fe000
102ff80000
1064180000
3060180000
2040180000
7040180000
6cc0180000
6380180000
0180180400
01e0180400
0270180400
0630180400
0c18180400
0800180400
10001ffe00
200007f800
4000000000
0000000000
0000000000
0000000000
ENDCHAR
STARTCHAR 222e
ENCODING 8750
SWIDTH 1020 0
DWIDTH 34 0
BBX 34 35 0 -4
BITMAP
0000000020
0000000000
0300000000
03c0000000
0200000800
0208001c00
0207fffe00
06000c0000
06100c0000
7ff80c0000
04100c0000
04300c0000
0c300c0000
08300c0000
08300c0000
18200c0000
10200c0000
10200c0000
30600c0000
30400c0000
30400c0000
6cc00c0000
63800c0000
01800c0000
01e00c0000
02700c0000
06300c0000
04100c0000
08000c0c00
101fffff00
2000000000
4000000000
0000000000
0000000000
0000000000
ENDCHAR
STARTCHAR 222f
ENCODING 8751
SWIDTH 1020 0
DWIDTH 34 0
BBX 34 35 0 -4
BITMAP
0000000020
0000000000
0100080000
01c00f0000
0300080000
0300080000
0200080000
0200180000
0208100c00
7fffffff00
040c103000
0408303000
0418203000
0c18202000
0818602000
1810602000
1810406000
1010c06000
3030c04000
302080c000
3821c0c000
6641b0c000
43c10d8000
00c0078000
01e003c000
013802e000
0218043800
060c181c00
0800300c00
1000e00600
200b000200
4004000000
0000000000
0000000000
0000000000
ENDCHAR
STARTCHAR 2230
ENCODING 8752
SWIDTH 1020 0
DWIDTH 34 0
BBX 34 35 0 -4
BITMAP
0000000020
0000000000
0100040000
01c0078000
0300060000
0300060000
0200060000
0200060000
0212060800
7ffb860e00
041b060c00
0413060c00
0c33060c00
0833060c00
0833060c00
1823060c00
1823060c00
1023060c00
3063060c00
3043060c00
3043060c00
6cc3060c00
6383060c00
0183060c00
01e3060c00
0273060c00
0633060c00
041bfffc00
0803000c00
1003000c00
2003000c00
4000000000
0000000000
0000000000
0000000000
ENDCHAR
STARTCHAR 2231
ENCODING 8753
SWIDTH 1020 0
DWIDTH 34 0
BBX 34 35 0 -4
BITMAP
0000000020
0000000000
0200002000
0380007000
020001fc00
06001f0000
0603f60000
0404060000
0410060000
7ff8060000
0c18060000
0830060000
0830060000
0830060400
1838060e00
1027ffff00
1020060000
3020060000
3060060000
2040060000
7040060000
6cc0060000
4680060000
0180060000
01c0060000
02e0060000
0670060000
0c30060000
1800060000
3000060000
6000060000
0000040000
0000000000
0000000000
0000000000
ENDCHAR
STARTCHAR 2232
ENCODING 8754
SWIDTH 1020 0
DWIDTH 34 0
BBX 34 35 0 -4
BITMAP
0000000020
0000000000
0700000000
0200060000
02000f0000
02000c0000
0200080000
0200080000
0200180000
020c181000
7ffc101800
0209fffc00
0208304000
0208204000
4208204000
260860c000
160840c000
0e08f08000
0608cd8000
0608078000
0708038000
070802e000
0d88043000
0d88181000
0888701a00
0809800400
1008000400
1008000400
2008000600
200fffff00
4007fff800
4000000000
0000000000
0000000000
0000000000
ENDCHAR
STARTCHAR 2233
ENCODING 8755
SWIDTH 1020 0
DWIDTH 34 0
BBX 34 35 0 -4
BITMAP
0000000020
0000000000
0000000000
0004000800
3ffefffc00
000f003c00
0018003000
0010004000
0020008000
01c0090000
01c00e0000
01800e0000
0080040000
0083040000
008c040800
00b0040c00
01c7fffe00
1f80040000
7c80040000
2080040000
2080040000
0080040000
0080040000
0080040000
0080040000
0080040000
0080040000
0080040000
21810c0000
1f80fc0000
0300180000
0000000000
0000000000
0000000000
0000000000
ENDCHAR
STARTCHAR 2234
ENCODING 8756
SWIDTH 1020 0
DWIDTH 34 0
BBX 34 35 0 -4
BITMAP
0000000020
0000000000
0000000000
1000040000
0ffffe0000
00080c0000
00180c0000
0018080000
0010180c00
00301ffe00
0030300800
0060000800
0040000800
00c0001800
0180001800
0300043000
0c0083f000
3000e0c000
0000800000
0000800000
0060820000
00f0818000
008080c000
0180806000
0300803000
0600801800
0c00800c00
1800800c00
3000800600
401f800000
0003800000
0002000000
0000000000
0000000000
0000000000
ENDCHAR
STARTCHAR 2235
ENCODING 8757
SWIDTH 1020 0
DWIDTH 34 0
BBX 34 35 0 -4
BITMAP
0000000020
0000000000
0400400000
0700700000
0400400000
0400c00000
0400800800
0410801c00
4439fffc00
7ffd001800
0402001800
04e2001800
04c4001800
0480c01800
0480601800
0480301000
0480181000
0480181000
0c80001000
0c80001000
0c80003000
0880003000
0880003000
0880003000
1880386000
108007e400
108001c400
3080000400
20c0000e00
407ffffe00
4003fc0000
4000000000
0000000000
0000000000
0000000000
ENDCHAR
STARTCHAR 2236
ENCODING 8758
SWIDTH 1020 0
DWIDTH 34 0
BBX 34 35 0 -4
BITMAP
0000000020
0000000000
0400000000
0380000800
0210001c00
020ffffe00
0200410000
6220410000
7238410000
2230410000
2230410000
2230410000
2230410000
2230410000
2230410000
2230410000
2230410000
2230410000
2230c10000
2230c10000
2230810000
2230810000
2230810000
3ff1810400
6031010400
6032010400
6002010400
0004010400
000c010600
001801fe00
0030000000
0060000000
0000000000
0000000000
0000000000
ENDCHAR
STARTCHAR 2237
ENCODING 8759
SWIDTH 1020 0
DWIDTH 34 0
BBX 34 35 0 -4
BITMAP
0000000020
0000000000
0400000000
0380001000
0303fffc00
0300001000
0300001000
4320001000
7338001000
2310001000
2310001000
2310001000
2311001000
2311801000
2311fff000
2311801000
2311801000
2311800000
2311800000
2311800000
2311800000
2311800000
2311800000
2311800400
3ff1800400
6031800400
6011800400
2001800400
0000c00f00
0000fffe00
00001ff000
0000000000
0000000000
0000000000
0000000000
ENDCHAR
STARTCHAR 2238
ENCODING 8760
SWIDTH 1020 0
DWIDTH 34 0
BBX 34 35 0 -4
BITMAP
0000000020
0000000000
0200000000
0380000800
0304001c00
0307fffc00
0300181800
6330181800
3338981800
2331981800
2331981800
2332981800
2332501800
2336501800
2332501800
2330301000
2330301000
2330301000
2330381000
2330681000
2330441000
2330421000
2330c3b000
233081f000
3ff1807000
6033003f00
6012003e00
2006006400
000c106000
00180fe000
003001c000
0000010000
0000000000
0000000000
0000000000
ENDCHAR
STARTCHAR 2239
ENCODING 8761
SWIDTH 1020 0
DWIDTH 34 0
BBX 34 35 0 -4
BITMAP
0000000020
0000000000
0100020000
01c0038000
0180030000
0180030000
0180030000
0180030000
618cc30c00
718ee30e00
618cc30800
618cc30800
618cc30800
618cc30800
618cc30800
618cc30800
618cc30800
618cc30800
618cc30800
618cc30800
618cc30800
618cc30800
618cc30800
618cc30800
618cc30800
618cc30800
618cc30800
618cfff800
7ffcc00800
600cc00800
600cc00800
2000000000
0000000000
0000000000
0000000000
ENDCHAR
STARTCHAR 223a
ENCODING 8762
SWIDTH 1020 0
DWIDTH 34 0
BBX 34 35 0 -4
BITMAP
0000000020
0000000000
0003000000
0003c00000
1003004000
080300e000
0ffffff000
0800000000
0800000000
0800000000
0c00000000
0c00000000
0f00006000
03ffffe000
0000000000
0000000000
0000000000
0383020000
0103838000
0303020000
0303020000
0303020000
0303020000
0303020400
0203020400
0203020400
0603020400
0403020400
0c03020400
180303fe00
300001f000
4000000000
0000000000
0000000000
0000000000
ENDCHAR
STARTCHAR 223b
ENCODING 8763
SWIDTH 1020 0
DWIDTH 34 0
BBX 34 35 0 -4
BITMAP
0000000020
0000000000
0000001000
0018001800
7ffcfffc00
0100030000
0100030000
0100030000
0100030000
0100030000
0100030000
0100030000
0100030000
0108030c00
7ffffffe00
0100030000
0300030000
0300030000
0300030000
0300030000
0300030000
0200030000
0200030000
0200030000
0400030000
0400030000
0c00030000
0800030000
1000030000
3000030000
6000030000
0000000000
0000000000
0000000000
0000000000
ENDCHAR
STARTCHAR 223c
ENCODING 8764
SWIDTH 1020 0
DWIDTH 34 0
BBX 34 35 0 -4
BITMAP
0000000020
0000000000
0001000000
0000e00000
0000800000
0000800800
0800801c00
0ffffffe00
0800000000
0800000000
0800f00000
0800600000
0800400000
0800400000
0800400000
0800402000
0800407000
08fffff800
0800400000
0800400000
0800400000
1800400000
1800400000
1800400000
1000400000
1000400000
1000400000
3000400800
2000400c00
27fffffe00
4000000000
4000000000
0000000000
0000000000
0000000000
ENDCHAR
STARTCHAR 223d
ENCODING 8765
SWIDTH 1020 0
DWIDTH 34 0
BBX 34 35 0 -4
BITMAP
0000000020
0000000000
0000010000
0000018000
0fffffc000
0000010000
0000010000
0800010000
0400010000
07ffff8000
0600018000
0600002000
0600002000
0600002000
0600006000
0600007000
03fffff000
007fff0000
0000000000
00e0080000
0070070000
0040040800
0040041c00
7ffffffe00
0040040000
00c0040000
00c0040000
0180040000
0100040000
0600040000
1c00040000
6000040000
0000000000
0000000000
0000000000
ENDCHAR
STARTCHAR 223e
ENCODING 8766
SWIDTH 1020 0
DWIDTH 34 0
BBX 34 35 0 -4
BITMAP
0000000020
0000000000
0000000000
00020c0000
0021fe0000
0078040000
00c0020000
0180018000
030000e000
0c00003e00
3000004c00
5ffffff000
0003006000
0003004000
0003004000
0403004000
0fffffe000
0c03006000
0c03004000
0803000000
1803001000
1803001800
1ffffffc00
3003001000
0003003000
0003003000
0003003000
00030e6000
000303e000
0003018000
0003000000
0002000000
0000000000
0000000000
0000000000
ENDCHAR
STARTCHAR 223f
ENCODING 8767
SWIDTH 1020 0
DWIDTH 34 0
BBX 34 35 0 -4
BITMAP
0000000020
0000000000
0101000000
01c1e00000
0101800000
0301000000
0603000000
0403000000
0842000c00
1073fffe00
20c4000c00
4084000800
0188000800
0108000800
0211000800
0610800800
0e00400800
1a00601800
2200301800
4200301800
0200101800
0200001800
0200001800
0200001800
0200001800
0200001000
0200003000
0200003000
0200307000
02000fe000
020001c000
0200000000
0000000000
0000000000
0000000000
ENDCHAR
STARTCHAR 2240
ENCODING 8768
SWIDTH 1020 0
DWIDTH 34 0
BBX 34 35 0 -4
BITMAP
0000000020
0000000000
0400180000
07801e0000
0200180000
0200080000
0200180000
0200180000
0280180000
1240180800
1260181c00
222ffffe00
2230180000
2220180000
6200140000
6200340000
0200340000
0200360000
0200220000
0200620000
0200610000
0200410000
0200c18000
0200808000
020100c000
0203006000
0202007000
0204003800
0608001c00
0630000e00
0660000800
0200000000
0000000000
0000000000
0000000000
ENDCHAR
STARTCHAR 2241
ENCODING 8769
SWIDTH 1020 0
DWIDTH 34 0
BBX 34 35 0 -4
BITMAP
0000000020
0000000000
0400400000
0700700000
0600600000
0600400000
0600c00000
0680800c00
1681fffe00
1641000000
2662000000
2666000000
2624000000
6608008000
c602018000
0601ffc000
0600010000
0600020000
0600040000
06000c0000
0600180000
0600300000
0600600000
0600c00400
0600800400
0601000400
0603000400
0602000400
0606000400
0603fffe00
0600fff800
0400000000
0000000000
0000000000
0000000000
ENDCHAR
STARTCHAR 2242
ENCODING 8770
SWIDTH 1020 0
DWIDTH 34 0
BBX 34 35 0 -4
BITMAP
0000000020
0000000000
0400004000
078000f000
020003d800
02007e0000
020f880000
0280080000
1240080000
1260080000
1220080000
3230080000
2230080000
6200080c00
4210080e00
021fffff00
0200080000
0200080000
0200080000
0200080000
0200080000
0200080000
0200080000
0200080000
0200080000
0200080000
0200080000
0200080000
0600080000
0600080000
0600080000
0200080000
0000000000
0000000000
0000000000
ENDCHAR
STARTCHAR 2243
ENCODING 8771
SWIDTH 1020 0
DWIDTH 34 0
BBX 34 35 0 -4
BITMAP
0000000020
0000000000
0400000000
0780001000
0600003800
0603fffc00
0600060000
0620060000
8670060000
7ff8060000
0600060000
0600060000
0600060000
0600060400
0600060e00
0617ffff00
0660060000
0780060000
0e00060000
7e00060000
6600060000
4600060000
0600060000
0600060000
0600060000
0600060000
0600060000
0600060000
06020e0000
7e01fc0000
0c00380000
0000000000
0000000000
0000000000
0000000000
ENDCHAR
STARTCHAR 2244
ENCODING 8772
SWIDTH 1020 0
DWIDTH 34 0
BBX 34 35 0 -4
BITMAP
0000000020
0000000000
0400000000
0780000800
0608001c00
0607fffe00
06000c0000
06000c0000
06000c0000
86600c0000
7ff00c0000
06000c0000
06000c0000
06000c0400
06100c0e00
060fffff00
06200c0000
06c00c0000
07000c0000
3e000c0000
f6000c0000
26000c0000
06000c0000
06000c0000
06000c0000
06000c0000
06000c0000
06000c0000
06000c0000
7e000c0000
0c000c0000
0000080000
0000000000
0000000000
0000000000
ENDCHAR
STARTCHAR 2245
ENCODING 8773
SWIDTH 1020 0
DWIDTH 34 0
BBX 34 35 0 -4
BITMAP
0000000020
0000000000
0400000000
0780000800
0600001c00
060ffffe00
0600618000
0620618000
0670618000
7ff8618000
0600618000
0600618000
0600618000
0600618000
0600618000
0610618000
0660618000
07c0618000
0700618000
3e00618000
f600418000
6600c18000
0600c18000
0600818200
0601818200
0601018200
0603018200
0602018200
060401c600
7e0800ff00
1c10003e00
0860000000
0000000000
0000000000
0000000000
ENDCHAR
STARTCHAR 2246
ENCODING 8774
SWIDTH 1020 0
DWIDTH 34 0
BBX 34 35 0 -4
BITMAP
0000000020
0000000000
0600080000
07800f0000
06020c0000
0603cc0000
06030c0000
06030c0000
06430c0000
06630c1800
fff30c7c00
06030f9800
0603fc1800
063f0c1800
06130c1800
06030c1800
06330c1800
06c30c1800
07030c1800
3e030c1800
f6030c1800
26030c3800
06030df000
06030c6400
0603080400
0603000400
0603000400
0603000400
0603800c00
7e01fffe00
0c007ff800
0000000000
0000000000
0000000000
0000000000
ENDCHAR
STARTCHAR 2247
ENCODING 8775
SWIDTH 1020 0
DWIDTH 34 0
BBX 34 35 0 -4
BITMAP
0000000020
0000000000
0400002000
078000fc00
060003c000
06007e0000
060f8c0000
06000c0000
06300c0000
fff80c0000
06000c0000
06000c0000
06000c0000
06000c0400
06100c0e00
060fffff00
06100c0000
06600c0000
07800c0000
1e000c0000
fe000c0000
66000c0000
06000c0000
06000c0000
06000c0000
06000c0000
06000c0000
06000c0000
06000c0000
7e000c0000
0c000c0000
0000080000
0000000000
0000000000
0000000000
ENDCHAR
STARTCHAR 2248
ENCODING 8776
SWIDTH 1020 0
DWIDTH 34 0
BBX 34 35 0 -4
BITMAP
0000000020
0000000000
0400400000
0780700000
0600600000
0600c00000
0600c00000
0621800c00
0671fffe00
fffb000000
0602000000
0606000000
0604000000
0608008000
060201c000
0609ffe000
0630018000
06c0030000
0780060000
3e000c0000
f600180000
6600300000
0600600000
0600c00400
0601800400
0603000400
0603000400
0606000600
0607000e00
7e03ffff00
0c00fff800
0000000000
0000000000
0000000000
0000000000
ENDCHAR
STARTCHAR 2249
ENCODING 8777
SWIDTH 1020 0
DWIDTH 34 0
BBX 34 35 0 -4
BITMAP
0000000020
0000000000
0400004000
0780007800
0600006000
0600006000
0600006000
0600006000
0664006600
fff7ffff00
060000c000
060000c000
060200c000
060100c000
060900c000
063080c000
06c0808000
0780418000
0f00418000
fe00218000
7600210000
2600130000
06001a0000
06000e0000
0600040000
06000f0000
0600198000
060030e000
0600c07800
7e03001f00
0c1c000c00
0000000000
0000000000
0000000000
0000000000
ENDCHAR
STARTCHAR 224a
ENCODING 8778
SWIDTH 1020 0
DWIDTH 34 0
BBX 34 35 0 -4
BITMAP
0000000020
0000000000
0400000000
0780000800
0600001c00
0607fffe00
0600001c00
0601001800
0601101800
06610c3000
fff0863000
0600863000
0600823000
0600402000
0600406000
0600206000
0630204000
06c010c000
0f0010c000
3e00098000
f6000b0000
4600070000
0600060000
06000f0000
0600198000
060030c000
0600e06000
0601803800
0607001e00
7e18000f00
0c60000200
0000000000
0000000000
0000000000
0000000000
ENDCHAR
STARTCHAR 224b
ENCODING 8779
SWIDTH 1020 0
DWIDTH 34 0
BBX 34 35 0 -4
BITMAP
0000000020
0000000000
0400c00000
0780f00000
0600c00000
0600c00000
0601800000
0621800400
0671800e00
7ffbffff00
0603000c00
0606000c00
060c000c00
0610000c00
0600800c00
0618400c00
0660600c00
0780300c00
0700180c00
3e001c0c00
f600080800
6600001800
0600001800
0600001800
0600001800
0600001800
0600001000
0600003000
0600007000
7e0018e000
1c0007c000
0800018000
0000000000
0000000000
0000000000
ENDCHAR
STARTCHAR 224c
ENCODING 8780
SWIDTH 1020 0
DWIDTH 34 0
BBX 34 35 0 -4
BITMAP
0000000020
0000000000
0400400000
0780780000
0600600000
0600600000
0600606000
060061f000
0630678000
7ff87e0000
0603e00000
060c600000
0600600000
0600600000
0600600000
0610600000
0660600800
07c0601c00
0f1ffffe00
7e00600000
6600600000
2600600000
0600600000
0600600400
0600600400
0600600400
0600600400
0600600600
0600700600
7e003fff00
1c000ffc00
0800000000
0000000000
0000000000
0000000000
ENDCHAR
STARTCHAR 224d
ENCODING 8781
SWIDTH 1020 0
DWIDTH 34 0
BBX 34 35 0 -4
BITMAP
0000000020
0000000000
00000c0000
00020e0000
80070c0000
7fff880000
0100080000
0300180000
0300180c00
0200100e00
06003ff000
0600302000
0408302000
07fc706000
0c0e506000
0c08906000
0808884000
1818884000
001808c000
0018048000
0018048000
0010078000
0010030000
0010030000
0030078000
00300cc000
002018e000
0060307000
0040603c00
1fc0800f00
0183000400
0004000000
0000000000
0000000000
0000000000
ENDCHAR
STARTCHAR 224e
ENCODING 8782
SWIDTH 1020 0
DWIDTH 34 0
BBX 34 35 0 -4
BITMAP
0000000020
0000000000
0400010000
0600038000
07ffffc000
0600018000
0600018000
0600018000
07ffff8000
0600018000
0600018000
0600018000
0600018000
07ffff8000
0608018000
000e010000
000c000000
000c080000
000c0c0000
3ffffe0000
00180c0000
00180c0000
00180c0000
00100c0000
00300c0400
00300c0400
00600c0400
00c00c0400
03800e0600
060007ff00
380003fc00
4000000000
0000000000
0000000000
0000000000
ENDCHAR
STARTCHAR 224f
ENCODING 8783
SWIDTH 1020 0
DWIDTH 34 0
BBX 34 35 0 -4
BITMAP
0000000020
0000000000
001c000000
0018000000
0008000000
0008040000
3ffffe0000
0018060000
0018040000
00180c0000
00100c0000
00300c0400
00200c0400
00600c0400
00c00c0400
03800c0e00
060007fe00
3800000000
4400008000
020000c000
03ffffe000
0200008000
0200008000
0200008000
03ffff8000
0200008000
0200008000
0200008000
0200008000
03ffffc000
020000c000
0200008000
0000000000
0000000000
0000000000
ENDCHAR
STARTCHAR 2250
ENCODING 8784
SWIDTH 1020 0
DWIDTH 34 0
BBX 34 35 0 -4
BITMAP
0000000020
0000000000
0100000000
01c0000000
0100000800
0108000e00
0107ffff00
0100010000
0118010000
7ffc010000
0300010000
0300010000
0300010000
03c0010000
0760010000
0530010000
0d18010000
0d10010000
1900010000
1100010000
3100010000
2100010000
4100010000
8100010000
0100010000
0100010000
0100010000
0100010000
0100030000
01007f0000
0100060000
0000000000
0000000000
0000000000
0000000000
ENDCHAR
STARTCHAR 2251
ENCODING 8785
SWIDTH 1020 0
DWIDTH 34 0
BBX 34 35 0 -4
BITMAP
0000000020
0000000000
0200400000
03c0700000
0300600000
0300600000
0300600000
0300600000
0320600000
7ff8608000
0307ffc000
030060c000
0700608000
0780608000
07c0608000
0f60408000
0f30408000
0b30408000
1b10408000
1300c08000
3300c08000
2300808000
4300808000
8301808200
0301008200
0303008200
0302008200
0304008600
030c008600
031800ff00
0320007800
0000000000
0000000000
0000000000
0000000000
ENDCHAR
STARTCHAR 2252
ENCODING 8786
SWIDTH 1020 0
DWIDTH 34 0
BBX 34 35 0 -4
BITMAP
0000000020
0000000000
0200080000
03c00e0000
0300080000
0300080000
0300080000
0300080000
0300080000
0330080c00
7ffbfffe00
0300080c00
0300080c00
0700080c00
0780080c00
0740080c00
0f60180800
0b30180800
0b30180800
1b18100800
1300100800
2300300800
2300200800
4300200800
8300601800
0300c01800
0300801800
0301001000
0303043000
030403f000
031800e000
0210000000
0000000000
0000000000
0000000000
ENDCHAR
STARTCHAR 2253
ENCODING 8787
SWIDTH 1020 0
DWIDTH 34 0
BBX 34 35 0 -4
BITMAP
0000000020
0000000000
0200001000
01c0001e00
0100801800
0100f01800
0100c01800
0100c01800
0118c01800
7ffcc01800
0300c01800
0300c01800
0300c01800
07c0c01800
0760c01800
0530c01800
0d30c01800
0910c01800
1900c01800
1100c01800
3100c01800
2100c07800
4100c79800
8100fc1800
010fe01800
0104001800
0104001800
0100001800
0100001800
0100001800
0300001800
0100001000
0000000000
0000000000
0000000000
ENDCHAR
STARTCHAR 2254
ENCODING 8788
SWIDTH 1020 0
DWIDTH 34 0
BBX 34 35 0 -4
BITMAP
0000000020
0000000000
0300000000
0381008000
0301ffc000
030180c000
0301808000
0301808000
0331808000
7ff9808000
0301808000
0701808000
0701808000
0701808000
0781808000
0f41808000
0b61808000
1b31808000
1331008000
1301008000
2301008000
4303008000
4303008000
8302008200
0302008200
0306008200
0304008200
030c008600
0308008600
031000ff00
0320000000
0200000000
0000000000
0000000000
0000000000
ENDCHAR
STARTCHAR 2255
ENCODING 8789
SWIDTH 1020 0
DWIDTH 34 0
BBX 34 35 0 -4
BITMAP
0000000020
0000000000
0001800000
0001c00000
0001800000
0001801000
0001801c00
7ffffffe00
0001800000
0001800000
0201804000
03ffffe000
030180c000
030180c000
030180c000
030180c000
030180c000
030180c000
030180c000
0303cfc000
0307e38000
030da10000
0019980000
00318c0000
0061860000
00c1838000
018180e000
0601807800
1801801f00
6001800400
0001800000
0001000000
0000000000
0000000000
0000000000
ENDCHAR
STARTCHAR 2256
ENCODING 8790
SWIDTH 1020 0
DWIDTH 34 0
BBX 34 35 0 -4
BITMAP
0000000020
0000000000
0200000000
01c0c00000
0100e00000
0100c00000
0100c00000
0100c00000
0118c00800
7ffcc01e00
0300c07800
0300c0e000
0300c30000
07c0dc0000
0760e00000
0530c00000
0d10c00000
0918c00000
1900c00000
1100c00000
3100c00000
2100c00000
4100c00400
8100c00400
0100c00400
0100c00400
0100c00400
0100c00400
0100c00e00
01007ffe00
03001fe000
0100000000
0000000000
0000000000
0000000000
ENDCHAR
STARTCHAR 2257
ENCODING 8791
SWIDTH 1020 0
DWIDTH 34 0
BBX 34 35 0 -4
BITMAP
0000000020
0000000000
0200000000
03c0000000
0300010000
03003fc000
0300018000
0300010000
0330010000
7ff9010000
0301c10000
0301810000
0701810000
0781010000
0761008000
0f31008000
0f31008000
0b11008000
1b0300c000
1303004000
2302004000
2302006000
4302006000
8306002000
0304003000
030c001000
0308001800
0318000c00
0310000e00
0320000700
0340000400
0000000000
0000000000
0000000000
0000000000
ENDCHAR
STARTCHAR 2258
ENCODING 8792
SWIDTH 1020 0
DWIDTH 34 0
BBX 34 35 0 -4
BITMAP
0000000020
0000000000
00c0000000
01e0004000
018000e000
03fffff000
0300000000
0600040000
0c00060000
08ffff0000
1000000000
2000008000
4000018000
1fffffe000
0000018000
0100018000
00c0f18000
0080c08000
0080c08000
0080c08000
0080c08000
0080c0c000
0080c0c200
0180c04200
0180c06200
0100c06200
0300c03200
0600c01e00
0c00c00e00
1800c00600
2000800000
4000000000
0000000000
0000000000
0000000000
ENDCHAR
STARTCHAR 2259
ENCODING 8793
SWIDTH 1020 0
DWIDTH 34 0
BBX 34 35 0 -4
BITMAP
0000000020
0000000000
0001000000
07ffc00000
0003800000
0006400000
0006200000
000c100000
0018080000
0030060000
0060030000
00c001c000
018000f000
0601803f00
1801e00e00
6001800000
0001c0c000
0011c0e000
2019e1d000
1ffda30000
0031b60000
0061980000
00618c0000
00c1860000
0181830000
030181c000
060180e000
0c01807e00
3001801800
403f800000
0007000000
0002000000
0000000000
0000000000
0000000000
ENDCHAR
STARTCHAR 225a
ENCODING 8794
SWIDTH 1020 0
DWIDTH 34 0
BBX 34 35 0 -4
BITMAP
0000000020
0000000000
0000080000
10000e0000
0c00080000
0600080000
0300080000
0110080800
0008080c00
004ffffe00
0048000000
4088000000
3088000000
1888000000
0908000000
0108000000
0108000000
0208000000
0208000000
0208000000
0608000000
0408000000
0408000000
7c08000000
0c08000000
0c08000000
0c08000000
0c08000000
0c0c000000
0c0ffffc00
0c007ff000
0000000000
0000000000
0000000000
0000000000
ENDCHAR
STARTCHAR 225b
ENCODING 8795
SWIDTH 1020 0
DWIDTH 34 0
BBX 34 35 0 -4
BITMAP
0000000020
0000000000
0000000000
1808001800
060ffffc00
030c001800
010c001800
000c001800
000c001800
002c001800
404c001800
604c001800
184c001800
0c8c001800
0c8c001800
008ffff800
010c001800
010c000000
030c000000
020c000000
020c000000
060c000000
040c000000
7c0c000400
0c0c000400
0c0c000400
0c0c000400
0c0c000400
0c06000e00
0c07fffe00
04001f8000
0400000000
0000000000
0000000000
0000000000
ENDCHAR
STARTCHAR 225c
ENCODING 8796
SWIDTH 1020 0
DWIDTH 34 0
BBX 34 35 0 -4
BITMAP
0000000020
0000000000
0000200000
18001c0000
0600180000
0300180000
0100180000
0000180000
0000180000
0040180000
4040181800
6050181c00
189ffffe00
0c80180000
0c80140000
0100140000
0100140000
0100360000
0200320000
0200220000
0600210000
0400610000
0400418000
7c00c08000
0c0180c000
0c01006000
0c02003000
0c04003800
0c08001c00
0c10000f00
0460000400
0400000000
0000000000
0000000000
0000000000
ENDCHAR
STARTCHAR 225d
ENCODING 8797
SWIDTH 1020 0
DWIDTH 34 0
BBX 34 35 0 -4
BITMAP
0000000020
0000000000
0000000000
1800001000
0608001800
030ffffc00
0101001800
0003201000
0003183000
00268c3000
402c863000
605c863000
1848802000
0c40406000
0c80406000
008040c000
010020c000
010020c000
0100118000
0200118000
02000b0000
02000e0000
0400060000
0c000e0000
7c003b0000
0c0071c000
0c00c0e000
0c01807800
0c06003f00
0c18001e00
04e0000800
0400000000
0000000000
0000000000
0000000000
ENDCHAR
STARTCHAR 225e
ENCODING 8798
SWIDTH 1020 0
DWIDTH 34 0
BBX 34 35 0 -4
BITMAP
0000000020
0000000000
0000800000
1800e00000
0600c00000
0301800000
0101801800
0003001c00
0003fffe00
0066000000
4044000000
6048000000
1850000000
0c90010000
0c87ff8000
010007c000
01000e0000
01000c0000
0200180000
0200300000
0200600000
0400c00000
0401800400
7c03000400
0c02000400
0c06000400
0c0c000400
0c0c000c00
0c0e001e00
0c07fffc00
0400000000
0400000000
0000000000
0000000000
0000000000
ENDCHAR
STARTCHAR 225f
ENCODING 8799
SWIDTH 1020 0
DWIDTH 34 0
BBX 34 35 0 -4
BITMAP
0000000020
0000000000
0000800000
1000f00000
0c00c00000
0700800000
0301800000
0101000000
0003000c00
0023fffe00
0026000c00
4044000c00
3048000c00
1890000c00
0c91000c00
0080c00c00
0100600c00
0100300c00
0100380c00
0200180800
0200100800
0600000800
0400000800
6c00001800
1c00001800
0c00001800
0c00001800
0c00003000
0c00187000
0c0007f000
040001c000
0400000000
0000000000
0000000000
0000000000
ENDCHAR
STARTCHAR 2260
ENCODING 8800
SWIDTH 1020 0
DWIDTH 34 0
BBX 34 35 0 -4
BITMAP
0000000020
0000000000
0000000000
180e001e00
0c0c080c00
060c0e0800
030c080800
010c080800
000c080800
003c080800
002c080800
402c080800
304c080800
184c080800
0c8c080800
088c080800
010c080800
010c080800
030c080800
020c080800
0608080800
0408080800
0c08080800
7c18080800
0810080800
0810080800
0c10080800
0c20080800
0c60000800
0c40001800
0c80001800
0000000000
0000000000
0000000000
0000000000
ENDCHAR
STARTCHAR 2261
ENCODING 8801
SWIDTH 1020 0
DWIDTH 34 0
BBX 34 35 0 -4
BITMAP
0000000020
0000000000
0200000000
0380000400
0300000e00
0307fffe00
0300100c00
0300100c00
0330100c00
033c100c00
1360100c00
1380100c00
1300100c00
3300100c00
2300300c00
6200300c00
6200300c00
0200200c00
0200200c00
0200600800
0700600800
0680400800
06c0c00800
0460801800
0c31801800
0831001800
0812001800
1004003000
2008103000
40300ff000
404000e000
0080000000
0000000000
0000000000
0000000000
ENDCHAR
STARTCHAR 2262
ENCODING 8802
SWIDTH 1020 0
DWIDTH 34 0
BBX 34 35 0 -4
BITMAP
0000000020
0000000000
0200100000
01c00e0000
01800c0000
19800c0000
1d800c0000
11800c0000
31900c0000
31b80c0800
3ffbfffe00
21800c0e00
6180080c00
4180080c00
4180080c00
0180080800
0188080800
01b0080800
01c0180800
0780100800
3f80100800
7180300800
2180200800
0180601800
0180401800
0180c01800
0180801800
0181001000
0182083000
01840ff000
019800e000
0100000000
0000000000
0000000000
0000000000
ENDCHAR
STARTCHAR 2263
ENCODING 8803
SWIDTH 1020 0
DWIDTH 34 0
BBX 34 35 0 -4
BITMAP
0000000020
0000000000
0040000000
1070001000
1068001800
08c7fffc00
05800c0000
03000c0000
07000c0000
0d000c0000
19800c0000
60800c0000
00800c0000
00c00c0c00
00cffffe00
01c00c0000
03400c0000
02600c0000
04600c0000
08600c0000
10600c0000
60600c0000
40600c0000
00600c0000
00600c0000
00400c0000
00400c0000
00400c0000
00c00c0000
1f800c0000
03800c0000
0000080000
0000000000
0000000000
0000000000
ENDCHAR
STARTCHAR 2264
ENCODING 8804
SWIDTH 1020 0
DWIDTH 34 0
BBX 34 35 0 -4
BITMAP
0000000020
0000000000
0040000000
1070e00000
1060f00000
08c0c00000
0581801000
0301801c00
0701fffe00
0d03000000
1982000000
6084000000
0088008000
00d1ffc000
01c003e000
01c0030000
0340060000
02600e0000
06601c0000
0860180000
1060300000
2060600000
4060c00000
0060c00400
0061800400
0041000400
0043000400
0043000600
00c3c00e00
1fc1fffc00
0380000000
0200000000
0000000000
0000000000
0000000000
ENDCHAR
STARTCHAR 2265
ENCODING 8805
SWIDTH 1020 0
DWIDTH 34 0
BBX 34 35 0 -4
BITMAP
0000000020
0000000000
0000000000
0020000c00
8033ffff00
7ff8010000
0200010000
0200010000
0200010000
0200010000
0200010000
0200010000
0220010000
4270010000
3ff0010000
0200010000
0200010000
0200010000
0200010000
0200010000
0200010000
0208010000
0230010000
03c0010000
1f00010000
fc00010000
6000010000
4000010000
0000010000
00003f0000
0000070000
0000040000
0000000000
0000000000
0000000000
ENDCHAR
STARTCHAR 2266
ENCODING 8806
SWIDTH 1020 0
DWIDTH 34 0
BBX 34 35 0 -4
BITMAP
0000000020
0000000000
000c000000
001e000000
0018000000
0020000800
02c0001c00
03fffffc00
0200c01800
0200c01800
0200c01800
0200c01800
0200c01800
03fffff800
0200c01800
0200c01800
0200c01800
0200c01800
0200c01800
0600c01800
07fffff800
0600c01800
0600c01800
0400c01800
0400c01800
0400c01800
0c00c01800
0800c01800
1000c01800
1000c7f800
2000807000
4000004000
0000000000
0000000000
0000000000
ENDCHAR
STARTCHAR 2267
ENCODING 8807
SWIDTH 1020 0
DWIDTH 34 0
BBX 34 35 0 -4
BITMAP
0000000020
0000000000
0080000000
00e0700000
0180600000
0180600000
0100600000
2308600000
220c600000
3ffc600000
3008600000
3008600000
3008600000
3008600000
3008600000
3008600000
3008600000
3ff8600000
3008600000
3008600000
3008600000
3008600000
3008600000
3008600400
3008600400
3008600400
3ff8600400
3008600400
3000600e00
00003ffe00
00000fe000
0000000000
0000000000
0000000000
0000000000
ENDCHAR
STARTCHAR 2268
ENCODING 8808
SWIDTH 1020 0
DWIDTH 34 0
BBX 34 35 0 -4
BITMAP
0000000020
0000000000
0001000000
0001c00000
1001000000
1001001000
1ffffffc00
1000001000
3018703000
303c602400
6030604400
0060600400
00c0600c00
03803ffe00
0e000ff000
7000100000
03fff80000
00007c0000
0000e00000
0003800000
0007000000
000c000000
0018000000
0070001000
00c0001000
0180001000
0300001000
0600003000
0600003800
03fffff800
007fff8000
0000000000
0000000000
0000000000
0000000000
ENDCHAR
STARTCHAR 2269
ENCODING 8809
SWIDTH 1020 0
DWIDTH 34 0
BBX 34 35 0 -4
BITMAP
0000000020
0000000000
0000000000
1000000800
1ffffffc00
1800000c00
1800000800
1800000800
1806018800
180701c800
180c018800
180c810800
1a0c430800
1908230800
18d8120800
18780a0800
1830060800
1838060800
182c0f0800
186c098800
18c6188800
188210c800
1902204800
1a00404800
1800800800
1800000800
1800000800
1800000800
1800031800
180000f800
1800003000
0000000000
0000000000
0000000000
0000000000
ENDCHAR
STARTCHAR 226a
ENCODING 8810
SWIDTH 1020 0
DWIDTH 34 0
BBX 34 35 0 -4
BITMAP
0000000020
0000000000
0180020000
00e003c000
0080010000
0080010000
2088010000
1c87710c00
1084710e00
1084610c00
1084610c00
1084610c00
1084610c00
1084610c00
1084610c00
1084610c00
1084610c00
1084610c00
1084610c00
1ffc7ffc00
1084610c00
1084610800
1180410000
0180010000
0100010000
0100010000
0300010000
0600010000
0400030000
1800030000
2000030000
4000030000
0000000000
0000000000
0000000000
ENDCHAR
STARTCHAR 226b
ENCODING 8811
SWIDTH 1020 0
DWIDTH 34 0
BBX 34 35 0 -4
BITMAP
0000000020
0000000000
0020100000
00381c0000
0030180000
0030181800
7ffffffc00
0030180000
0030180000
0030180000
0020100000
0000000800
0000001c00
7ffffffe00
0001800000
0001800000
0001800000
0001800000
0001800000
0001800000
0001800000
0001800000
0001800000
0001800000
0001800000
0001800000
0001800000
0001800000
0001800000
007f000000
0007000000
0000000000
0000000000
0000000000
0000000000
ENDCHAR
STARTCHAR 226c
ENCODING 8812
SWIDTH 1020 0
DWIDTH 34 0
BBX 34 35 0 -4
BITMAP
0000000020
0000000000
0000000000
00380e0000
00300c0000
0020081800
7ffffffe00
0020080000
0020080000
0020080000
0000000000
0000000000
1000003000
0ffffff000
0006002000
0006002000
0004002000
0004002000
0004006000
000c006000
0008006000
0018006000
0010006000
0030004000
0060004000
00c0004000
018000c000
0300f0c000
06000f8000
1800070000
2000000000
0000000000
0000000000
0000000000
0000000000
ENDCHAR
STARTCHAR 226d
ENCODING 8813
SWIDTH 1020 0
DWIDTH 34 0
BBX 34 35 0 -4
BITMAP
0000000020
0000000000
0020100000
00381c0000
0020181000
4020183c00
3ffffffc00
0020180000
0020180000
0020100000
0018000000
000c000000
0008000000
0008000000
00080c0000
3ffffe0000
00080c0000
00180c0000
00180c0000
00180c0000
00100c0000
00100c0000
00300c0000
00300c0000
00600c0400
00c00c0400
01800c0400
03000c0400
06000c0400
18000ffe00
600003f800
0000000000
0000000000
0000000000
0000000000
ENDCHAR
STARTCHAR 226e
ENCODING 8814
SWIDTH 1020 0
DWIDTH 34 0
BBX 34 35 0 -4
BITMAP
0000000020
0000000000
0020100000
00380e0000
0010080800
8010080e00
7ffffffe00
0030080000
0030080000
0010080000
0000020000
2000030000
1fffff0000
0008060000
0008040000
00180c0000
00180c0000
0010080800
00101ffe00
0030101c00
0020001800
0020001800
0060001800
00c0001800
0080001000
0180003000
0300003000
0600002000
0c00306000
10000fc000
6000038000
0000000000
0000000000
0000000000
0000000000
ENDCHAR
STARTCHAR 226f
ENCODING 8815
SWIDTH 1020 0
DWIDTH 34 0
BBX 34 35 0 -4
BITMAP
0000000020
0000000000
0003000000
0003c00000
0003002000
0003007000
0003fff800
0003000000
1003000000
1003000c00
1ffffffe00
1800000800
1802001000
1803802000
1803000000
1803000000
1803004000
1803007000
180307e000
1803fc0000
1bff000000
1903000000
1003000400
1003000400
1003000400
1003000400
1003000400
3001800e00
2001fffe00
2000000000
4000000000
4000000000
0000000000
0000000000
0000000000
ENDCHAR
STARTCHAR 2270
ENCODING 8816
SWIDTH 1020 0
DWIDTH 34 0
BBX 34 35 0 -4
BITMAP
0000000020
0000000000
0000000000
0000000c00
7ffffffe00
0018180000
0018180000
0018180000
0018180000
0018180000
0018180000
1818181000
0ffffff800
0818181000
0818181000
0818181000
0818181000
0818181000
0818181000
0818181000
081ff81000
0818101000
0800001000
0800001000
0800001000
0800001000
0800001000
0800001000
0800001000
1800001000
1800001000
0800000000
0000000000
0000000000
0000000000
ENDCHAR
STARTCHAR 2271
ENCODING 8817
SWIDTH 1020 0
DWIDTH 34 0
BBX 34 35 0 -4
BITMAP
0000000020
0000000000
0100000000
00e0100800
00801ffe00
0080181800
4080181000
2083183000
3fff982000
2000182000
2000184000
2000184000
2000188000
2000188000
200018c000
2000182000
2000181000
2000181800
2000180800
2000180c00
2000180400
2000180400
2000180600
2000180400
2000180c00
38011bfc00
1fff987800
0000180000
0000180000
0000180000
0000180000
0000180000
0000000000
0000000000
0000000000
ENDCHAR
STARTCHAR 2272
ENCODING 8818
SWIDTH 1020 0
DWIDTH 34 0
BBX 34 35 0 -4
BITMAP
0000000020
0000000000
0000100000
0001080800
40038ffe00
3fffc81800
0040081000
0040081000
0040082000
0040082000
0040084000
0040084000
0040088000
0040888000
8041c84000
7fffe82000
0040081000
0040080800
0040080400
0040080400
0040080400
0040080600
0040080400
0040080400
0040080c00
004009f800
0040083000
0040080000
0040080000
0040080000
0040080000
0040080000
0000000000
0000000000
0000000000
ENDCHAR
STARTCHAR 2273
ENCODING 8819
SWIDTH 1020 0
DWIDTH 34 0
BBX 34 35 0 -4
BITMAP
0000000020
0000000000
0000200000
0002100c00
00071ffe00
3fff980800
00c0181800
00c0181000
00c0182000
00c0182000
00c0184000
00c0184000
00c0188000
00c0190000
00c1988000
40c3d86000
7fffd81000
00c0181000
00c0180800
00c0180c00
00c0180400
00c0180400
00c0180600
00c0180400
00c0180400
00c019dc00
00c0183800
00c0182000
00c0180000
1fc0180000
0180180000
0100100000
0000000000
0000000000
0000000000
ENDCHAR
STARTCHAR 2274
ENCODING 8820
SWIDTH 1020 0
DWIDTH 34 0
BBX 34 35 0 -4
BITMAP
0000000020
0000000000
0000200000
0004100c00
800e1ffe00
7fff180800
0300181800
0300181000
0300182000
0300182000
0300184000
0300184000
0300188000
0300190000
0300188000
0300186000
0300181000
0300181000
0300180800
0300180c00
0307180400
0318180400
03e0180600
7f80180400
3800180400
2000199c00
0000187800
0000182000
0000180000
0000180000
0000180000
0000100000
0000000000
0000000000
0000000000
ENDCHAR
STARTCHAR 2275
ENCODING 8821
SWIDTH 1020 0
DWIDTH 34 0
BBX 34 35 0 -4
BITMAP
0000000020
0000000000
0000000000
0004100c00
7ffe1ffe00
0004180c00
0004181800
0004181000
0004183000
0004182000
0004184000
0004184000
0004188000
2004188000
3ffc198000
2004184000
2004182000
2000181000
2000180800
2000180800
2000180400
2000180400
2001180400
2001180600
2001180400
2001180c00
200119fc00
2001183800
3003980000
1fff980000
0000180000
0000180000
0000000000
0000000000
0000000000
ENDCHAR
STARTCHAR 2276
ENCODING 8822
SWIDTH 1020 0
DWIDTH 34 0
BBX 34 35 0 -4
BITMAP
0000000020
0000000000
4000000000
2060000800
3ff8001c00
2047fffe00
20c0410000
2080410000
2080410000
2100410000
2100410000
2200410000
2200410000
2200410000
2100410000
2080410000
2040410000
2060410000
2020410000
2020c10000
2030810000
2030810000
2031810000
27e1010200
21c1010200
2002010400
2002010400
2004010600
2008018700
201801fe00
2030000000
0020000000
0000000000
0000000000
0000000000
ENDCHAR
STARTCHAR 2277
ENCODING 8823
SWIDTH 1020 0
DWIDTH 34 0
BBX 34 35 0 -4
BITMAP
0000000020
0000000000
2040080000
20600e0000
3fe00c0000
30c00c0000
30838c0000
30820c0000
31020c0800
31020c1c00
31020cec00
32020f0800
32023c1800
3203cc1800
31060c1800
30ba0c1800
30420c1800
30420c1800
30620c1800
30220c1000
30220c1000
30620df000
30620c7000
37c20c4200
3182000200
3002000400
3002000400
3002000400
3002000400
3003000f00
3001fffe00
2000000000
0000000000
0000000000
0000000000
ENDCHAR
STARTCHAR 2278
ENCODING 8824
SWIDTH 1020 0
DWIDTH 34 0
BBX 34 35 0 -4
BITMAP
0000000020
0000000000
2040000000
2060000000
3fe0002000
30cffff000
3080003800
3080002000
3100702000
3100402000
3100402000
3200402000
3200402000
3200402000
3100402000
3080432000
3047fc2000
304fc02000
3024402000
3020402000
3020403000
3060c03000
3060c03000
37e0803200
31c0801200
3001801a00
3001001e00
3003000e00
3002000e00
3004000600
3008000200
2008000000
0000000000
0000000000
0000000000
ENDCHAR
STARTCHAR 2279
ENCODING 8825
SWIDTH 1020 0
DWIDTH 34 0
BBX 34 35 0 -4
BITMAP
0000000020
0000000000
2020800000
2060e00000
3ff1800000
3041800000
3041000800
3083001c00
3083fffe00
3086000000
3104000000
310c000000
3208000000
3210008000
3183ffc000
304003e000
3040070000
30200e0000
30201c0000
3030380000
3030700000
3030600000
3060c00400
37e1800400
30c3000400
3006000400
3006000c00
300c000c00
3006001e00
3007fffc00
3000000000
2000000000
0000000000
0000000000
0000000000
ENDCHAR
STARTCHAR 227a
ENCODING 8826
SWIDTH 1020 0
DWIDTH 34 0
BBX 34 35 0 -4
BITMAP
0000000020
0000000000
0100000000
01c0c00000
0180302000
0100183800
03000c2000
0300066000
0200006000
0601004000
0601c0c000
0c0080c000
0e00808000
0c00818000
1400810000
3408812000
2408832000
4408861000
8408840800
04108c0c00
0410880600
0430980600
0460b00200
04e0a02200
0440c02000
0400802000
0403802000
0406802000
040cc07000
0430ffe000
04e0000000
0480000000
0000000000
0000000000
0000000000
ENDCHAR
STARTCHAR 227b
ENCODING 8827
SWIDTH 1020 0
DWIDTH 34 0
BBX 34 35 0 -4
BITMAP
0000000020
0000000000
0100000000
01c0001000
0190003800
031ffffc00
0300100000
0200100000
0603910000
0603d08000
0402104000
0e06106000
0c04103000
1c0c101800
1418101800
2430100800
4420100000
c400100800
0400100c00
047ffffe00
0400100000
0400100000
0400100000
0400100000
0400100000
0400100000
0400100000
0400100000
0400100000
0600100000
0600100000
0400100000
0000000000
0000000000
0000000000
ENDCHAR
STARTCHAR 227c
ENCODING 8828
SWIDTH 1020 0
DWIDTH 34 0
BBX 34 35 0 -4
BITMAP
0000000020
0000000000
0100000000
01f0001000
0188003c00
018ffffc00
0108000000
0308000000
0208000000
0208000000
0608002000
0708003000
0e0ffff800
0e08002000
1608002000
2608002000
6608002000
4608002000
0608002000
0608002000
060ffff000
0608003000
0608000000
0608000000
0608000000
0608000000
0608000800
0608001800
060ffffe00
0608000000
0608000000
0608000000
0000000000
0000000000
0000000000
ENDCHAR
STARTCHAR 227d
ENCODING 8829
SWIDTH 1020 0
DWIDTH 34 0
BBX 34 35 0 -4
BITMAP
0000000020
0000000000
0080200000
00e01c0000
0180180000
0180180000
0100180000
0300182000
0310183000
020ffff800
0600180000
0600180000
0f00180000
0e00180000
1600180000
2600180400
6640180e00
c63fffff00
0600200000
0600600000
0600400000
0600c10000
0600808000
0601804000
0601002000
0603003000
0602003800
06043fd800
067ff00c00
0638000c00
0620000400
0400000000
0000000000
0000000000
0000000000
ENDCHAR
STARTCHAR 227e
ENCODING 8830
SWIDTH 1020 0
DWIDTH 34 0
BBX 34 35 0 -4
BITMAP
0000000020
0000000000
0000000000
01c03c0000
01e0300000
0180300000
0100300000
0300300000
0200300800
0680301e00
067ffffe00
0f00780000
0e00f80000
1e00b40000
1601b60000
2601320000
4603330000
8602310000
0606308000
060c30c000
0608306000
0610303000
062030b800
065031de00
068fffef00
0700300400
0600300000
0600300000
0600300000
0600300000
0600300000
0000000000
0000000000
0000000000
0000000000
ENDCHAR
STARTCHAR 2321
ENCODING 8993
SWIDTH 1020 0
DWIDTH 34 0
BBX 34 35 0 -4
BITMAP
0000000020
0000000000
0100000000
01c0001000
01e0003c00
011ffffc00
0301800000
0301800000
0201000000
0601000000
0401010000
0e01ff8000
0c01018000
1c03010000
1403010000
2403410000
4403210000
8402310000
0402110000
0402190000
0402090000
0402090000
0406010000
0406010400
0406010400
0406030400
04063d0400
0407e10400
043f010600
067801ff00
062000fc00
0420000000
0000000000
0000000000
0000000000
ENDCHAR
STARTCHAR 2322
ENCODING 8994
SWIDTH 1020 0
DWIDTH 34 0
BBX 34 35 0 -4
BITMAP
0000000020
0000000000
0100000000
01e0000400
01d0000e00
018ffffe00
01000c0000
0300080000
0200180000
0600100000
0400300000
0f007c0000
0e00498000
1e00c84000
3601883000
2603081800
4606080c00
8608080600
0610080600
0620080000
0600080000
0600080000
0600080000
0600080000
0600080000
0600080000
0600180000
0600080000
0600000c00
061ffffe00
0600000000
0400000000
0000000000
0000000000
0000000000
ENDCHAR
STARTCHAR 2323
ENCODING 8995
SWIDTH 1020 0
DWIDTH 34 0
BBX 34 35 0 -4
BITMAP
0000000020
0000000000
0080400000
00e0380000
0180200000
0180200000
0100202000
0300203800
02003ff800
0200200000
0600200000
0f00200000
0e00200c00
1e7ffffe00
1600200000
2600200000
4600200000
8600200000
0600380000
0600260000
0600230000
060021c000
0600206000
0600203000
0600203800
0600201000
0600200000
0600200000
0600200000
0600200000
0600200000
0400200000
0000000000
0000000000
0000000000
ENDCHAR
STARTCHAR 2324
ENCODING 8996
SWIDTH 1020 0
DWIDTH 34 0
BBX 34 35 0 -4
BITMAP
0000000020
0000000000
0080300000
01e01c0000
0180100000
0180100000
0108102000
030c107000
020ffff000
060c106000
040c106000
0f0c106000
0e0c106000
1e0c106000
360c106000
260c106000
460c106c00
86ffffff00
0600380000
0600340000
0600340000
0600260000
0600620000
0600630000
0600c10000
0600808000
060180c000
0603007000
0606003800
0618001f00
06e0000400
0400000000
0000000000
0000000000
0000000000
ENDCHAR
STARTCHAR 2325
ENCODING 8997
SWIDTH 1020 0
DWIDTH 34 0
BBX 34 35 0 -4
BITMAP
0000000020
0000000000
0080000000
00e0700000
00e0780000
0080c00000
0180c04000
0101fff000
0301806000
030280c000
0606408000
060c418000
0f10230000
0e20360000
16001e0000
26001c0000
66003e0000
4600638000
0601c0e000
0603007c00
061c401e00
0670380000
0600070000
0600010000
0600000000
0600000800
0600003800
060003c000
06003e0000
0603f00000
0603800000
0602000000
0000000000
0000000000
0000000000
ENDCHAR
STARTCHAR 2326
ENCODING 8998
SWIDTH 1020 0
DWIDTH 34 0
BBX 34 35 0 -4
BITMAP
0000000020
0000000000
00c0000000
00f0380000
00c03c0000
00c0300000
0180200000
0180600000
0100608000
0300c04000
0200802000
0601801000
0f01001800
0e0200fc00
167fff0600
263f000600
6620000200
4600000000
0604001000
0607fffc00
0604001800
0604001000
0604001000
0604001000
0604001000
0604001000
0604001000
0604001000
0607fff000
0604001800
0604001800
0600000000
0000000000
0000000000
0000000000
ENDCHAR
STARTCHAR 2327
ENCODING 8999
SWIDTH 1020 0
DWIDTH 34 0
BBX 34 35 0 -4
BITMAP
0000000020
0000000000
0001000000
0003c00000
0003800000
0006400000
000c200000
0018100000
00300c0000
0060060000
00c0038000
030008e000
06800e7c00
187ffe1e00
6000000000
0000000000
0000002000
0000003000
1ffffffc00
0001800000
0001800000
0061880000
0071840000
00c1830000
0181818000
018180c000
0301806000
0601807000
0c01803000
103f801000
0007000000
0002000000
0000000000
0000000000
0000000000
ENDCHAR
STARTCHAR 2328
ENCODING 9000
SWIDTH 1020 0
DWIDTH 34 0
BBX 34 35 0 -4
BITMAP
0000000020
0000000000
0080200000
00e01c0000
00e0180000
0180180000
0180180800
0120180c00
031ffffe00
0200300000
0600300000
0700600000
0e00400000
0e00c00000
160081c000
261181e000
460d018000
8603030000
0603830000
0601860000
0600c40000
06008c0000
0600180000
0600104000
0600202000
0600601000
0600c01800
060100fc00
063fff0c00
061e000600
0610000600
0200000000
0000000000
0000000000
0000000000
ENDCHAR
STARTCHAR 2329
ENCODING 9001
SWIDTH 1020 0
DWIDTH 34 0
BBX 34 35 0 -4
BITMAP
0000000020
0000000000
0100208000
01ee387000
018e304000
018c304000
030c304000
030c304000
020c304000
060c304000
060c304c00
0e7ffffe00
0e0c304000
1c0c304000
140c304000
240c304000
440c304000
440c304000
040c304000
040c304000
040c304000
040c3fc000
040c304000
040c304000
040c000000
040c000000
040c000800
040c001c00
040ffffe00
060c000000
060c000000
0404000000
0000000000
0000000000
0000000000
ENDCHAR
STARTCHAR 232a
ENCODING 9002
SWIDTH 1020 0
DWIDTH 34 0
BBX 34 35 0 -4
BITMAP
0000000020
0000000000
0080000000
00e8001000
018c001800
0187fff800
0104001000
0304001000
0304001000
0204001000
0604001000
0604001000
0f04001000
1e04001000
1604001000
2604001000
4604001000
4607fff000
060c001000
060c001000
0604811000
0600e10000
060180c000
0601806000
0603003000
0602001800
0604001800
060c000c00
0618000600
0620000600
0640000200
0600000000
0000000000
0000000000
0000000000
ENDCHAR
STARTCHAR 232b
ENCODING 9003
SWIDTH 1020 0
DWIDTH 34 0
BBX 34 35 0 -4
BITMAP
0000000020
0000000000
0100400000
01e0780000
0180700000
0180500000
0100c80000
0300840000
0301860000
0203030000
0602018000
040600c000
0e0c007000
0c18003c00
1430001f00
3440380400
2480380000
4420302000
0438303800
0430303000
0430303000
0430303000
0430303000
0430303000
0430303000
0430303000
0430303000
0430303000
043ffff000
0630003000
0630003000
0410001000
0000000000
0000000000
0000000000
ENDCHAR
STARTCHAR 232c
ENCODING 9004
SWIDTH 1020 0
DWIDTH 34 0
BBX 34 35 0 -4
BITMAP
0000000020
0000000000
0000000000
1000001000
0ffffffc00
0808601800
0808601800
0808601800
0808609800
0808609800
0818609800
0810609800
083060d800
08203fd800
08c0001800
0980001800
0a20041800
083ffe1800
0830041800
0830041800
0830041800
0830041800
0830041800
0830041800
0830041800
083ffc1800
0830041800
0820001800
0800001800
180003f000
1800007000
0000000000
0000000000
0000000000
0000000000
ENDCHAR
STARTCHAR 232d
ENCODING 9005
SWIDTH 1020 0
DWIDTH 34 0
BBX 34 35 0 -4
BITMAP
0000000020
0000000000
0000800000
0000e30000
2000c1c000
1000c0e000
0800c06000
0c00c00800
0600c01800
047ffffe00
0040800000
0080800000
0080800000
0100807000
0100c04000
0101c04000
0201c0c000
0201a0c000
020120c000
040130c000
0403118000
0c02198000
4802090000
3804070000
180c060000
08080f0000
081819c000
083030e000
0860c07800
0cc1801f00
0d9e000600
0000000000
0000000000
0000000000
0000000000
ENDCHAR
STARTCHAR 232e
ENCODING 9006
SWIDTH 1020 0
DWIDTH 34 0
BBX 34 35 0 -4
BITMAP
0000000020
0000000000
0110000000
01ee000e00
0088000c00
0088000800
0088430800
1fffe1c800
0088610800
0088410800
0088410800
0088410800
1088410800
1fffc10800
1888410800
1088010800
1188010800
3188010800
3188210800
3ffff90800
6188330800
6108630800
0108630800
0308610800
0308600800
020a400800
0409c00800
0408800800
0808000800
100801f800
2008003800
4008001000
0000000000
0000000000
0000000000
ENDCHAR
STARTCHAR 232f
ENCODING 9007
SWIDTH 1020 0
DWIDTH 34 0
BBX 34 35 0 -4
BITMAP
0000000020
0000000000
0000001000
0800800e00
0fffc00800
0c01800800
0c01838800
0c01830800
0c01820800
0c01820800
0c01820800
0c01820800
0fff820800
0c01820800
0c01820800
0c01820800
0c01820800
0c01820800
0c01820800
0c01820800
0fff820800
0c01820800
0c01820800
0c01820800
0c01800800
0c01800800
0c01800800
0c01b80800
0c1fc00800
7ff001f800
7c00003800
2000002000
0000000000
0000000000
0000000000
ENDCHAR
STARTCHAR 2330
ENCODING 9008
SWIDTH 1020 0
DWIDTH 34 0
BBX 34 35 0 -4
BITMAP
0000000020
0000000000
0000001000
1000600e00
1fffe00c00
1800400c00
180043cc00
1800418c00
1800410c00
1800410c00
1fffc10c00
1820410c00
1830410c00
1830010c00
1830010c00
1830010c00
1830c10c00
1ffff10c00
1810010c00
1810010c00
1818030c00
1818030c00
1808030c00
180c010c00
180c080c00
1806100c00
1826100c00
18c3100c00
1f81900c00
7e00f1f800
7000783800
4000001000
0000000000
0000000000
0000000000
ENDCHAR
STARTCHAR 2331
ENCODING 9009
SWIDTH 1020 0
DWIDTH 34 0
BBX 34 35 0 -4
BITMAP
0000000020
0000000000
0000040000
0002030000
7fff820000
0103020000
0302020000
0302020000
0306020400
0206ffff00
0606020600
0406020400
0c04020400
080c020400
109c020400
6078060400
4020060c00
0000060c00
1002040c00
1fff040c00
1002040c00
10020c0c00
1002080c00
1002080800
1002180800
1002100800
1002301800
1002201800
1ffe401800
100283f000
1001006000
0002000000
0000000000
0000000000
0000000000
ENDCHAR
STARTCHAR 2332
ENCODING 9010
SWIDTH 1020 0
DWIDTH 34 0
BBX 34 35 0 -4
BITMAP
0000000020
0000000000
0100040000
01c0070000
1180060000
1d80060000
1980060000
1980020000
1184020000
118e020400
3ffffffe00
2180060c00
2180060c00
4180060c00
4180060c00
4180060c00
0186060c00
7fff840c00
01c0040c00
0140040c00
01200c0c00
01200c0800
0320080800
0330080800
0210180800
0618100800
0418301800
0c0c201800
1807401800
3004833000
600100f000
0002004000
0000000000
0000000000
0000000000
ENDCHAR
STARTCHAR 2333
ENCODING 9011
SWIDTH 1020 0
DWIDTH 34 0
BBX 34 35 0 -4
BITMAP
0000000020
0000000000
0180000000
01e0000000
0180000400
03fffffe00
0300000e00
0600000c00
0400000c00
0c00080c00
0c000c0c00
13fffe0c00
2004000c00
4084400c00
00e4600c00
0184300c00
0184180800
01040c0800
02040c0800
0404000800
0004030800
3fffffc800
0004001800
0004001800
0004001800
0004001800
0004001800
0004003000
0004003000
0004067000
000401e000
0004008000
0000000000
0000000000
0000000000
ENDCHAR
STARTCHAR 2334
ENCODING 9012
SWIDTH 1020 0
DWIDTH 34 0
BBX 34 35 0 -4
BITMAP
0000000020
0000000000
0003000000
0001c00000
0001001000
0001001c00
0001fffc00
0001000000
0001000000
1001001000
0801001800
0ffffffc00
0800001000
0800001000
0800001000
0800101000
0ffff81000
0800101000
0800101000
0800101000
0800101000
0800101000
0ffff01000
0800101000
0800001000
0800001000
0800001000
0800001000
0800001000
0ffffff000
0800001000
0800001000
0000000000
0000000000
0000000000
ENDCHAR
STARTCHAR 2335
ENCODING 9013
SWIDTH 1020 0
DWIDTH 34 0
BBX 34 35 0 -4
BITMAP
0000000020
0000000000
0000000000
0001900c00
3fffcffe00
0101080c00
0101080800
0101080800
0301080800
0301080800
0203080800
0603080800
0402080800
0c02080800
187e080800
301c080800
6008080800
0000080800
0801880800
0fff880800
0801080800
0801080800
0801080800
0801080800
080109f800
0801087800
0801081000
0801080000
0fff080000
0801180000
0801180000
0800080000
0000000000
0000000000
0000000000
ENDCHAR
STARTCHAR 2336
ENCODING 9014
SWIDTH 1020 0
DWIDTH 34 0
BBX 34 35 0 -4
BITMAP
0000000020
0000000000
0000001000
1000001800
0ffffffe00
0800000000
0800008000
080003e000
08407ff000
087ff00000
0820100000
0820100000
0820100000
0820100000
0820101000
0820183800
183ffffc00
1820180000
1820080000
18200c0000
18200c0000
1820060000
1020360200
1021c30200
103f018400
13f800c400
338000e400
2100003c00
2000019e00
47ffffc000
8000000000
0000000000
0000000000
0000000000
0000000000
ENDCHAR
STARTCHAR 2337
ENCODING 9015
SWIDTH 1020 0
DWIDTH 34 0
BBX 34 35 0 -4
BITMAP
0000000020
0000000000
0000000800
0800001c00
0ffffffe00
0c00000000
0c10000000
0c1c000000
0c10000000
0c10001000
0c30001800
0c3ffffc00
0c61800000
0c41800000
0c81800000
0881802000
0901803000
0801fff800
0801800000
0801800000
0801800000
0801803000
0801fff800
1801800000
1801800000
1001800000
1001800000
1001800000
2001800000
2001800000
4001800000
4001000000
0000000000
0000000000
0000000000
ENDCHAR
STARTCHAR 2338
ENCODING 9016
SWIDTH 1020 0
DWIDTH 34 0
BBX 34 35 0 -4
BITMAP
0000000020
0000000000
0000300000
0000380000
0000300000
0000200000
4080200000
20c0200800
3fe0200c00
20dfffff00
20c0600000
20c0400000
20c0400000
20c0438000
20c0c3c000
20c0830000
20c0830000
20c0820000
20c1820000
20c1060000
20c1040000
20c3040000
3fc20c4000
20c6082000
20c4081000
2084101800
2008100c00
0018201c00
00102fe400
0023fc0600
0041000400
0001000000
0000000000
0000000000
0000000000
ENDCHAR
STARTCHAR 2339
ENCODING 9017
SWIDTH 1020 0
DWIDTH 34 0
BBX 34 35 0 -4
BITMAP
0000000020
0000000000
0000300000
0000380000
0000300000
0000300000
60c0100000
3fe0102000
208ffff000
2080102000
2080102000
2080102000
2080102000
2080302000
2080302000
2080302000
2080302c00
209fffff00
2080380000
2080340000
2080240000
2080220000
3f80620000
20c0430000
20c0c18000
6080808000
600180c000
0003007000
0004003800
0018000f00
0060000400
0080000000
0000000000
0000000000
0000000000
ENDCHAR
STARTCHAR 233a
ENCODING 9018
SWIDTH 1020 0
DWIDTH 34 0
BBX 34 35 0 -4
BITMAP
0000000020
0000000000
0001080000
0001ef0000
0001840000
0001840000
0001040000
6183040000
3fc2040000
2182040000
2187040800
2186041e00
218e043800
218a046000
219a058000
2192060000
21a2040000
21e2040000
2182040000
2182040000
2182040000
2182040000
3f82040000
2182040000
2102040400
6002040400
2002040400
0002040400
0002040e00
000207fe00
000203f000
0002000000
0000000000
0000000000
0000000000
ENDCHAR
STARTCHAR 233b
ENCODING 9019
SWIDTH 1020 0
DWIDTH 34 0
BBX 34 35 0 -4
BITMAP
0000000020
0000000000
0000300000
00001c0000
0000100000
0000100000
4080100000
20c0100000
3fe0300000
20c0300800
20e0301c00
20dffffe00
20c0380000
20c0280000
20c0240000
20c0640000
20c0640000
20c0620000
20c0420000
20c0c30000
20c0c10000
20c1818000
3fc1808000
20c120c000
2002206000
0006106000
000c083000
00080c3800
00100c1c00
0060040f00
00c0000600
0080000000
0000000000
0000000000
0000000000
ENDCHAR
STARTCHAR 233c
ENCODING 9020
SWIDTH 1020 0
DWIDTH 34 0
BBX 34 35 0 -4
BITMAP
0000000020
0000000000
0000180000
00001c0000
0000180000
40c0180000
3fe0180800
20c0181c00
209ffffe00
208200c000
208200c000
2082008000
2081018000
2081018000
2081018000
2080818000
2080830000
2080430000
2080420000
2080660000
20802c0000
3fc01c0000
60c0180000
60803c0000
0000660000
0000c30000
000381c000
000600f000
001c007c00
0070001f00
01c0000600
0000000000
0000000000
0000000000
0000000000
ENDCHAR
STARTCHAR 233d
ENCODING 9021
SWIDTH 1020 0
DWIDTH 34 0
BBX 34 35 0 -4
BITMAP
0000000020
0000000000
0000100000
00001c0000
0000180000
4080180000
20c0180000
3fe0180000
20c2180000
20c2181800
20c2181e00
20c2183000
20c2186000
20c6184000
20c4188000
20cc1b0000
20d81e0000
20d0340000
20c0340000
20c0240000
3fc0620000
60c0620000
6080430000
2000c18000
0001808000
000100c000
0003006000
0006003000
000c001c00
0010000f00
0020000400
0040000000
0000000000
0000000000
0000000000
ENDCHAR
STARTCHAR 233e
ENCODING 9022
SWIDTH 1020 0
DWIDTH 34 0
BBX 34 35 0 -4
BITMAP
0000000020
0000000000
0000000000
000000c000
000fffe000
000040e000
60c040c000
3fe040c000
20c040c000
20c0c0c000
20c0c08000
20c0c08000
20c0c08000
20c0c08000
20c0808400
20e0808e00
20dfffff00
20c0818000
20c0818000
20c1818000
20c1818000
3fc1818000
20c1818000
60c1018000
2001018000
0001018000
0001018000
0001018000
0003010800
0083011c00
007ffffe00
0000000000
0000000000
0000000000
0000000000
ENDCHAR
STARTCHAR 233f
ENCODING 9023
SWIDTH 1020 0
DWIDTH 34 0
BBX 34 35 0 -4
BITMAP
0000000020
0000000000
0000000000
0000001800
000ffffe00
0000040000
40c00c0000
3fe00c0000
20c00c0000
20c0080000
20c0180000
20c0300000
20c03d0000
20c06e8000
20c0486000
20c0883000
20c1081800
20c3080c00
20c6080e00
20c8080600
20f0080600
3fc0080000
60c0080000
6080080000
0000080000
0000080000
0000080000
0000080000
0000080000
0000080000
0000080000
0000080000
0000000000
0000000000
0000000000
ENDCHAR
STARTCHAR 2340
ENCODING 9024
SWIDTH 1020 0
DWIDTH 34 0
BBX 34 35 0 -4
BITMAP
0000000020
0000000000
0001800000
0001e00000
0001800000
4081000000
60e3003000
7fc3fff800
6082080000
6086080000
6084080000
608c080000
6098080000
6090080000
60a0080000
6080080000
6080080c00
60a0080f00
609ffffe00
6080080000
7f80080000
6080080000
6080080000
2000080000
0000080000
0000080000
0000080000
0000080000
0000080000
0000080000
0000080000
0000080000
0000000000
0000000000
0000000000
ENDCHAR
STARTCHAR 2341
ENCODING 9025
SWIDTH 1020 0
DWIDTH 34 0
BBX 34 35 0 -4
BITMAP
0000000020
0000000000
0000080000
00000e0000
00010c0000
4083cc0000
20c30c0000
3fe30c0000
20c20c0000
20c20c1000
20c60c3c00
20c7fffc00
20c40c0000
20cc0c0000
20c80c0000
20d00c0000
20d00c0000
20c00c0800
20c00c0c00
20dfffff00
3fc00c0000
60c00c0000
60800c0000
20000c0000
00000c0000
00000c0000
00000c0000
00000c0000
00000c0000
00000c0000
00000c0000
0000080000
0000000000
0000000000
0000000000
ENDCHAR
STARTCHAR 2342
ENCODING 9026
SWIDTH 1020 0
DWIDTH 34 0
BBX 34 35 0 -4
BITMAP
0000000020
0000000000
0000090000
00001ce000
0000388000
60c0608000
3fe1c08000
20c7c08000
20d8c08000
20c0c08000
20c0c08000
20c0c08000
20c0c08000
20c0c08400
20e0c08e00
20dfffff00
20c0c08000
20c0c08000
20c0c08000
20c0808000
3fc0808000
60c0808000
6081808000
0001008000
0001008000
0002008000
0002008000
0004008000
000c008000
0018008000
0020008000
0020008000
0000000000
0000000000
0000000000
ENDCHAR
STARTCHAR 2343
ENCODING 9027
SWIDTH 1020 0
DWIDTH 34 0
BBX 34 35 0 -4
BITMAP
0000000020
0000000000
0000400000
0000f00000
0000c00000
2040c00000
3fe1800000
20c1800c00
20c1fffe00
20c3000c00
20c2000c00
20c4000c00
20cc000c00
20d8070c00
20d3ff8c00
20c0000c00
20c0000800
20c0000800
20c0000800
20c0018800
3fc0070800
20c01c0800
20c0700800
2003c01800
0007001800
0002001800
0000001000
0000001000
0000103000
00001f7000
000001e000
0000008000
0000000000
0000000000
0000000000
ENDCHAR
STARTCHAR 2344
ENCODING 9028
SWIDTH 1020 0
DWIDTH 34 0
BBX 34 35 0 -4
BITMAP
0000000020
0000000000
0000100000
00001c0000
0000180000
0000183000
000018f800
40401bc000
3fe01e0000
20c7f80000
20d8180000
20c0180000
20c8182000
20ce183800
20cc183000
20cc183000
20cc183000
20cc183000
20cc183000
20cc183000
20cc183000
3fcffff000
20cc183000
60c4182400
60c0180400
2000180400
0000180400
0000180400
0000180600
00001fff00
000007fc00
0000000000
0000000000
0000000000
0000000000
ENDCHAR
STARTCHAR 2345
ENCODING 9029
SWIDTH 1020 0
DWIDTH 34 0
BBX 34 35 0 -4
BITMAP
0000000020
0000000000
0000100000
00001c0000
0000380000
4080340000
7fc0260000
6080620000
6080c10000
6080818000
608180c000
6083006000
6086003800
608c001c00
6099c18f00
60b181c400
6080818000
6080818000
6080818000
6080818000
7f81818000
6081818000
6081818000
0001818000
0001018000
0001018000
0003018000
0002018000
0004018000
000c018000
0010010000
0020000000
0000000000
0000000000
0000000000
ENDCHAR
STARTCHAR 2346
ENCODING 9030
SWIDTH 1020 0
DWIDTH 34 0
BBX 34 35 0 -4
BITMAP
0000000020
0000000000
0001000000
0001e00000
0001802000
0001c03000
0011e07800
3ffda0c000
0031b30000
00219c0000
00618c0000
00c1860000
0181838000
030180e000
0601807800
1801801f00
7011800400
000f000000
0003000000
0400002000
0200007000
03fffff000
0200006000
0200006000
0200006000
0200006000
0200006000
0200006000
0200006000
07ffffe000
0600006000
0200006000
0000000000
0000000000
0000000000
ENDCHAR
STARTCHAR 2347
ENCODING 9031
SWIDTH 1020 0
DWIDTH 34 0
BBX 34 35 0 -4
BITMAP
0000000020
0000000000
0000000000
1000000800
1ffffffc00
1000000800
1008400800
100e700800
1018400800
1010400800
1030410800
102043c800
1060470800
10704c0800
10e0580800
11e0700800
1360c00800
1661400800
106e400800
1060400800
1060404800
1060404800
106040c800
106040c800
106040c800
10607fe800
10603f0800
1040000800
1000000800
1ffffff800
1000000800
1000000000
0000000000
0000000000
0000000000
ENDCHAR
STARTCHAR 2348
ENCODING 9032
SWIDTH 1020 0
DWIDTH 34 0
BBX 34 35 0 -4
BITMAP
0000000020
0000000000
0000000000
1000000800
1ffffffc00
1008601800
1008601800
1008601800
1008601800
1008609800
1018609800
1010609800
1030619800
10603fd800
10c0001800
1300001800
1020041800
103ffe1800
10300c1800
10300c1800
10300c1800
10300c1800
10300c1800
10300c1800
10300c1800
10300c1800
10300c1800
10300c1800
10300c1800
1ffffff800
1000001800
1000000000
0000000000
0000000000
0000000000
ENDCHAR
STARTCHAR 2349
ENCODING 9033
SWIDTH 1020 0
DWIDTH 34 0
BBX 34 35 0 -4
BITMAP
0000000020
0000000000
0000000000
1000000800
1ffffffc00
1000000800
1003000800
1001c00800
1001018800
13ffffc800
1000000800
1000000800
1020200800
1010300800
101ff00800
1018200800
1018200800
1018200800
1010200800
1010200800
1010204800
1010204800
1030204800
106020c800
104030e800
10803fc800
1700000800
1000000800
1000000800
1ffffff800
1000000800
0000000000
0000000000
0000000000
0000000000
ENDCHAR
STARTCHAR 234a
ENCODING 9034
SWIDTH 1020 0
DWIDTH 34 0
BBX 34 35 0 -4
BITMAP
0000000020
0000000000
0000002000
040000f800
07000fc000
0605fe0000
0602020000
0602020000
0602020000
0602020000
0642020000
8662020000
7ff2020800
0602021c00
0603fffe00
0602020000
0602030000
0602030000
0602030000
0602030000
0602018000
0602018000
0632018000
06c2008200
07820cc200
0e0230c200
fc02606200
7003803400
400f003c00
001c001c00
0008000e00
0008000000
0000000000
0000000000
0000000000
ENDCHAR
STARTCHAR 234b
ENCODING 9035
SWIDTH 1020 0
DWIDTH 34 0
BBX 34 35 0 -4
BITMAP
0000000020
0000000000
0000100000
04001c0000
0700380000
0600340000
0600640000
0600620000
0600c10000
0600818000
064180c000
8663006000
7ff6013000
060d039c00
0619ffcf00
0630000400
0640000000
0600000000
0600002000
060ffff000
0600007000
0600006000
0630004000
06c000c000
078000c000
1e00008000
f800018000
6000018000
4000010000
0000030000
0000030000
0000030000
0000000000
0000000000
0000000000
ENDCHAR
STARTCHAR 234c
ENCODING 9036
SWIDTH 1020 0
DWIDTH 34 0
BBX 34 35 0 -4
BITMAP
0000000020
0000000000
0000040000
00020e0000
0081fc0000
00f0040000
00c0040000
0180020000
0300010000
020000c000
0600026000
0cffff3c00
180c060f00
3008060000
c018060000
0010060000
0030060000
0060040000
0181fc0000
0700380000
3801000000
0001e00000
0001808000
040181c000
03ffffe000
0001800000
0001800000
0001800000
0001800c00
2001800e00
3ffffffe00
0000000000
0000000000
0000000000
0000000000
ENDCHAR
STARTCHAR 234d
ENCODING 9037
SWIDTH 1020 0
DWIDTH 34 0
BBX 34 35 0 -4
BITMAP
0000000020
0000000000
0000100000
08001c0000
0700180000
0400183000
040018fc00
04001f8000
0400f80000
041f180000
0480180000
04c0180000
7fe8183000
040e183800
040c183000
040c183000
040c183000
040c183000
040c183000
040c183000
040c183000
041ffff000
04fc183000
0784180400
7e00180400
7000180400
4000180400
0000180400
0000180400
00001ffe00
000007fc00
0000000000
0000000000
0000000000
0000000000
ENDCHAR
STARTCHAR 234e
ENCODING 9038
SWIDTH 1020 0
DWIDTH 34 0
BBX 34 35 0 -4
BITMAP
0000000020
0000000000
0000000000
0600010000
07001f8000
0601010000
0601c10000
0601008000
0603008000
060200c000
0646006000
7ff6002000
060c003000
0608001c00
0618004f00
0617fff400
0620407000
0600406000
0600406000
0600404000
0610c04000
0630804000
06c0804000
0701804000
1e01004000
780300c000
600600c000
200400c000
0008608000
00301f8000
0040070000
0080000000
0000000000
0000000000
0000000000
ENDCHAR
STARTCHAR 234f
ENCODING 9039
SWIDTH 1020 0
DWIDTH 34 0
BBX 34 35 0 -4
BITMAP
0000000020
0000000000
0200400000
0380700000
0300600000
0300602000
0304607000
030e61f800
03ff6f0000
0300700000
0300600000
0300600000
0300600800
0300600800
0302600800
033c600800
07e07f9c00
7f003ff800
2002000000
2001c00000
0001800000
0001808000
000181c000
07ffffe000
0001800000
0001800000
0001800000
0001800000
0001800800
4001801c00
7ffffffe00
0000000000
0000000000
0000000000
0000000000
ENDCHAR
STARTCHAR 2350
ENCODING 9040
SWIDTH 1020 0
DWIDTH 34 0
BBX 34 35 0 -4
BITMAP
0000000020
0000000000
0018000000
003e000000
0030020000
007fff8000
00c0030000
01b0060000
02180c0000
0c04380000
3003600000
4001c00000
00073c0000
00180fe000
01e201fe00
1f01c01c00
6001004000
1001006000
0ffffff000
0001000000
0001008000
040101c000
03ffffc000
0001000000
0001001800
3ffffffe00
0001000000
0001000000
0001000000
0001000000
0001000000
0001000000
0000000000
0000000000
0000000000
ENDCHAR
STARTCHAR 2351
ENCODING 9041
SWIDTH 1020 0
DWIDTH 34 0
BBX 34 35 0 -4
BITMAP
0000000020
0000000000
0000002000
2000003800
1ffffffc00
0001800000
0001000000
0003800000
0007b00000
001b0c0000
0033030000
00e3018000
018300e000
0603007000
3803001000
0003000000
0001000000
0002000000
0001c00000
0003001000
0003001c00
7ffffffe00
0002800000
0006400000
0004600000
0008300000
00100c0000
0060070000
00c003c000
070000fe00
3c00001c00
4000000000
0000000000
0000000000
0000000000
ENDCHAR
STARTCHAR 2352
ENCODING 9042
SWIDTH 1020 0
DWIDTH 34 0
BBX 34 35 0 -4
BITMAP
0000000020
0000000000
0200080000
03c00e0000
02000c0000
02000c0000
02000c3000
06000cf800
06000f8000
8437fc0000
7ff80c0000
04200c0000
0c200c0000
08200c3000
1827fffc00
18600c0000
10600c0000
10400c0000
30400c0000
20c00c0400
78900c0e00
6c8fffff00
03800c0000
01c00c0000
03e00c0000
06300c0000
04300c0000
08100c0000
10000c0000
20000c0000
40000c0000
0000080000
0000000000
0000000000
0000000000
ENDCHAR
STARTCHAR 2353
ENCODING 9043
SWIDTH 1020 0
DWIDTH 34 0
BBX 34 35 0 -4
BITMAP
0000000020
0000000000
0300000000
03c0002000
0200003000
0201fff800
0200000000
0600000000
0410000000
7ff0000000
0438000000
0c30000000
0c30000800
0828000e00
0827fffe00
18200c0000
1020080000
1060180000
3040180000
3040100000
78c0308000
6680204000
0380202000
0180401000
03e0401800
0260400800
043080fc00
0c28ff8600
1807f00600
2006000600
4002000200
4000000000
0000000000
0000000000
0000000000
ENDCHAR
STARTCHAR 2354
ENCODING 9044
SWIDTH 1020 0
DWIDTH 34 0
BBX 34 35 0 -4
BITMAP
0000000020
0000000000
0200040000
03c0860000
0300fe0000
0200040000
0200040000
0600040000
0604040800
8424040c00
7ff7fffe00
0426040c00
0c26060c00
08260e0c00
08660a0c00
18660b0c00
1046190c00
1046118c00
3046318c00
30c620cc00
788640ec00
6c86807c00
0307000c00
0186000c00
02c6000c00
0666000c00
0426000c00
0806000c00
1006000c00
200601f800
4006003800
0000000000
0000000000
0000000000
0000000000
ENDCHAR
STARTCHAR 2355
ENCODING 9045
SWIDTH 1020 0
DWIDTH 34 0
BBX 34 35 0 -4
BITMAP
0000000020
0000000000
0200080000
03c00e0000
03000c0000
02001a0000
02001a0000
0200110000
0600318000
861860c000
7ff8406000
0410c03000
0c1080b800
081181de00
08327fcf00
1834000000
1828000000
1020000000
3060001000
3043fff000
3040003800
6cc0006000
4680006000
0180004000
03c000c000
0260008000
0420018000
0c30010000
1000030000
2000030000
4000060000
0000000000
0000000000
0000000000
0000000000
ENDCHAR
STARTCHAR 2356
ENCODING 9046
SWIDTH 1020 0
DWIDTH 34 0
BBX 34 35 0 -4
BITMAP
0000000020
0000000000
02000c0000
03c00e0000
03000c0000
02001a0000
02001a0000
0200310000
0600218000
463060c000
7ff8404000
0430806000
0c31803800
0823001c00
0826e18f00
182cc0e600
1828408000
1060408000
3040408000
3040408000
38c0c08000
6680c08000
0380c08000
01c0c08000
0360808000
0230808000
0411808000
0c01008000
1803008000
2006008000
400c008000
0000008000
0000000000
0000000000
0000000000
ENDCHAR
STARTCHAR 2357
ENCODING 9047
SWIDTH 1020 0
DWIDTH 34 0
BBX 34 35 0 -4
BITMAP
0000000020
0000000000
0200000000
03c0018000
03000f8000
0200810000
0200e08000
0200808000
060180c000
4631004000
7ff9006000
0422003000
0c22003800
0824001c00
0824002f00
186bfff400
1070207000
1040206000
3040206000
30c0206000
3880606000
6680604000
0380404000
01c0c04000
0360804000
0231804000
041100c000
0c0200c000
100620c000
20081f8000
4030038000
0000000000
0000000000
0000000000
0000000000
ENDCHAR
STARTCHAR 2358
ENCODING 9048
SWIDTH 1020 0
DWIDTH 34 0
BBX 34 35 0 -4
BITMAP
0000000020
0000000000
0200000000
03c0010000
03001f8000
0200010000
0200c10000
0200e08000
0600808000
463080c000
7ff9804000
0421006000
0c21002000
0823003000
0822181800
18661e0e00
1864180700
1048180000
3048100000
30c0300000
3880300000
6680208000
0380204000
01c0606000
0360402000
0230c01000
041081f800
0c00bf1800
100ff00c00
200e000c00
4004000400
0000000000
0000000000
0000000000
0000000000
ENDCHAR
STARTCHAR 2359
ENCODING 9049
SWIDTH 1020 0
DWIDTH 34 0
BBX 34 35 0 -4
BITMAP
0000000020
0000000000
0200080000
03c00e0000
03000c0000
02000c0000
02000c0400
02000c0c00
060fffff00
4631004000
7ff9004000
042080c000
0c2080c000
082080c000
082080c000
1860408000
1860418000
1040618000
3040210000
30c0330000
3880120000
66801e0000
03800c0000
01c00c0000
03601e0000
0230338000
041041c000
0c0180e000
1003003c00
200c001f00
4038000400
0040000000
0000000000
0000000000
0000000000
ENDCHAR
STARTCHAR 235a
ENCODING 9050
SWIDTH 1020 0
DWIDTH 34 0
BBX 34 35 0 -4
BITMAP
0000000020
0000000000
0300000000
03c0002000
0202007800
0203fff800
0200000000
0600000000
0420000000
7ff0000000
0438000000
0c30000000
0820001800
082ffffe00
1820430000
1860430000
1060430000
1060430000
3040430000
30c0c30000
7880c30000
6680c30000
0380830000
01c0830000
0361830400
0621030400
0433030400
0802030400
1004030600
200803fe00
403000f800
0020000000
0000000000
0000000000
0000000000
ENDCHAR
STARTCHAR 235b
ENCODING 9051
SWIDTH 1020 0
DWIDTH 34 0
BBX 34 35 0 -4
BITMAP
0000000020
0000000000
0100000000
01c0003800
030001fc00
0300ff0000
0200800000
0200800000
0610800000
7ff8800000
0418800000
0410800400
0c30800c00
0c30ffff00
0830808000
1830808000
1820808000
1020808000
3060808000
3040808000
3841808000
6cc1808000
0381008000
01c1008000
01e1008000
0273008000
0632008000
0c16008000
1804008000
3008008000
6010008000
4000008000
0000000000
0000000000
0000000000
ENDCHAR
STARTCHAR 235c
ENCODING 9052
SWIDTH 1020 0
DWIDTH 34 0
BBX 34 35 0 -4
BITMAP
0000000020
0000000000
0001000000
0001c00000
0001800000
0801800000
0801800800
0ffffffe00
1000001800
3000001000
3000032000
60001fc000
0003f80000
1fff000000
0003000000
0003000000
0003000000
0003002000
2003007000
1ffffff800
0002800000
0006400000
0004400000
000c200000
0018100000
00100c0000
0020060000
00c0038000
018001e000
0600007e00
3800001800
4000000000
0000000000
0000000000
0000000000
ENDCHAR
STARTCHAR 235d
ENCODING 9053
SWIDTH 1020 0
DWIDTH 34 0
BBX 34 35 0 -4
BITMAP
0000000020
0000000000
0001c00000
0000e00000
0000800000
0800800000
0800800c00
0ffffffe00
1000000800
1000001000
30000e2000
60007f0000
000fc00000
3ffc000000
000c000000
000c018000
000c01e000
001ffe0000
3fec000000
000c002000
000c003800
000c003c00
000fffc000
7ffc000000
000c000000
000c000400
000c000400
000c000400
000c000400
0007fffe00
0003fff800
0000000000
0000000000
0000000000
0000000000
ENDCHAR
STARTCHAR 235e
ENCODING 9054
SWIDTH 1020 0
DWIDTH 34 0
BBX 34 35 0 -4
BITMAP
0000000020
0000000000
0200000000
01d0004000
018c007000
018600c000
0184018000
0182030000
8187060000
7fff8c1000
0180101c00
0180603000
0173806000
012000c000
0120018000
0120030000
01200c0600
0120100f00
0320e01800
0321003000
0220006000
022000c000
0620018400
0420030400
04200c0400
0820700400
0821800c00
1020000c00
1038003e00
201ffff800
c000000000
0000000000
0000000000
0000000000
0000000000
ENDCHAR
STARTCHAR 235f
ENCODING 9055
SWIDTH 1020 0
DWIDTH 34 0
BBX 34 35 0 -4
BITMAP
0000000020
0000000000
01c0000000
0180000000
0100001000
0101003800
0101fffc00
0106060000
7fff060000
0100060000
0100060000
0170060000
0160061000
0140063000
0141fffc00
0140060000
0340060000
0340060000
0340060000
0240060000
0240060000
0240060800
0440061c00
0443fffe00
0440000000
0840000400
0840000400
1040000400
1060000f00
203ffffe00
4001fe0000
0000000000
0000000000
0000000000
0000000000
ENDCHAR
STARTCHAR 2360
ENCODING 9056
SWIDTH 1020 0
DWIDTH 34 0
BBX 34 35 0 -4
BITMAP
0000000020
0000000000
0000000000
0300001800
0387fffc00
020060c000
020060c000
020060c000
723060c000
223860c000
222060c000
222060c000
222060c000
222060c800
222060cc00
2227ffff00
222060c000
222060c000
222040c000
222040c000
222040c000
2220c0c000
2220c0c000
222080c000
222080c000
3fe100c000
602100c000
602200c000
000600c000
000400c000
000800c000
0010000000
0000000000
0000000000
0000000000
ENDCHAR
STARTCHAR 2361
ENCODING 9057
SWIDTH 1020 0
DWIDTH 34 0
BBX 34 35 0 -4
BITMAP
0000000020
0000000000
0000000000
0380002000
0302007000
0201fff800
0200000000
0200000000
3a38000000
3230000000
2220000000
2220000000
2220001800
222ffffc00
2220410000
2220410000
2220410000
2220410000
2220410000
2220410000
2220410000
2220c10000
2220810000
2220810400
3fe1810400
2021010400
2023010400
2002010400
0004010600
001801fe00
003000fc00
0040000000
0000000000
0000000000
0000000000
ENDCHAR
STARTCHAR 2362
ENCODING 9058
SWIDTH 1020 0
DWIDTH 34 0
BBX 34 35 0 -4
BITMAP
0000000020
0000000000
0000001000
0380001800
0303fffc00
0200018000
0200818000
4241e18000
3a39818000
2221818000
2221018000
2221018000
2221018000
2223018c00
2223018e00
2223fffe00
2226078000
2220078000
22200d8000
22200d8000
2220198000
2220118000
2220218000
2220618000
3fe0c18000
2021818000
2022018000
000c018000
0018018000
00003f0000
0000070000
0000020000
0000000000
0000000000
0000000000
ENDCHAR
STARTCHAR 2363
ENCODING 9059
SWIDTH 1020 0
DWIDTH 34 0
BBX 34 35 0 -4
BITMAP
0000000020
0000000000
0000000000
070000c000
038fffe000
0200c0c000
0200c08000
4240c08000
3a38c08000
2220c18000
2220818000
2220810000
2220810800
2220fffc00
2220c01e00
2220a01800
2220a01800
2220b03000
2221903000
2221102000
2221086000
22210c4000
222204c000
2222068000
3fe6030000
2024038000
200c04c000
0008087000
0010303800
0020401f00
0003800400
0004000000
0000000000
0000000000
0000000000
ENDCHAR
STARTCHAR 2364
ENCODING 9060
SWIDTH 1020 0
DWIDTH 34 0
BBX 34 35 0 -4
BITMAP
0000000020
0000000000
0400200000
0380780000
0200600000
0200600000
0200400000
4240400c00
3a38fffe00
22308ccc00
223188cc00
2231188c00
2233188c00
2232108c00
2234318c00
2230318c00
2230210c00
2230630c00
2230420800
2230c20800
2230860800
2231040800
22330c0800
2236080800
2234181800
3ff0101800
2030201800
2020401800
2000803000
0001077000
000000e000
000000c000
0000000000
0000000000
0000000000
ENDCHAR
STARTCHAR 2365
ENCODING 9061
SWIDTH 1020 0
DWIDTH 34 0
BBX 34 35 0 -4
BITMAP
0000000020
0000000000
0000080000
03000e0000
03800c0000
02001a0000
0200120000
0200310000
7230218000
323860c000
2230404000
2230c07000
2231813800
223181dc00
22327fcf00
2234000400
2238000000
2230000000
2230002000
2233fff000
2230003800
2230006000
2230006000
2230004000
223000c000
3ff000c000
603000c000
6020008000
0000018000
0000018000
0000018000
0000030000
0000000000
0000000000
0000000000
ENDCHAR
STARTCHAR 2366
ENCODING 9062
SWIDTH 1020 0
DWIDTH 34 0
BBX 34 35 0 -4
BITMAP
0000000020
0000000000
2000004000
3000006000
3ffffff000
3002004000
3002004000
3002004000
3002006000
3fffffe000
3000004400
3000000400
3000000400
3000000400
1000000e00
1ffffffe00
00ffff0000
0000000000
0003800000
2001c00000
1c01001800
1001001c00
1001001800
1001001800
1001001800
1001001800
1001001800
1001001800
1001001800
1ffffff800
1000001800
1000000000
0000000000
0000000000
0000000000
ENDCHAR
STARTCHAR 2367
ENCODING 9063
SWIDTH 1020 0
DWIDTH 34 0
BBX 34 35 0 -4
BITMAP
0000000020
0000000000
0000002000
0380007800
030001c000
02000f0000
0205fc0000
02020c0000
72380c0000
32300c0000
22300c0000
2230080000
2230080800
2230081c00
223ffffe00
22300c0000
22301c0000
22301a0000
2230120000
2230120000
2230310000
2230310000
2230218000
2230408000
3ff0c0c000
6030806000
6031807000
2003003800
0006001c00
000c000f00
0030000400
0020000000
0000000000
0000000000
0000000000
ENDCHAR
STARTCHAR 2368
ENCODING 9064
SWIDTH 1020 0
DWIDTH 34 0
BBX 34 35 0 -4
BITMAP
0000000020
0000000000
0400001000
0380007c00
020107e000
0201f80000
0201800000
4221800000
3a39800000
2231800000
2231800000
2231800800
2231800c00
2231fffe00
2231808000
2231808000
2231808000
2231808000
2231808000
2231008000
2231008000
2231008000
2231008000
2233008000
3ff2008000
2032008000
2026008000
2004008000
0008008000
0010008000
0020018000
0000008000
0000000000
0000000000
0000000000
ENDCHAR
STARTCHAR 2369
ENCODING 9065
SWIDTH 1020 0
DWIDTH 34 0
BBX 34 35 0 -4
BITMAP
0000000020
0000000000
0001000000
0801c04000
0701807000
0401806000
0401806000
0401806000
0401806000
0401806000
07ffffe000
0403006000
0403c00000
0006800000
000c600000
00381c0000
0060078000
018001f900
0e40083e00
38300e0000
40200c0000
00200c0000
00200c0000
00200c0000
00200c0000
00600c0000
00400c0000
00c00c0000
01800c0000
03000c0000
06000c0000
0800000000
0000000000
0000000000
0000000000
ENDCHAR
STARTCHAR 236a
ENCODING 9066
SWIDTH 1020 0
DWIDTH 34 0
BBX 34 35 0 -4
BITMAP
0000000020
0000000000
0000000000
0000003800
3ffffffc00
0000000000
0080800000
00c0e06000
00e0e07000
018180c000
0101018000
0202020000
14141c0000
0808040000
0606030000
0303018000
018180e000
00c0c06000
00c0402000
0000000000
0000003000
1ffffff800
0001800000
0001800000
0001800000
0001800000
0001800000
0001800000
0001800c00
4001801e00
3ffffffe00
0000000000
0000000000
0000000000
0000000000
ENDCHAR
STARTCHAR 236b
ENCODING 9067
SWIDTH 1020 0
DWIDTH 34 0
BBX 34 35 0 -4
BITMAP
0000000020
0000000000
0200000000
03c0000000
0301000800
0301fffc00
0301860c00
4311860800
2319860800
3ffd860800
2311860800
2311860800
2311860800
2311860800
2311860800
2311fff800
2311800800
2311800800
2311800800
2311800000
2311800000
2311800000
23f1800400
2371800400
2321800400
0301800400
0301800400
0301800400
0301c00e00
0300fffe00
0300000000
0200000000
0000000000
0000000000
0000000000
ENDCHAR
STARTCHAR 236c
ENCODING 9068
SWIDTH 1020 0
DWIDTH 34 0
BBX 34 35 0 -4
BITMAP
0000000020
0000000000
0200080000
03800e0000
03000c0000
03000c0000
03000c0000
43110c0000
23390c0c00
3ff9fffe00
2331080800
2333081800
2332081000
23360c2000
23360b8000
23300b0000
23301a0000
23301a0000
23301a0000
2330120000
2330320000
2330320000
23b0220000
23f0620400
2360420400
0300c20400
0301820400
0301020400
0302020400
030c03fe00
031001f800
0220000000
0000000000
0000000000
0000000000
ENDCHAR
STARTCHAR 236d
ENCODING 9069
SWIDTH 1020 0
DWIDTH 34 0
BBX 34 35 0 -4
BITMAP
0000000020
0000000000
0000c00000
0000e00000
0000801000
0800801800
0ffffffe00
0800000000
0800600000
0800700000
0800400000
0800401000
0900403800
09fffffc00
0800400000
0800400000
0800400000
088040c000
087fffe000
0808018000
1808010000
1804030000
1802060000
18018c0000
1000d80000
1000700000
1000780000
20018f0000
200603c000
603800fe00
43c0001800
0c00000000
0000000000
0000000000
0000000000
ENDCHAR
STARTCHAR 236e
ENCODING 9070
SWIDTH 1020 0
DWIDTH 34 0
BBX 34 35 0 -4
BITMAP
0000000020
0000000000
0000c00000
0000e00000
0000c00800
1000c01c00
1ffffffe00
1800000000
1800f00000
1800604000
180041e000
18005fd000
1807f00000
1bfc400000
1800400000
1880407000
18e0406000
18c0404000
18c0404000
18c0404000
10c0404000
10c0404000
10c0404000
10ffffc000
10c0404400
30c0400400
2040400400
2000400c00
2000400c00
40007ffe00
40001ff000
8000000000
0000000000
0000000000
0000000000
ENDCHAR
STARTCHAR 236f
ENCODING 9071
SWIDTH 1020 0
DWIDTH 34 0
BBX 34 35 0 -4
BITMAP
0000000020
0000000000
0000c00000
0000e00000
0000c00800
1000c01c00
1ffffffe00
1800000000
1800001000
1880003800
18fffffc00
1820040000
083c040000
1830040000
1820040000
1860040000
1860040800
1840041c00
18fffffe00
18c0340000
1800640000
1000c40000
1001840000
1003040000
100c040000
1030040000
30e0040000
2700040000
20000c0000
4001fc0000
40001c0000
8000000000
0000000000
0000000000
0000000000
ENDCHAR
STARTCHAR 2370
ENCODING 9072
SWIDTH 1020 0
DWIDTH 34 0
BBX 34 35 0 -4
BITMAP
0000000020
0000000000
0000c00000
0000e00000
0000801000
1000801c00
1ffffffe00
1800000000
1800700000
1800e00000
1800f00000
1801980000
08030c0000
1806030000
180c018000
181804f000
1828073e00
18c7ff0e00
1b00000000
1800000000
1800004000
107fffe000
100000f000
100000c000
1000018000
1000030000
3000030000
2000060000
2000040000
40000c0000
4000180000
0000100000
0000000000
0000000000
0000000000
ENDCHAR
STARTCHAR 2371
ENCODING 9073
SWIDTH 1020 0
DWIDTH 34 0
BBX 34 35 0 -4
BITMAP
0000000020
0000000000
0000c00000
0000e00000
0000c00800
1000c01c00
1ffffffe00
1800000000
1800000000
180001c000
18003ff000
183ff00000
0820000000
1820000000
1820000000
1820000c00
1820001e00
183ffffe00
18200c0000
18200c0000
18200c0000
10200c0000
10200c0000
10600c0000
10600c0000
10400c0000
30400c0000
20c00c0000
20800c0000
41000c0000
42000c0000
0000000000
0000000000
0000000000
0000000000
ENDCHAR
STARTCHAR 2372
ENCODING 9074
SWIDTH 1020 0
DWIDTH 34 0
BBX 34 35 0 -4
BITMAP
0000000020
0000000000
0000080000
0001080000
0030fc0000
0038080000
0060040000
00c0030000
018000e000
0600037f00
19ffff8c00
600c030000
000c030000
0008020000
0010020000
0020060000
00c1060000
0300fc0000
1c00180000
2080000000
0078070000
0060060800
0060060c00
7fffffff00
0060060000
0060060000
0040060000
00c0060000
0180060000
0300060000
0c00060000
3000040000
0000000000
0000000000
0000000000
ENDCHAR
STARTCHAR 2373
ENCODING 9075
SWIDTH 1020 0
DWIDTH 34 0
BBX 34 35 0 -4
BITMAP
0000000020
0000000000
0000000000
0019001800
3ffdfffc00
0011861800
0011861800
0011861800
0011861800
0011861800
1011861800
1ff1861800
1811861800
1001861800
1001861800
1001fff800
1001801800
3019800000
3ffd800000
3031800000
2031800000
0031800000
0031800400
0031800400
0031800400
0021800400
0061800400
0061800c00
0061c00e00
0fc0fffe00
03803fe000
0100000000
0000000000
0000000000
0000000000
ENDCHAR
STARTCHAR 2374
ENCODING 9076
SWIDTH 1020 0
DWIDTH 34 0
BBX 34 35 0 -4
BITMAP
0000000020
0000000000
0100000000
01c0010000
01003f8000
0300020000
0601c10000
0401e10000
0841810000
10f1008000
20c300c000
4083004000
0186006000
0304003000
020c301800
06083c0e00
0e10300700
1230200000
2220200000
4200600000
0200600000
0200410000
0200c08000
020080c000
0201806000
0201002000
020207f000
0203fc1800
023fc01800
0210000800
0610000000
0200000000
0000000000
0000000000
0000000000
ENDCHAR
STARTCHAR 2375
ENCODING 9077
SWIDTH 1020 0
DWIDTH 34 0
BBX 34 35 0 -4
BITMAP
0000000020
0000000000
0100000000
01c0008000
011fffe000
030080c000
0600808000
0400818000
0800818000
1070818000
20c0810000
40c0810000
0180830800
0100fffc00
0301c01e00
0601c01800
0e01e01000
1a01203000
2201203000
4201102000
0203106000
020208c000
02020c8000
0206078000
0204030000
020c078000
02080cc000
0210187000
0230203c00
0220c01f00
0247000400
0208000000
0000000000
0000000000
0000000000
ENDCHAR
STARTCHAR 2376
ENCODING 9078
SWIDTH 1020 0
DWIDTH 34 0
BBX 34 35 0 -4
BITMAP
0000000020
0000000000
00001d0000
000019c000
0000106000
0000103000
0000100000
0000100800
4000101c00
3ffffffe00
0000180000
0000180000
0000180000
0080180000
0060180000
0030080000
0018080000
010c0c0000
01c80c0000
01800c0000
1180040000
1181860000
1180c60200
1180630200
1180210200
3182318200
318210c400
6182186400
6183003400
01ff801e00
007c000e00
0000000200
0000000000
0000000000
0000000000
ENDCHAR
STARTCHAR 2377
ENCODING 9079
SWIDTH 1020 0
DWIDTH 34 0
BBX 34 35 0 -4
BITMAP
0000000020
0000000000
0000000800
0000001800
7ffffffe00
0001000000
0001000000
0001000000
0001800000
0001700000
00011e0000
0001078000
000101c000
0001004000
0003000000
0003000000
0003000000
0003000000
0000000000
0042000000
0071800000
0060e08000
0460706000
0460303000
0460011800
0460010c00
0c60010600
1860010000
3860018000
703fffc000
000ffc0000
0000000000
0000000000
0000000000
0000000000
ENDCHAR
STARTCHAR 2378
ENCODING 9080
SWIDTH 1020 0
DWIDTH 34 0
BBX 34 35 0 -4
BITMAP
0000000020
0000000000
0004000000
0007800000
0002000000
0002000000
0002000000
000200c000
000200e000
0003ffe000
0002000000
0002000000
0002000000
0002000000
0002000000
0002000800
2002001e00
3ffffffe00
0000000000
0004000000
0003000000
0041c00000
0038e04000
0420602000
0420001800
0420010c00
0c20010e00
0820010400
1820018000
303807c000
001fff0000
0000000000
0000000000
0000000000
0000000000
ENDCHAR
STARTCHAR 2379
ENCODING 9081
SWIDTH 1020 0
DWIDTH 34 0
BBX 34 35 0 -4
BITMAP
0000000020
0000000000
0400000000
0780c00000
0600200000
0600180000
06000c0000
0600040000
0680000c00
165ffffe00
1660180000
3620180000
2620180000
6600180000
46001c0000
06001b0000
060019c000
0600186000
0600183000
0600181000
0600180000
0600180000
0600180000
0600180000
0600180000
0600180000
0600180000
0600180000
0600180000
0600180000
0600100000
0200000000
0000000000
0000000000
0000000000
ENDCHAR
STARTCHAR 237a
ENCODING 9082
SWIDTH 1020 0
DWIDTH 34 0
BBX 34 35 0 -4
BITMAP
0000000020
0000000000
0400000000
0780002000
0604003800
0603fff800
0600000000
0600000000
0680000000
2640000000
2660000000
2620000800
2628001e00
2627fffe00
6600410000
4600410000
0600410000
0600410000
0600410000
0600410000
0600c10000
0600c10000
0600810000
0600810400
0601810400
0601010400
0602010400
0606010400
060c010600
061001fe00
0660007800
0400000000
0000000000
0000000000
0000000000
ENDCHAR
STARTCHAR 237b
ENCODING 9083
SWIDTH 1020 0
DWIDTH 34 0
BBX 34 35 0 -4
BITMAP
0000000020
0000000000
0400080000
07800e0000
06000c0000
06000c0000
06000c0800
06000c0c00
069ffffe00
26400c0000
26600c0000
26200c0000
26200c0000
66000c2000
e607fff000
0601003800
0600806000
0600806000
0600404000
060040c000
0600208000
0600318000
0600130000
06000a0000
0600060000
06000f0000
06001b8000
060060e000
0600c07800
0603001e00
061c000800
0420000000
0000000000
0000000000
0000000000
ENDCHAR
STARTCHAR 237c
ENCODING 9084
SWIDTH 1020 0
DWIDTH 34 0
BBX 34 35 0 -4
BITMAP
0000000020
0000000000
0400100000
07801c0000
0600180000
0600181800
0600187c00
06001bc000
06801e0000
264ff80000
2660180000
2620180000
2628183000
6607181c00
e604181000
0604181000
0604181000
0604181000
0604181000
0604181000
0604181000
0607fff000
0604181000
0604181400
0600180400
0600180400
0600180400
0600180400
0600180600
06000fff00
060007fc00
0400000000
0000000000
0000000000
0000000000
ENDCHAR
STARTCHAR 237d
ENCODING 9085
SWIDTH 1020 0
DWIDTH 34 0
BBX 34 35 0 -4
BITMAP
0000000020
0000000000
0400080000
07800e0000
06000c0000
06000c0000
06000c0000
06000c0000
26840c0800
2647fffe00
26240c0c00
26340c0c00
26340c0c00
66040c0c00
e6040c0c00
06040c0c00
06040c0c00
06040c0c00
06040c0c00
06040c0c00
0607fffc00
06040c0c00
06000c0000
06000c0000
06000c0000
06000c0000
06000c0000
06000c0000
06000c0000
06000c0000
06000c0000
0400080000
0000000000
0000000000
0000000000
ENDCHAR
STARTCHAR 237e
ENCODING 9086
SWIDTH 1020 0
DWIDTH 34 0
BBX 34 35 0 -4
BITMAP
0000000020
0000000000
0400800000
0780e00000
0200800000
0201800000
0201001000
0201001800
1283fffc00
12420c0000
12260c0000
32240c0000
222c0c0000
22080c0000
62100c0000
42000c0000
02000c0800
02200c0e00
021ffffe00
02000c0000
02000c0000
02000c0000
02000c0000
02000c0000
02000c0000
02000c0000
02000c0000
02000c0000
06000c0000
06000c0000
06000c0000
0600080000
0000000000
0000000000
0000000000
ENDCHAR
STARTCHAR 2421
ENCODING 9249
SWIDTH 1020 0
DWIDTH 34 0
BBX 34 35 0 -4
BITMAP
0000000020
0000000000
0400000000
0700008000
063fffc000
060301c000
0603018000
0603010000
2683010000
26c3010000
2663030000
2663030000
2623020800
6603fffc00
c603001c00
0603001000
0603803000
0602803000
0602806000
0606406000
060660c000
0604208000
0604318000
0608190000
06080e0000
0618060000
06101b8000
062031e000
0660c07c00
06c3001f00
068c000400
0410000000
0000000000
0000000000
0000000000
ENDCHAR
STARTCHAR 2422
ENCODING 9250
SWIDTH 1020 0
DWIDTH 34 0
BBX 34 35 0 -4
BITMAP
0000000020
0000000000
0400800000
0780f00000
0600e00000
0600c00000
0600800000
0601800000
0681800c00
2641fffe00
2663001800
2622201000
26261c3000
2624186000
6608180000
4618180000
0600180000
0600180000
0600180000
0600340000
0600340000
0600220000
0600220000
0600630000
0600c18000
0600c08000
060180e000
0603007000
0606003c00
0608001e00
0630000800
0440000000
0000000000
0000000000
0000000000
ENDCHAR
STARTCHAR 2423
ENCODING 9251
SWIDTH 1020 0
DWIDTH 34 0
BBX 34 35 0 -4
BITMAP
0000000020
0000000000
0400000000
0780007000
060003f800
06047e0000
0607860000
0686060000
0686060000
1646060000
1666060000
2626060000
2636060000
2626060800
6606021c00
4607fffe00
0606020000
0606020000
0606030000
0606030000
0606010000
0606010000
0606018000
0606018000
060600c200
060604c200
06061c6200
0606f07400
0607803c00
067e001c00
0630000e00
0420000000
0000000000
0000000000
0000000000
ENDCHAR
STARTCHAR 2424
ENCODING 9252
SWIDTH 1020 0
DWIDTH 34 0
BBX 34 35 0 -4
BITMAP
0000000020
0000000000
0400000000
078000c000
060000e000
0608008800
060e008e00
060c018c00
268d018c00
264c818c00
266cc10c00
262c430c00
262c230c00
660c320c00
660c1a0c00
460c0e0c00
060c040c00
060c0e0c00
060c0a0c00
060c1b0c00
060c110c00
060c318c00
060c208c00
060c40cc00
060c804c00
060d006c00
060f000c00
060c000c00
060c000c00
060ffffc00
060c000800
0408000000
0000000000
0000000000
0000000000
ENDCHAR
STARTCHAR 2425
ENCODING 9253
SWIDTH 1020 0
DWIDTH 34 0
BBX 34 35 0 -4
BITMAP
0000000020
0000000000
0400001000
0780003800
060001e400
06031f0000
0603e00000
0603000000
2683000000
2643000000
2623000000
2633000800
2631000c00
6613ffff00
4603008000
c603008000
0603008000
0603008000
0603008000
0603008000
0602008000
0602008000
0602008000
0606008000
0606008000
0604008000
060c008000
0608008000
0618008000
0610008000
0620008000
0440008000
0000000000
0000000000
0000000000
ENDCHAR
STARTCHAR 2426
ENCODING 9254
SWIDTH 1020 0
DWIDTH 34 0
BBX 34 35 0 -4
BITMAP
0000000020
0000000000
0600000000
0780000800
0610001e00
060ffffe00
06000c0000
06000c0000
26c0180000
2640100000
26203c0000
2620390000
2620798000
6600d84000
c600986000
0601183000
0602181800
0606180c00
060c180c00
0610180600
0620180200
0600180000
0600180000
0600180000
0600180000
0600180000
0600180000
0600180000
0600180000
0600180000
0600180000
0400000000
0000000000
0000000000
0000000000
ENDCHAR
STARTCHAR 2427
ENCODING 9255
SWIDTH 1020 0
DWIDTH 34 0
BBX 34 35 0 -4
BITMAP
0000000020
0000000000
0400100000
07803c0000
0200380000
0200280000
0200640000
0200460000
1280c30000
1241818000
122100c000
3223006000
2226023000
220dff9d00
6218000e00
4230000000
0220000000
0200000000
0200006000
020ffff000
0200006000
020000c000
020000c000
0200008000
0200018000
0200010000
0200030000
0200020000
0600060000
0600040000
06000c0000
0600000000
0000000000
0000000000
0000000000
ENDCHAR
STARTCHAR 2428
ENCODING 9256
SWIDTH 1020 0
DWIDTH 34 0
BBX 34 35 0 -4
BITMAP
0000000020
0000000000
0008000000
001e000000
00f0400800
17807ffc00
1800601800
1800601800
1800601800
1804601800
1806601800
1fff601800
1804601800
1804601800
1804601800
10047ff800
1004601800
1004600800
1ffc600000
1004600000
1004600000
1000600000
1000600000
1000600000
1000600400
3000600400
3000600400
2000600400
2000600e00
60003ffe00
40000ff000
4000000000
0000000000
0000000000
0000000000
ENDCHAR
STARTCHAR 2429
ENCODING 9257
SWIDTH 1020 0
DWIDTH 34 0
BBX 34 35 0 -4
BITMAP
0000000020
0000000000
0200000000
0380c00000
0300200000
0300300000
0300180000
03000c0000
0340040800
4378000e00
7ff7fffe00
0300080000
0300080000
0300080000
0300080000
03080c0000
03300b0000
03c008c000
1f00086000
7f00083800
6300081800
2300080800
0300080000
0300080000
0300080000
0300080000
0300080000
0300080000
0300080000
7e00080000
0e00080000
0800080000
0000000000
0000000000
0000000000
ENDCHAR
STARTCHAR 242a
ENCODING 9258
SWIDTH 1020 0
DWIDTH 34 0
BBX 34 35 0 -4
BITMAP
0000000020
0000000000
0200100000
03801e0000
0300080000
0300080000
0300080000
0300080000
0322080000
4372080c00
3ff3fffe00
0306081800
0304183000
030c182000
030c1c4000
03001f0000
03301e0000
03c0160000
0380160000
0f00160000
7f00360000
6300260000
2300660200
0300460200
0300c60200
0301860400
0301060400
0302060400
0304060600
3e1803ff00
0e6001fc00
0400000000
0000000000
0000000000
0000000000
ENDCHAR
STARTCHAR 242b
ENCODING 9259
SWIDTH 1020 0
DWIDTH 34 0
BBX 34 35 0 -4
BITMAP
0000000020
0000000000
0200000000
03c0000000
0300001000
0302003800
0301fff800
0300000000
0330000000
7ff8000000
0300000000
0300000000
0300000000
0300000c00
0304001e00
0307fffe00
03180c0000
0370180000
03c0180000
0f00180000
7f00100000
6300308000
2300204000
0300202000
0300401000
0300401800
0300401c00
030087ec00
030ffe0600
3f07c00600
0604000400
0400000000
0000000000
0000000000
0000000000
ENDCHAR
STARTCHAR 242c
ENCODING 9260
SWIDTH 1020 0
DWIDTH 34 0
BBX 34 35 0 -4
BITMAP
0000000020
0000000000
0200000000
03c0002000
0300007000
0303fff800
0300000000
0300000000
0360000000
7ff8000000
0300000000
0300000800
0308001e00
0307fffe00
0300430000
0300430000
0330430000
03c0430000
0380430000
1f00c30000
7b00c30000
6300c30000
2300830000
0300830400
0301830400
0301030400
0303030400
0302030400
0304030600
3f0801ff00
0e30007800
0420000000
0000000000
0000000000
0000000000
ENDCHAR
STARTCHAR 242d
ENCODING 9261
SWIDTH 1020 0
DWIDTH 34 0
BBX 34 35 0 -4
BITMAP
0000000020
0000000000
0400000000
0780000000
0600000800
0610001e00
061ffffe00
06000c0000
0620180000
4670180000
7ff03c0000
0600380000
0600790000
0600588000
0610d84000
0631982000
06c3181000
0782181800
0e04180c00
7e18180600
7630180600
4620180000
0600180000
0600180000
0600180000
0600180000
0600180000
0600180000
0600180000
7e00180000
0c00180000
0000100000
0000000000
0000000000
0000000000
ENDCHAR
STARTCHAR 242e
ENCODING 9262
SWIDTH 1020 0
DWIDTH 34 0
BBX 34 35 0 -4
BITMAP
0000000020
0000000000
0200000000
0380000000
0202000800
0203fffe00
0202000c00
0202000c00
0232000c00
7ffa000c00
0202000c00
0202000c00
0202000c00
0202000c00
020a000c00
0232000c00
0243fffc00
0382000c00
0e02000c00
7e02000c00
7202000c00
2202000c00
0202000c00
0202000c00
0202000c00
0202000c00
0202000c00
0202000c00
0203fffc00
7e02000c00
0e02000800
0800000000
0000000000
0000000000
0000000000
ENDCHAR
STARTCHAR 242f
ENCODING 9263
SWIDTH 1020 0
DWIDTH 34 0
BBX 34 35 0 -4
BITMAP
0000000020
0000000000
0400000000
0380008000
031fff8000
030181c000
0301810000
0301810000
0331830000
7ff9830000
0301830000
0301830800
0301c3fc00
0301c61c00
0301401000
0309603000
0331203000
03c3202000
0783106000
3f02104000
7b0218c000
2306088000
0304058000
0304070000
030c070000
03080d8000
031019c000
031030e000
0320407c00
3e41801f00
064e000c00
0000000000
0000000000
0000000000
0000000000
ENDCHAR
STARTCHAR 2430
ENCODING 9264
SWIDTH 1020 0
DWIDTH 34 0
BBX 34 35 0 -4
BITMAP
0000000020
0000000000
0400400000
0380700000
0200400000
0200c00000
0200c00000
0200c00000
0220800800
4278fffe00
7ff1801800
0201081000
02010e3000
02030c2000
020a0c4000
02340c4000
02c40c0000
03800c0000
0e001a0000
7e001a0000
72001a0000
2200130000
0200310000
0200218000
0200608000
020040c000
0200c06000
0201807000
0603003c00
7e06001e00
0e08000800
0010000000
0000000000
0000000000
0000000000
ENDCHAR
STARTCHAR 2431
ENCODING 9265
SWIDTH 1020 0
DWIDTH 34 0
BBX 34 35 0 -4
BITMAP
0000000020
0000000000
0400000000
0380007000
030007f800
0302fe0000
0303060000
0302060000
0332060000
7ffa060000
0302060000
0302060000
0302020000
0302020800
0302021c00
030bfffe00
0332020000
03c2030000
0782030000
3f02030000
7b02010000
2302018000
0302018000
0302018000
030200c200
030202c200
03021c6200
0302f06400
030fc03c00
3e1e001c00
0608000e00
0000000000
0000000000
0000000000
0000000000
ENDCHAR
STARTCHAR 2432
ENCODING 9266
SWIDTH 1020 0
DWIDTH 34 0
BBX 34 35 0 -4
BITMAP
0000000020
0000000000
0200100000
03801d0000
0300188000
0300186000
0300183000
0300083000
0330080400
7ff8080e00
0307ffff00
0300180000
0300180000
03001c0000
03001f0000
03081e0000
0330160000
03c0160000
0780160000
3f00360000
7b00360000
2300260000
0300660400
0300460400
0300460400
0300c60400
0301860400
0301060400
0302060600
3e0407fe00
063803fc00
0020000000
0000000000
0000000000
0000000000
ENDCHAR
STARTCHAR 2433
ENCODING 9267
SWIDTH 1020 0
DWIDTH 34 0
BBX 34 35 0 -4
BITMAP
0000000020
0000000000
0200100000
03c01c0000
03001c0000
0300100000
0300300000
0300308000
0320204000
3ff8602000
0300401000
0300803800
0300bfcc00
031ffb0c00
030c630400
0318630000
0360630000
0380630000
1f00430000
7b00430000
6300430000
2300430000
0300c30000
0300830400
0301830400
0301030400
0303030400
0302030400
0304030600
3f0801fe00
067000f800
0000000000
0000000000
0000000000
0000000000
ENDCHAR
STARTCHAR 2434
ENCODING 9268
SWIDTH 1020 0
DWIDTH 34 0
BBX 34 35 0 -4
BITMAP
0000000020
0000000000
0200000000
03c1000c00
0301fffe00
0301800c00
0301800800
0301800800
0331800800
7ffd800800
0301800800
0301800800
0301fff800
0301800800
0301800800
0309800800
0331800800
03c1800800
0781800800
3f01fff800
7b01000800
2301000800
0301000800
0303000800
0303000800
0302000800
0306000800
0304000800
030c020800
3f0801f800
0610003800
0420000000
0000000000
0000000000
0000000000
ENDCHAR
STARTCHAR 2435
ENCODING 9269
SWIDTH 1020 0
DWIDTH 34 0
BBX 34 35 0 -4
BITMAP
0000000020
0000000000
0400002000
0380007800
020001e000
02000f0000
0201fc0000
02060c0000
02600c0000
7ff80c0000
02000c0000
0200080000
0200080800
0200081c00
020ffffe00
02100c0000
02301c0000
02c01a0000
0700120000
3e00120000
7200310000
2200310000
0200218000
0200408000
0200c0c000
0200806000
0201807000
0203003800
0206001c00
7e08000f00
0e30000400
0840000000
0000000000
0000000000
0000000000
ENDCHAR
STARTCHAR 2436
ENCODING 9270
SWIDTH 1020 0
DWIDTH 34 0
BBX 34 35 0 -4
BITMAP
0000000020
0000000000
0400100000
07001c0000
0600180000
0600183000
060018fc00
06001f8000
06c07c0000
ffff980000
0600180000
0600180000
0608183000
0607183800
0604183000
0624183000
0644183000
0784183000
0f04183000
fe04183000
7604183000
4607fff000
0604183000
0604180400
0600180400
0600180400
0600180400
0600180400
0600180400
7c000ffe00
1c0007fc00
0800000000
0000000000
0000000000
0000000000
ENDCHAR
STARTCHAR 2437
ENCODING 9271
SWIDTH 1020 0
DWIDTH 34 0
BBX 34 35 0 -4
BITMAP
0000000020
0000000000
0400100000
07801c0000
0600180000
0600340000
0600360000
0600620000
0660410000
7ff0c18000
060080c000
0601006000
0603013800
060683de00
062cff8f00
0658000000
0790000000
0700000000
1e00002000
fe0ffff000
6600007000
4600006000
060000c000
060000c000
0600008000
0600018000
0600010000
0600030000
0600020000
7e00060000
0c000c0000
0000000000
0000000000
0000000000
0000000000
ENDCHAR
STARTCHAR 2438
ENCODING 9272
SWIDTH 1020 0
DWIDTH 34 0
BBX 34 35 0 -4
BITMAP
0000000020
0000000000
0400100000
07801c0000
0600180000
0600340000
0600260000
0600620000
0660c10000
fff0818000
060180c000
0603006000
0606003800
060d811e00
0618c1cf00
0600810000
0660810000
0780810000
0f00810000
fe00810000
7600810000
4601810000
0601810000
0601810000
0601010000
0603010000
0603010000
0606010000
0604010000
7e08010000
0c10010000
0020000000
0000000000
0000000000
0000000000
ENDCHAR
STARTCHAR 2439
ENCODING 9273
SWIDTH 1020 0
DWIDTH 34 0
BBX 34 35 0 -4
BITMAP
0000000020
0000000000
0000001000
0000001800
4047fffc00
20600c0000
3fe00c0000
20400c0000
20400c0000
20400c0000
20400c0000
20400c0000
20400c0000
20400c0c00
20480c0e00
3fcfffff00
20400c0000
20400c0000
20400c0000
20400c0000
20400c0000
20400c0000
20400c0000
20400c0000
3fc00c0000
20400c0000
20400c0000
20000c0000
00000c0000
00000c0000
00000c0000
0000080000
0000000000
0000000000
0000000000
ENDCHAR
STARTCHAR 243a
ENCODING 9274
SWIDTH 1020 0
DWIDTH 34 0
BBX 34 35 0 -4
BITMAP
0000000020
0000000000
0000000000
0000002000
4048007000
2067fff800
3fe0040000
2040040000
2040040000
2040040000
2040040000
2040040000
2040040000
2040040c00
2050040e00
3fcfffff00
2040040000
2040040000
2040040000
2040040000
2040040000
2040040000
2040040000
2040040000
3fc0040000
2040040000
2000040000
0000040000
0000040000
0000fc0000
00001c0000
0000000000
0000000000
0000000000
0000000000
ENDCHAR
STARTCHAR 243b
ENCODING 9275
SWIDTH 1020 0
DWIDTH 34 0
BBX 34 35 0 -4
BITMAP
0000000020
0000000000
0001000000
0000e00000
0001800000
4041800000
3fe1800000
20c1000c00
20c3fffe00
20c3000c00
20c6000c00
20c6000c00
20c4000c00
20c8000c00
20c8000c00
3fd0000800
20c0030800
20c7ff8800
20c0000800
20c0000800
20c0000800
20c0001800
20c0001800
20c0001800
3fc0001800
20c0001800
2040001000
0000003000
0000103000
00000fe000
000001c000
0000000000
0000000000
0000000000
0000000000
ENDCHAR
STARTCHAR 243c
ENCODING 9276
SWIDTH 1020 0
DWIDTH 34 0
BBX 34 35 0 -4
BITMAP
0000000020
0000000000
0000000000
0400006000
07fffff000
0600006000
0600006000
0600006000
0600006000
07ffffe000
0600006000
0600006000
0600006000
0600006000
07ffffe000
0602006000
0401c00000
0001000000
0001000800
4003001e00
7ffffffe00
0003800000
0006400000
0006600000
000c300000
0018180000
00300e0000
00e0038000
018001f000
0600007e00
3800001800
4000000000
0000000000
0000000000
0000000000
ENDCHAR
STARTCHAR 243d
ENCODING 9277
SWIDTH 1020 0
DWIDTH 34 0
BBX 34 35 0 -4
BITMAP
0000000020
0000000000
0000000000
0400002000
07fffff000
0600002000
0600002000
0600002000
0600002000
07ffffe000
0600002000
0600002000
0600002000
0600002000
07ffffe000
0600002000
0201000000
0001c00000
1001801000
1c01801e00
1801801800
1801801800
1801801800
1801801800
1801801800
1801801800
1801801800
1801801800
1801801800
1ffffff800
1800001800
1000001000
0000000000
0000000000
0000000000
ENDCHAR
STARTCHAR 243e
ENCODING 9278
SWIDTH 1020 0
DWIDTH 34 0
BBX 34 35 0 -4
BITMAP
0000000020
0000000000
0200000000
0380001000
0304003c00
0303fffc00
0300040000
0300040000
0320040000
4338040000
7ff8040000
0300040000
0700040000
0700040c00
07c8040e00
0f6fffff00
0f30040000
0b30040000
1b00040000
1300040000
3300040000
2300040000
4300040000
4300040000
0300040000
0300040000
0300040000
0300040000
0300040000
0300fc0000
03001c0000
0200000000
0000000000
0000000000
0000000000
ENDCHAR
STARTCHAR 243f
ENCODING 9279
SWIDTH 1020 0
DWIDTH 34 0
BBX 34 35 0 -4
BITMAP
0000000020
0000000000
0300000000
03c0001000
0104003800
0103fffc00
0100000000
0110000000
0118000000
7ffc000000
0300000c00
0308001e00
070ffffe00
0780600000
0560c00000
0d30c00000
0d31801000
0911801800
1901fffc00
1103003000
3100003000
2100003000
4100003000
8100002000
0100002000
0100006000
0100006000
0300006000
030070c000
03001f8000
0300030000
0100000000
0000000000
0000000000
0000000000
ENDCHAR
STARTCHAR 2440
ENCODING 9280
SWIDTH 1020 0
DWIDTH 34 0
BBX 34 35 0 -4
BITMAP
0000000020
0000000000
0300200000
03c0180000
0100130000
010010c000
0100106000
0100182000
0110180000
4138180000
7ffc181800
0300183e00
031fffc000
0700180000
0780180000
0560080000
0d20080000
0930080000
19100c0000
11000c0000
21000c0000
4100040000
8100060000
0100020200
0100030200
0100018400
0100018400
010000c400
0300006c00
0300003c00
0300000c00
0100000000
0000000000
0000000000
0000000000
ENDCHAR
STARTCHAR 2441
ENCODING 9281
SWIDTH 1020 0
DWIDTH 34 0
BBX 34 35 0 -4
BITMAP
0000000020
0000000000
0200000000
03c00e0000
01000c0000
01000c0000
01000c0000
01000c0000
01100c0000
41380c0000
7ffc0c0800
03080c1e00
0307fffe00
07000c0000
07801c0000
05601a0000
0d201a0000
0930120000
1910130000
1100310000
2100210000
4100618000
8100608000
010040c000
0100c04000
0101806000
0101003000
0303003800
0306001c00
030c000e00
0310000400
0000000000
0000000000
0000000000
0000000000
ENDCHAR
STARTCHAR 2442
ENCODING 9282
SWIDTH 1020 0
DWIDTH 34 0
BBX 34 35 0 -4
BITMAP
0000000020
0000000000
0200000000
0380000800
0300001c00
031ffffe00
0300410000
0300410000
0330410000
7ffc410000
0700410000
0700410000
0700410000
0700410000
0fc0410000
0f60410000
0b60410000
1b30c10000
1300c10000
1300c10000
2300810000
2300810000
4300810000
8301810200
0301010200
0303010400
0302010400
0306010400
030c010e00
031801fe00
0330000000
0200000000
0000000000
0000000000
0000000000
ENDCHAR
STARTCHAR 2443
ENCODING 9283
SWIDTH 1020 0
DWIDTH 34 0
BBX 34 35 0 -4
BITMAP
0000000020
0000000000
0200000000
0380000000
0300001800
0307fffc00
0300801800
0300801800
0321981800
4371441000
7ffb463000
0706433000
0706403000
0700203000
0780206000
0f40206000
0b60106000
1b3010c000
133018c000
1300098000
23000d8000
4300070000
c300060000
0300070000
03000d8000
030038c000
0300606000
0300c07800
0301801e00
030e000f00
0338000400
0200000000
0000000000
0000000000
0000000000
ENDCHAR
STARTCHAR 2444
ENCODING 9284
SWIDTH 1020 0
DWIDTH 34 0
BBX 34 35 0 -4
BITMAP
0000000020
0000000000
0200080000
0380070000
0302040000
0301c40000
0301040000
0301040000
0321040000
4371041c00
7ff9047c00
07010f9800
0701f41800
073f041800
0f91041800
0fc1041800
0b61041800
1b61041800
1331041800
1321041000
2301041000
4301063000
c30105f000
0301046400
03010c0400
0301040400
0301000400
0301000400
0301000400
0301fffe00
03007ff800
0200000000
0000000000
0000000000
0000000000
ENDCHAR
STARTCHAR 2445
ENCODING 9285
SWIDTH 1020 0
DWIDTH 34 0
BBX 34 35 0 -4
BITMAP
0000000020
0000000000
0200000000
0380001000
0302001800
0303fffc00
0300002000
0300004000
0320008000
4338010000
7ff80a0000
07000e0000
07000c0000
07000c0000
0f800c0800
0fc00c0e00
0b6fffff00
1b300c0000
13300c0000
33000c0000
23000c0000
43000c0000
83000c0000
03000c0000
03000c0000
03000c0000
03000c0000
03000c0000
03010c0000
0300fc0000
0200180000
0200000000
0000000000
0000000000
0000000000
ENDCHAR
STARTCHAR 2446
ENCODING 9286
SWIDTH 1020 0
DWIDTH 34 0
BBX 34 35 0 -4
BITMAP
0000000020
0000000000
0200000000
03c0600000
0100700000
0100400000
0100c01000
0100801c00
0111fffe00
4139000000
7fff000000
0302000000
0304000000
0708008000
078100c000
0560ffe000
0d20018000
0930030000
1910060000
11000c0000
2100080000
6100100000
4100300600
0100600400
0100c00400
0100800400
0101800400
0103000400
0303000700
0301fffe00
03007ff000
0100000000
0000000000
0000000000
0000000000
ENDCHAR
STARTCHAR 2447
ENCODING 9287
SWIDTH 1020 0
DWIDTH 34 0
BBX 34 35 0 -4
BITMAP
0000000020
0000000000
0200000000
03c1004000
0101ffe000
010180c000
010180c000
010180c000
011180c000
413980c000
7ffd80c000
030180c000
0301a0c000
070190c000
078188c000
05618cc000
0d218cc000
093186c000
191184c000
110100c000
210100c000
410100c000
810100c000
010300c200
010200c200
010200c200
010400c600
010c00c600
030800c600
031000ff00
0320007c00
0100000000
0000000000
0000000000
0000000000
ENDCHAR
STARTCHAR 2448
ENCODING 9288
SWIDTH 1020 0
DWIDTH 34 0
BBX 34 35 0 -4
BITMAP
0000000020
0000000000
0001000000
0001c00000
0001000800
4001001c00
3ffffffe00
0001000000
0001000000
0001004000
080100e000
07fffff000
0000000000
0100004000
03ffffe000
0301806000
0301804000
0301004000
030100c800
030100cc00
7ffffffe00
060300c000
060300c000
060300c000
040300c000
0c02009800
0ffffffe00
0800018000
1800018000
0000630000
00001f0000
00000c0000
0000000000
0000000000
0000000000
ENDCHAR
STARTCHAR 2449
ENCODING 9289
SWIDTH 1020 0
DWIDTH 34 0
BBX 34 35 0 -4
BITMAP
0000000020
0000000000
00c0000000
00e0000000
00c0004000
018000f000
03fffff000
0300000000
0600060000
0c80070000
08ffff0000
1000000000
2000010000
500001c000
0fffffc000
0000018000
001c018000
000e018000
1008018000
0e081d8000
0808188000
0808188000
0808188000
080818c200
080818c200
0808184200
0808186200
0808183400
0ffff83c00
0800181e00
0800100e00
0000000000
0000000000
0000000000
0000000000
ENDCHAR
STARTCHAR 244a
ENCODING 9290
SWIDTH 1020 0
DWIDTH 34 0
BBX 34 35 0 -4
BITMAP
0000000020
0000000000
00c0000000
00e0000000
00c0006000
01fffff000
0300000000
0300000000
0600060000
0cffff8000
0800000000
1000000000
2000008000
500001c000
0fffffe000
0000018000
0400218000
038e3d8000
020c308000
0208308000
0208308000
0208308000
020830c200
020830c200
0208304200
0608306200
0608302200
0408303400
0c08301c00
0808301e00
1000300600
0000200000
0000000000
0000000000
0000000000
ENDCHAR
STARTCHAR 244b
ENCODING 9291
SWIDTH 1020 0
DWIDTH 34 0
BBX 34 35 0 -4
BITMAP
0000000020
0000000000
0000180000
18001e0000
0c00180000
0700180000
0300180400
0100180e00
001fffff00
0000c00000
0040c00000
4080c00000
3080c00000
1880c01000
0d00c01800
0100fffc00
0100c01000
0200c01000
0200801000
0600803000
0401803000
0401803000
0c01003000
7c01003000
0802003000
0806002000
0c04002000
0c08006000
0c10006000
0c203fc000
0c4003c000
0400000000
0000000000
0000000000
0000000000
ENDCHAR
STARTCHAR 244c
ENCODING 9292
SWIDTH 1020 0
DWIDTH 34 0
BBX 34 35 0 -4
BITMAP
0000000020
0000000000
0000000000
1800401800
0c1ffffc00
070100c000
030100c000
000100c000
004100c000
004100c000
008100c000
408100c000
308100c000
190108c000
0d0130c000
0101c0c400
020f20ce00
027d3fff00
023300c000
062300c000
040200c000
040200c000
0c0200c000
780600c000
080400c000
080c00c000
0c0800c000
0c1800c000
0c1000c000
0c2000c000
0c40008000
0440000000
0000000000
0000000000
0000000000
ENDCHAR
STARTCHAR 244d
ENCODING 9293
SWIDTH 1020 0
DWIDTH 34 0
BBX 34 35 0 -4
BITMAP
0000000020
0000000000
0001010000
1801e1e000
0c00818000
0700818000
0300818000
0000818000
0000819800
007ffffe00
0080818000
6080818000
1880818000
1d00818000
0900818000
0100818000
0200818000
0200818000
0201818400
0441818f00
047ffffe00
0c01818000
0c01018000
7803018000
0803018000
0802018000
0c06018000
0c04018000
0c0c018000
0c10018000
0c20018000
0020010000
0000000000
0000000000
0000000000
ENDCHAR
STARTCHAR 244e
ENCODING 9294
SWIDTH 1020 0
DWIDTH 34 0
BBX 34 35 0 -4
BITMAP
0000000020
0000000000
0000000000
1800000000
0c00003000
070ffff800
0300000000
0100000000
0000000000
0040000000
0040000000
4080000000
3080000800
18a0000e00
0d1ffffe00
0100300000
0100300000
0200200000
0200600000
0200600000
0400408000
0400404000
0c00c06000
7c00802000
0800801000
0801001800
0c01007c00
0c013f8c00
0c3ff80600
0c1e000600
0c10000400
0000000000
0000000000
0000000000
0000000000
ENDCHAR
STARTCHAR 244f
ENCODING 9295
SWIDTH 1020 0
DWIDTH 34 0
BBX 34 35 0 -4
BITMAP
0000000020
0000000000
0000400000
1800320000
0c00218000
070020c000
0300206000
0000202000
0040200800
0060200e00
005ffffe00
6080200000
3080200000
1c80380000
0d006c0000
0100680000
0100680000
0200480000
0200480000
0600480000
0400c80000
0400c80000
0c00880400
7c01880400
0c01080400
0c03080400
0c06080400
0c04080400
0c08080c00
0c100ffe00
046003fc00
0000000000
0000000000
0000000000
0000000000
ENDCHAR
STARTCHAR 2450
ENCODING 9296
SWIDTH 1020 0
DWIDTH 34 0
BBX 34 35 0 -4
BITMAP
0000000020
0000000000
0000000000
181c000800
0c083ffe00
0608020c00
0208020c00
0008020c00
0088020c00
0088020800
0088620800
6108f20800
310f820800
1978060800
0d08060800
0208060800
0208060800
0208040800
0408440800
0408440800
0c084c1800
0c084c1800
0808481800
7808c81800
180ff81800
0807901000
0800101000
0800203000
0c00643000
0c0043e000
0c0080c000
0001000000
0000000000
0000000000
0000000000
ENDCHAR
STARTCHAR 2451
ENCODING 9297
SWIDTH 1020 0
DWIDTH 34 0
BBX 34 35 0 -4
BITMAP
0000000020
0000000000
0000200000
1800380000
0c00320000
0700318000
030030c000
0000306000
0040302000
0040300000
0040301800
609ffffe00
3080300000
1880380000
0d00280000
0100280000
0100280000
0200640000
0200640000
0600660000
0400420000
0400c30000
0c00c10000
7c00818000
080180c000
080300c000
0c02006000
0c04003000
0c0c001c00
0c10000e00
0c60000400
0080000000
0000000000
0000000000
0000000000
ENDCHAR
STARTCHAR 2452
ENCODING 9298
SWIDTH 1020 0
DWIDTH 34 0
BBX 34 35 0 -4
BITMAP
0000000020
0000000000
0000200000
1800380000
0c00200000
0700200000
0300200000
0100600c00
001fffff00
0040600000
0040400000
4080400000
3080400000
1880c38000
0d00838000
0100830000
0100820000
0201060000
0201060000
0203040000
04020c0000
04020c0000
0c04084000
7c04182000
0808101000
0818301800
0c10200c00
0c2041fc00
0c00ff0600
0c03f00600
0c01000400
0400000000
0000000000
0000000000
0000000000
ENDCHAR
STARTCHAR 2453
ENCODING 9299
SWIDTH 1020 0
DWIDTH 34 0
BBX 34 35 0 -4
BITMAP
0000000020
0000000000
0000000000
1040000800
0c20000c00
063ffffc00
0320000800
0120000800
0020000800
0020000800
0020000800
40a0000800
30a0000800
1920000800
0d20000800
0920000800
023ffff800
0220000800
0620000800
0420000800
0420000800
0c20000800
0820000800
7820000800
1820000800
0820000800
0820000800
083ffff800
0820000800
0c20000800
0c20000800
0000000000
0000000000
0000000000
0000000000
ENDCHAR
STARTCHAR 2454
ENCODING 9300
SWIDTH 1020 0
DWIDTH 34 0
BBX 34 35 0 -4
BITMAP
0000000020
0000000000
0000000000
10000c0000
0c000f0000
07000c0000
03000c0000
00000c0000
00000c0000
00000c0000
00440c0000
40878c0000
30820c0000
18820c1000
0d020c1c00
09020ffc00
01020c0000
03020c0000
02020c0000
02020c0000
06020c0000
04020c0000
04020c0000
4c020c0000
3c020c0000
0c020c0000
0c020c0000
0c020c0000
0c020c0c00
0cffffff00
0c00000000
0400000000
0000000000
0000000000
0000000000
ENDCHAR
STARTCHAR 2455
ENCODING 9301
SWIDTH 1020 0
DWIDTH 34 0
BBX 34 35 0 -4
BITMAP
0000000020
0000000000
0000000000
18000c0000
0c01fc0000
0700080000
0300080000
0010080800
0050080c00
005ffffe00
0058080c00
60980c0c00
30981c0c00
1d18140c00
0d18160c00
0118320c00
0218230c00
0218630c00
0218418c00
061880cc00
041980fc00
041a006c00
0c1c000c00
7818000c00
0818000c00
0818000c00
0c18000c00
0c18000c00
0c18018800
0c1800f800
0c18003800
0000000000
0000000000
0000000000
0000000000
ENDCHAR
STARTCHAR 2456
ENCODING 9302
SWIDTH 1020 0
DWIDTH 34 0
BBX 34 35 0 -4
BITMAP
0000000020
0000000000
0000200000
1800380000
0c00380000
0700200000
0300600000
0100608000
0000c04000
0040802000
0041801000
4081001800
30821fec00
18bffb0c00
0d18c30400
0110c30000
0100c30000
0200c30000
0200c30000
0200830000
0400830000
0400830000
0c00830000
7c01030000
0801030400
0803030400
0c02030400
0c04030400
0c08030600
0c1003ff00
0ce001fc00
0400000000
0000000000
0000000000
0000000000
ENDCHAR
STARTCHAR 2457
ENCODING 9303
SWIDTH 1020 0
DWIDTH 34 0
BBX 34 35 0 -4
BITMAP
0000000020
0000000000
0001000000
1801c00000
0c01000000
0703000000
0303000000
0002000c00
0007fffe00
0024318c00
0044218c00
4048610c00
3048610c00
1890430800
0ca0c20800
0100820800
0101860800
0101040800
0203040800
02020c0800
0604080800
040c181800
0418101800
7c30201800
0c20601800
0c00401800
0c00801000
0c01003000
0c02103000
0c041fe000
040801e000
0000010000
0000000000
0000000000
0000000000
ENDCHAR
STARTCHAR 2458
ENCODING 9304
SWIDTH 1020 0
DWIDTH 34 0
BBX 34 35 0 -4
BITMAP
0000000020
0000000000
0010000000
180e070000
0c0c070000
070c060000
030c060000
000c060000
004c060000
004c060000
004c060c00
608c060e00
308ffffe00
1d0c000000
0d0c000000
010c000000
020c000000
020c008000
020fffe000
060800c000
040800c000
040800c000
0c1800c000
7c1800c000
081000c000
0c1000c000
0c3000c000
0c2000c000
0c2000c000
0c4000c000
048000c000
0080000000
0000000000
0000000000
0000000000
ENDCHAR
STARTCHAR 2459
ENCODING 9305
SWIDTH 1020 0
DWIDTH 34 0
BBX 34 35 0 -4
BITMAP
0000000020
0000000000
0000002000
1800007800
0c0007ec00
0709fe0000
030f060000
0008060000
0048060000
0048060000
0048060000
6088060000
3088060000
1d08060800
0d08061e00
010ffffe00
0208060000
0208020000
0208030000
0608030000
0408030000
0408010000
0c08018000
7808018000
080800c200
080804c200
0c08186200
0c08e07200
0c0f803c00
0cfc001e00
0c60000e00
0040000000
0000000000
0000000000
0000000000
ENDCHAR
STARTCHAR 245a
ENCODING 9306
SWIDTH 1020 0
DWIDTH 34 0
BBX 34 35 0 -4
BITMAP
0000000020
0000000000
0000000000
1004001800
0c07fffc00
0606000000
0306000000
0106000000
0026000000
0046000000
4046001000
3047fff800
1884403800
0c84402000
0904406000
0104406000
0104204000
020420c000
020430c000
020c118000
040c198000
040c0b0000
4c080e0000
3808060000
08180e0000
08101b8000
0c1031c000
0c2060e000
0c20803c00
0c43001f00
0c8c000400
0410000000
0000000000
0000000000
0000000000
ENDCHAR
STARTCHAR 245b
ENCODING 9307
SWIDTH 1020 0
DWIDTH 34 0
BBX 34 35 0 -4
BITMAP
0000000020
0000000000
0000100000
18001c0000
0c00100000
0700100000
0300100000
0000101800
003ffffe00
0040100000
0040100000
6080100000
3080100000
1c80102000
0d20107000
011ffff000
0102006000
0202004000
020100c000
0601008000
0400818000
0400830000
0c00460000
7800240000
08003c0000
08001c0000
0c002e0000
0c00c38000
0c0300f000
0c0c003e00
0c70000c00
0080000000
0000000000
0000000000
0000000000
ENDCHAR
STARTCHAR 245c
ENCODING 9308
SWIDTH 1020 0
DWIDTH 34 0
BBX 34 35 0 -4
BITMAP
0000000020
0000000000
0001800000
1801c00000
0c01800000
0701000000
0303003000
0003fff800
0046080000
0044080000
004c080000
6088080000
3090080000
1d30080000
0d00080000
0100080000
0200080c00
0240080f00
023ffffe00
0600080000
0400080000
0400080000
0c00080000
7800080000
0800080000
0800080000
0c00080000
0c00080000
0c00080000
0c00080000
0c00080000
0000080000
0000000000
0000000000
0000000000
ENDCHAR
STARTCHAR 245d
ENCODING 9309
SWIDTH 1020 0
DWIDTH 34 0
BBX 34 35 0 -4
BITMAP
0000000020
0000000000
0002000000
1001ce0000
0c030c0000
0603080000
0303080000
0002080000
0086080000
00c4081000
008c081800
608e081e00
311c083000
191408e000
0d34098000
01240a0000
02440c0000
0284080000
0204080000
0604080000
0404080000
0404080000
0c04080400
7c04080400
0804080400
0c04080400
0c04080400
0c04080400
0c04080c00
0c040ffe00
0c0407f800
0004000000
0000000000
0000000000
0000000000
ENDCHAR
STARTCHAR 245e
ENCODING 9310
SWIDTH 1020 0
DWIDTH 34 0
BBX 34 35 0 -4
BITMAP
0000000020
0000000000
0200000000
0380000000
0300001000
0300003800
0307fffc00
03100c0000
03180c0000
133c0c0000
13600c0000
13800c0000
13000c0000
33000c0000
23000c0000
63000c0000
63000c0000
03000c0000
03000c0000
02000c0000
03000c0000
06c00c0000
06600c0000
04200c0000
04300c0000
0c100c0000
08000c0000
18000c0c00
10200c0f00
201ffffe00
4000000000
0000000000
0000000000
0000000000
0000000000
ENDCHAR
STARTCHAR 245f
ENCODING 9311
SWIDTH 1020 0
DWIDTH 34 0
BBX 34 35 0 -4
BITMAP
0000000020
0000000000
0400080000
0380070000
0300040000
0301c40000
0301040000
0321040000
0331040000
1369040c00
13c1047c00
13810f8800
1301f40800
331f041800
2211041800
6201041800
6201041800
0201041800
0201041800
0201041000
0701043000
06c105f000
0461046000
0461040400
0431040400
0831000400
0801000400
1801000400
1001bfee00
2000fffe00
4000000000
0000000000
0000000000
0000000000
0000000000
ENDCHAR
STARTCHAR 2460
ENCODING 9312
SWIDTH 1020 0
DWIDTH 34 0
BBX 34 35 0 -4
BITMAP
0000000020
0000000000
0100000000
01c0000000
0180000c00
198ffffe00
1d80180c00
1180180c00
1190180c00
31b8180c00
3ff8980c00
2180980c00
2180980800
4181980800
4181180800
0183100800
0196100800
01e0100800
0180300800
0f80200800
7d80201800
6180601800
2180401800
0180c01800
0180801800
0181801000
0183003000
0182003000
01840c7000
018803e000
019001c000
0100000000
0000000000
0000000000
0000000000
ENDCHAR
STARTCHAR 2461
ENCODING 9313
SWIDTH 1020 0
DWIDTH 34 0
BBX 34 35 0 -4
BITMAP
0000000020
0000000000
0040000000
1070800000
1060600000
08c0300000
0480300000
0300180000
0300100800
0d00000c00
311ffffe00
4080100000
0080100000
00c0100000
01c0100000
01c01c0000
0340130000
0640118000
0c4010e000
1840103000
3060101800
4040100c00
0040100800
0040100000
0040100000
0040100000
0040100000
00c0100000
00c0100000
3f80100000
0700100000
0000100000
0000000000
0000000000
0000000000
ENDCHAR
STARTCHAR 2462
ENCODING 9314
SWIDTH 1020 0
DWIDTH 34 0
BBX 34 35 0 -4
BITMAP
0000000020
0000000000
0040000000
1060001000
10f8003800
09c7fffc00
0d80010000
0701010000
0e03c10000
1a03010000
2103010000
4102010000
0082010000
0182010800
0186010e00
0387ffff00
06c4070000
04cc070000
0cc00d0000
18c00d0000
20c0190000
40c0310000
00c0210000
00c0610000
0080810000
0081010000
0086010000
018c010000
0190010000
3f003f0000
0700070000
0400040000
0000000000
0000000000
0000000000
ENDCHAR
STARTCHAR 2463
ENCODING 9315
SWIDTH 1020 0
DWIDTH 34 0
BBX 34 35 0 -4
BITMAP
0000000020
0000000000
0020000000
2070000000
10e0002000
09cffff800
0f80603000
0700602000
0e00602000
1a00402000
6300402000
0100402000
0100406000
0180c06000
0180c06000
0380c06c00
029ffffe00
0680804000
0c80804000
1880804000
3080804000
4081804000
8081804000
008180c000
008180c000
008100c000
018100c000
018100c000
0181008c00
3f7fffff00
0e00000000
0800000000
0000000000
0000000000
0000000000
ENDCHAR
STARTCHAR 2464
ENCODING 9316
SWIDTH 1020 0
DWIDTH 34 0
BBX 34 35 0 -4
BITMAP
0000000020
0000000000
0040080000
00700f0000
10600c0000
08c00c0000
05800c0000
05800c0000
03040c0800
07040c0c00
0d07fffe00
11060c0800
20860c0800
40860c0800
00860c0800
00860c0800
01c60c0800
01c60c0800
02460c0800
06460c0c00
0c47fffc00
18460c0800
60440c0000
40400c0000
00400c0000
00c00c0000
00c00c0000
00c00c0000
00c00c0000
3f800c0000
07000c0000
0000080000
0000000000
0000000000
0000000000
ENDCHAR
STARTCHAR 2465
ENCODING 9317
SWIDTH 1020 0
DWIDTH 34 0
BBX 34 35 0 -4
BITMAP
0000000020
0000000000
0040200000
20703c0000
10c0300000
09c0300000
0780600000
0600608000
0e00404000
1900c02000
6100801000
418100f800
0083ff0c00
019fc30c00
0188430400
03c0430000
02c0430000
06c0430000
0cc0430000
18c0c30000
20c0c30000
40c0c30000
00c0830000
00c1830400
0081830400
0081030400
0083030400
0186030400
0184030600
3f0803ff00
063000f800
0000000000
0000000000
0000000000
0000000000
ENDCHAR
STARTCHAR 2466
ENCODING 9318
SWIDTH 1020 0
DWIDTH 34 0
BBX 34 35 0 -4
BITMAP
0000000020
0000000000
0040200000
10701c0000
10f0100000
08c0100000
0580100800
0320101c00
061ffffe00
1900000000
3100000000
4080000000
0082000000
0081030000
01c1ff8000
0141830000
0241830000
0641830000
0c41030000
1841030000
2041030000
4041030000
00c1030000
00c1030400
00c3030400
00c3030400
00c2030400
0084030400
018c030600
3f9803ff00
072000fc00
0000000000
0000000000
0000000000
0000000000
ENDCHAR
STARTCHAR 2467
ENCODING 9319
SWIDTH 1020 0
DWIDTH 34 0
BBX 34 35 0 -4
BITMAP
0000000020
0000000000
0040000000
2070006000
10c001f800
09c00f8000
0781f80000
061e080000
0e00080000
1900080000
6100080000
4180080000
0080080000
0180080000
0180080800
03c0081c00
06dffffe00
04c0080000
08c0080000
18c0080000
20c0080000
40c0080000
00c0080000
00c0080000
0080080000
0080080000
0080080000
0180080800
0180081c00
3f1ffffe00
0600000000
0000000000
0000000000
0000000000
0000000000
ENDCHAR
STARTCHAR 2468
ENCODING 9320
SWIDTH 1020 0
DWIDTH 34 0
BBX 34 35 0 -4
BITMAP
0000000020
0000000000
0000000000
0000001800
0067fffc00
7ff00c0000
06000c0000
06000c0000
06000c0000
06000c0000
06000c0000
06000c0000
06400c0000
46e00c0800
7fe00c1c00
060ffffe00
06000c0000
06000c0000
06000c0000
06000c0000
06000c0000
06300c0000
06c00c0000
0f000c0000
fc000c0000
60000c0000
40000c0000
00000c0000
00000c0000
00000c0000
00000c0000
0000080000
0000000000
0000000000
0000000000
ENDCHAR
STARTCHAR 2469
ENCODING 9321
SWIDTH 1020 0
DWIDTH 34 0
BBX 34 35 0 -4
BITMAP
0000000020
0000000000
0000000000
0000003000
0064003800
7ffbfffc00
0200060000
0200060000
0200060000
0200060000
0200060000
0200060000
0240060000
4260060c00
3ff4060f00
0207fffe00
0200060000
0200060000
0200060000
0200060000
0200060000
0218060000
02e0060000
0780060000
7e00060000
7000060000
2000060000
0000060000
0000060000
0000fc0000
00001c0000
0000080000
0000000000
0000000000
0000000000
ENDCHAR
STARTCHAR 246a
ENCODING 9322
SWIDTH 1020 0
DWIDTH 34 0
BBX 34 35 0 -4
BITMAP
0000000020
0000000000
0000c00000
0020e00000
8070c00000
7ff8800000
0601800400
0601fffe00
0601000e00
0603000c00
0602000c00
0606000c00
0644000c00
46e8000c00
7fe0000c00
0600020c00
0600030c00
0607ff8c00
0600000c00
0600000c00
0600000800
0610000800
0660000800
0780000800
0700001800
3e00001800
7800001800
2000001000
0000103000
00000f7000
000001e000
0000008000
0000000000
0000000000
0000000000
ENDCHAR
STARTCHAR 246b
ENCODING 9323
SWIDTH 1020 0
DWIDTH 34 0
BBX 34 35 0 -4
BITMAP
0000000020
0000000000
0000000000
0023880e00
0033070c00
7ffb040800
0203040800
0203040800
0203040800
0203040800
0203040800
0203040800
0243040800
2273040800
3ff3040800
0203040800
0203040800
0203040800
0203040800
0203040800
0202040800
0212040800
02e2040800
0782040800
7e06040800
7804040800
2004040800
000c000800
0008000800
0010000800
0010000800
0020000000
0000000000
0000000000
0000000000
ENDCHAR
STARTCHAR 246c
ENCODING 9324
SWIDTH 1020 0
DWIDTH 34 0
BBX 34 35 0 -4
BITMAP
0000000020
0000000000
0000000000
0020001000
8030001800
7ffbfffc00
03000c0000
03000c0000
03000c0000
03000c0000
03000c0000
03000c0000
03000c0000
03000c0000
03200c0000
43380c0000
3ff80c0000
03000c0000
03000c0000
03000c0000
03000c0000
03000c0000
03000c0000
03080c0000
03180c0000
03e00c0000
07800c0000
7e000c0000
70000c0c00
207ffffe00
0000000000
0000000000
0000000000
0000000000
0000000000
ENDCHAR
STARTCHAR 246d
ENCODING 9325
SWIDTH 1020 0
DWIDTH 34 0
BBX 34 35 0 -4
BITMAP
0000000020
0000000000
0000000000
2008000400
3fff000e00
318cffff00
318c008000
318c008000
318c008000
318c008000
318c008000
318c008000
318c008000
3ffc008000
318c008000
318c008000
318c008000
318c008000
318c008000
318c008000
318c008000
318c008000
3ffc008000
300c008000
3008008000
2000008000
0000008000
0000008000
0000018000
00003f8000
0000078000
0000020000
0000000000
0000000000
0000000000
ENDCHAR
STARTCHAR 246e
ENCODING 9326
SWIDTH 1020 0
DWIDTH 34 0
BBX 34 35 0 -4
BITMAP
0000000020
0000000000
0003000000
0003c00000
0803004000
0ffffff000
0c03006000
0c03006000
0c03006000
0fffffe000
0c03006000
0c03006000
0c03006000
0c03006000
0fffffe000
0c00004000
0000000c00
7fffffff00
0180000000
0300000000
0300004000
030000e000
07ffffe000
060000c000
000000c000
000000c000
0000008000
0000018000
0001038000
0000ff0000
00001e0000
0000180000
0000000000
0000000000
0000000000
ENDCHAR
STARTCHAR 246f
ENCODING 9327
SWIDTH 1020 0
DWIDTH 34 0
BBX 34 35 0 -4
BITMAP
0000000020
0000000000
0000c00000
0000700000
0000400000
0200400c00
03fffffe00
0200000000
0200000000
4200000000
2200000000
3200000800
1280001c00
127ffffe00
0200180000
0200180000
0200180000
0200180000
0e00180000
fa00180000
6200180000
2600180000
0600180000
0400180000
0400180000
0400180000
0800180000
0800180000
1000180000
3007f80000
2000700000
0000400000
0000000000
0000000000
0000000000
ENDCHAR
STARTCHAR 2470
ENCODING 9328
SWIDTH 1020 0
DWIDTH 34 0
BBX 34 35 0 -4
BITMAP
0000000020
0000000000
0000800000
0000700000
0000400000
0400400800
0200400e00
03fffffe00
0200000000
420e000000
220c000000
3204000000
1204000000
1204006000
120400f000
0204038000
02041c0000
0204f00000
0e07000000
ba04000000
6204000000
2604000000
0604000000
0404000400
0404000400
0404000400
0c04000c00
0804000c00
1006001e00
3007fffc00
2000000000
0000000000
0000000000
0000000000
0000000000
ENDCHAR
STARTCHAR 2471
ENCODING 9329
SWIDTH 1020 0
DWIDTH 34 0
BBX 34 35 0 -4
BITMAP
0000000020
0000000000
0001000000
0003800000
0002000000
0404006000
03fffff000
0200006000
0200006000
0200006000
0200006000
03ffffe000
0200006000
0200006000
0200006000
0200006000
07ffffe000
0201804000
0001800000
0001800800
8001800e00
7ffffffe00
0001800000
0001800000
0001800000
0001800000
0001800000
0001800000
0001800000
0001800000
0001800000
0001000000
0000000000
0000000000
0000000000
ENDCHAR
STARTCHAR 2472
ENCODING 9330
SWIDTH 1020 0
DWIDTH 34 0
BBX 34 35 0 -4
BITMAP
0000000020
0000000000
0000000000
0030004000
3ffbffe000
000030e000
000030c000
000030c000
0000308000
0018308000
7ffc308000
0100218000
0100218e00
010021fe00
3920218c00
1d1c218c00
1110600c00
1110600c00
1110400c00
1110400800
1110400800
1110c00800
1110801800
3110801800
3111801800
2111001000
2111003000
6102003000
4104386000
010c07c000
0118018000
0100000000
0000000000
0000000000
0000000000
ENDCHAR
STARTCHAR 2473
ENCODING 9331
SWIDTH 1020 0
DWIDTH 34 0
BBX 34 35 0 -4
BITMAP
0000000020
0000000000
0002000000
8007380000
7fffb00000
180c300000
180c300000
180c300000
180c300000
180c300000
1ffc300000
180c300000
180c300000
180c300000
180c300000
180c300000
1ffc300000
180c300000
180c300000
180c300000
180c300000
180c300000
187c300400
1f8c300400
7e0c300400
700c300400
200c300400
000c300400
000c300e00
000c1ffe00
00080ff800
0008000000
0000000000
0000000000
0000000000
ENDCHAR
STARTCHAR 2474
ENCODING 9332
SWIDTH 1020 0
DWIDTH 34 0
BBX 34 35 0 -4
BITMAP
0000000020
0000000000
0000000000
1018000000
1ffc000800
1819fffe00
18180c0c00
18180c0c00
18180c0c00
1818080800
1818480800
1818480800
1ff8480800
1818880800
0818880800
1819880800
181b080800
1819180800
1818180800
1ff8100800
1818101800
1818101800
1018201800
1018201800
1018601800
1018401000
1018c03000
2018803000
2119067000
60f301e000
4032008000
0000000000
0000000000
0000000000
0000000000
ENDCHAR
STARTCHAR 2475
ENCODING 9333
SWIDTH 1020 0
DWIDTH 34 0
BBX 34 35 0 -4
BITMAP
0000000020
0000000000
0200008000
010000c000
01ffffc000
0180008000
0180008000
0180008000
0180008000
0180008000
01ffff8000
0180008000
0800002000
0400006000
07fffff000
0400006000
0400006000
0400006000
07ffffe000
0400006000
0400006000
0400006000
0400006000
07ffffe000
0400006000
0400006000
0400006000
0400006000
0400006000
04000fe000
040000c000
0400000000
0000000000
0000000000
0000000000
ENDCHAR
STARTCHAR 2476
ENCODING 9334
SWIDTH 1020 0
DWIDTH 34 0
BBX 34 35 0 -4
BITMAP
0000000020
0000000000
0000000000
1010300000
1ff8780000
1810600000
1810400800
1810c01c00
1810fffe00
1811800000
1811000000
1813000000
1ff6000000
1814008000
1810ffc000
181001e000
1810030000
1810070000
1810060000
1ff00c0000
1010180000
1010380000
1010300400
1010600400
1010c00400
3010c00400
3011800400
2011800400
2311800e00
41f0fffe00
406007e000
8000000000
0000000000
0000000000
0000000000
ENDCHAR
STARTCHAR 2477
ENCODING 9335
SWIDTH 1020 0
DWIDTH 34 0
BBX 34 35 0 -4
BITMAP
0000000020
0000000000
0000200000
1010380000
1ff8300000
1810300000
1810300000
1810300000
1810104000
1817ffe000
181030c000
181030c000
1ff030c000
181030c000
181030c000
181230c000
181130c000
1810f0c000
181060c000
1ff030c000
181030c000
181078c000
10104cc000
101044c400
1010c4c400
101080c400
301180c400
201100c400
223200c600
61f400ff00
406c003c00
0000000000
0000000000
0000000000
0000000000
ENDCHAR
STARTCHAR 2478
ENCODING 9336
SWIDTH 1020 0
DWIDTH 34 0
BBX 34 35 0 -4
BITMAP
0000000020
0000000000
0000000000
1018006000
1ffc00f000
181001c000
1810018000
1810030000
1810060000
1810180000
1810302000
1811c03800
1ff0003c00
1810006000
181000c000
1810018000
1810030000
1810060000
18100c0000
1ff0300800
1810c01e00
1013001800
1010003000
1010006000
101000c000
3010018000
3010030000
20100c0000
2110300000
40f0c00000
4067000000
0000000000
0000000000
0000000000
0000000000
ENDCHAR
STARTCHAR 2479
ENCODING 9337
SWIDTH 1020 0
DWIDTH 34 0
BBX 34 35 0 -4
BITMAP
0000000020
0000000000
0040100000
00381c0000
0030080800
8030081c00
7ffffffe00
0030080000
0030180000
0020080000
0000001800
7ffffffc00
0001800000
0001800000
0001800000
0001800000
0001800000
0001800000
0001f00000
00018c0000
0001830000
000181c000
0001804000
0001800000
0001800000
0001800000
0001800000
0001800000
0001800000
0001800000
0001800000
0001000000
0000000000
0000000000
0000000000
ENDCHAR
STARTCHAR 247a
ENCODING 9338
SWIDTH 1020 0
DWIDTH 34 0
BBX 34 35 0 -4
BITMAP
0000000020
0000000000
0040100000
00381c0000
0030080800
8030081c00
7ffffffe00
0030080000
0030180000
0020080000
0003000000
0001c00000
0001000000
0001000000
0001000000
0001000000
0001000000
000100c000
0ffffff000
0001000000
0001000000
0001000000
0001000000
0001000000
0001000000
0001000000
0001000000
0001000000
0001000800
4001001c00
7ffffffe00
0000000000
0000000000
0000000000
0000000000
ENDCHAR
STARTCHAR 247b
ENCODING 9339
SWIDTH 1020 0
DWIDTH 34 0
BBX 34 35 0 -4
BITMAP
0000000020
0000000000
0020100000
00380e0000
0010080800
8010081c00
7ffffffe00
0030080000
0030080000
0010080000
0001c00000
00018e0000
0001838000
000180c000
0001809800
0001801e00
00019fe000
001fe00000
3fe0800000
2000c00000
0000c00000
0000400000
0000600000
0000200000
0000300000
0000180200
00000e0400
0000070400
000003c400
000000fc00
0000003c00
0000000e00
0000000000
0000000000
0000000000
ENDCHAR
STARTCHAR 247c
ENCODING 9340
SWIDTH 1020 0
DWIDTH 34 0
BBX 34 35 0 -4
BITMAP
0000000020
0000000000
0020180000
00380e0800
0030080c00
fffffffe00
0030080000
0030080000
0020080000
0000006000
0ffffff000
0000004000
0000004000
0000004000
0200004000
03ffffc000
0200004000
0600004000
0400000000
0400000000
0c00001000
0ffffff800
1800001c00
1800001000
0000003000
0000003000
0000002000
0000006000
000180c000
00007f8000
00000f0000
0000080000
0000000000
0000000000
0000000000
ENDCHAR
STARTCHAR 247d
ENCODING 9341
SWIDTH 1020 0
DWIDTH 34 0
BBX 34 35 0 -4
BITMAP
0000000020
0000000000
0040100000
00381c0000
0020080800
8020080e00
7ffffffe00
0020080000
0020180000
0020008000
100000c000
0fffffe000
000000c000
000000c000
000000c000
000000c000
000000c000
080000c000
040000c000
07ffffc000
0400008000
0400000000
0400000000
0400000000
0400001000
0400001000
0400001000
0400001000
0600003c00
03fffff800
007fff8000
0000000000
0000000000
0000000000
0000000000
ENDCHAR
STARTCHAR 247e
ENCODING 9342
SWIDTH 1020 0
DWIDTH 34 0
BBX 34 35 0 -4
BITMAP
0000000020
0000000000
0020100000
00381c0800
0020181c00
7ffffffe00
0020180000
0020180000
0020080000
0000008000
0fffffc000
000001e000
0000070000
00000c0000
0000300000
0003c00000
0001c00000
0001000000
0001001800
7ffffffe00
0001000000
0001000000
0001000000
0001000000
0001000000
0001000000
0001000000
0001000000
0001000000
003f000000
0007000000
0002000000
0000000000
0000000000
0000000000
ENDCHAR
STARTCHAR 2521
ENCODING 9505
SWIDTH 1020 0
DWIDTH 34 0
BBX 34 35 0 -4
BITMAP
0000000020
0000000000
0040100000
00381c1000
0020081800
7ffffffe00
0020080000
0020180000
0020080000
000001c000
00003fe000
003ff00000
1fc1800000
0001800000
0001800000
0001800000
0001800800
0001801800
7ffffffe00
0001800000
0001800000
0001800000
0001800000
0001800000
0001800000
0001800000
0001800000
0001800000
0001800000
0001800000
0001000000
0000000000
0000000000
0000000000
0000000000
ENDCHAR
STARTCHAR 2522
ENCODING 9506
SWIDTH 1020 0
DWIDTH 34 0
BBX 34 35 0 -4
BITMAP
0000000020
0000000000
0040100000
00381c0000
0020180800
4020181e00
7ffffffe00
0020180000
0020180000
0020000000
0080040000
00fffe0000
00c0040000
00c0040000
00c0040000
00c0040000
00c8040000
00c4040000
00c3040000
00c1840000
00c1840000
00c0c40000
00c0840000
0080040000
0180040200
0180040200
0300040200
0200040200
0400040600
0800060f00
300003fe00
4000000000
0000000000
0000000000
0000000000
ENDCHAR
STARTCHAR 2523
ENCODING 9507
SWIDTH 1020 0
DWIDTH 34 0
BBX 34 35 0 -4
BITMAP
0000000020
0000000000
0040100000
00381c0000
0030181000
4030183800
3ffffffc00
0030180000
0030180000
0020000000
000c000000
000e000000
000c000000
000c000000
000c020000
3fffff0000
0008060000
0008060000
0008060000
0608060000
0198060000
0078060000
0018060000
003e060000
0067860400
0041860400
00c0c60400
0100060400
0600060400
1c0007fe00
700001f800
0000000000
0000000000
0000000000
0000000000
ENDCHAR
STARTCHAR 2524
ENCODING 9508
SWIDTH 1020 0
DWIDTH 34 0
BBX 34 35 0 -4
BITMAP
0000000020
0000000000
0000200000
0000780000
0000c00000
0003800000
001ee03000
0070307800
079019c000
0018038000
000c0e0000
0004380000
0000e00000
0007a00000
003c100000
03e0180000
1c003c0000
0000660000
0001c20000
0007030000
001c070000
00e00d0000
1f00390000
0000618000
0001c18000
0006010000
0038010000
01c0030000
0e00030000
0003ce0000
00003c0000
0000300000
0000000000
0000000000
0000000000
ENDCHAR
STARTCHAR 2525
ENCODING 9509
SWIDTH 1020 0
DWIDTH 34 0
BBX 34 35 0 -4
BITMAP
0000000020
0000000000
0000000000
3808000800
0e0ffffe00
030c000c00
020c000c00
000c000c00
000c000c00
600c000c00
180c000c00
0e0ffffc00
060c000c00
000c000800
0004000000
000c000000
020c000000
030c000000
7f8c000000
030c000000
030c000000
0308000000
0308000000
0308000000
0310000000
0710000000
0ca0000000
1840000000
7038000100
200ffffe00
00003ffc00
0000000000
0000000000
0000000000
0000000000
ENDCHAR
STARTCHAR 2526
ENCODING 9510
SWIDTH 1020 0
DWIDTH 34 0
BBX 34 35 0 -4
BITMAP
0000000020
0000000000
0000100000
08000e0000
06000c0000
03000c0000
01880c1000
000e0c1c00
00040c0800
00040c0800
30040c0800
18040c0800
0c040c0800
06040c0800
00040c0800
00040c0800
00040c0800
01040c0800
43040c0800
3f840c0800
03040c0800
03040c0800
0307fff800
030c000800
030c001800
0304000800
0700000000
1cc0000000
7078000100
200ffffe00
0000fffc00
0000000000
0000000000
0000000000
0000000000
ENDCHAR
STARTCHAR 2527
ENCODING 9511
SWIDTH 1020 0
DWIDTH 34 0
BBX 34 35 0 -4
BITMAP
0000000020
0000000000
0080000000
00f0040800
004007fc00
0040041800
0040841000
4041c43000
3fffe42000
0000042000
0000044000
0000044000
0800044000
040c048000
07fc048000
0408044000
0408042000
0408041000
0408040800
0408040c00
0408040400
0408040400
0408040400
0408440600
0c08440400
0c08458c00
0808447800
1808441000
1008640000
200ff40000
4007c40000
4000040000
0000000000
0000000000
0000000000
ENDCHAR
STARTCHAR 2528
ENCODING 9512
SWIDTH 1020 0
DWIDTH 34 0
BBX 34 35 0 -4
BITMAP
0000000020
0000000000
0080000000
00e0040800
00c007fc00
00c0041800
00c0841000
80c1c43000
7fffe42000
0180042000
0180044000
0180044000
0180044000
0181048000
01ffc4c000
0101c42000
0101841000
0101841800
0101040800
0301040c00
0301040400
0201040400
0201040600
0201040600
0601040400
040305dc00
0c03043800
0803041000
10e6040000
301e040000
400c040000
0000040000
0000000000
0000000000
0000000000
ENDCHAR
STARTCHAR 2529
ENCODING 9513
SWIDTH 1020 0
DWIDTH 34 0
BBX 34 35 0 -4
BITMAP
0000000020
0000000000
0040000000
0070040800
006007fe00
0060061800
0060061800
1060461000
1fffe61000
1060762000
1060c62000
1060864000
3060864000
3061064000
607c064000
0058062000
0050061000
0050060800
00d0060800
00d0060400
0090060400
0090060600
0190060600
0110260600
0110260600
021026ce00
0610263c00
0410261000
0818760000
101ff60000
6003860000
0000020000
0000000000
0000000000
0000000000
ENDCHAR
STARTCHAR 252a
ENCODING 9514
SWIDTH 1020 0
DWIDTH 34 0
BBX 34 35 0 -4
BITMAP
0000000020
0000000000
0040000000
0070040c00
006003fe00
0060020c00
0060021800
0060021000
0061821000
3fffe21000
0060022000
0060022000
0060024000
0060024000
0060424000
4060f22000
7ffff21000
0060020800
0050020400
00d0020400
00d8020600
0088020200
0188020200
0184020200
0106020600
030202ce00
0603063c00
0401860800
0c00c60000
1000fe0000
2000660000
4000020000
0000000000
0000000000
0000000000
ENDCHAR
STARTCHAR 252b
ENCODING 9515
SWIDTH 1020 0
DWIDTH 34 0
BBX 34 35 0 -4
BITMAP
0000000020
0000000000
0000000000
0002040800
100387fe00
0fff861c00
0000061800
0000061000
0000061000
0000062000
0000062000
0000062000
0000864000
2001e64000
3fffe64000
0318062000
0318061000
0318060800
0318060800
0318060400
0318060600
0218060600
0218060200
0218060600
0618260600
041826ce00
0c18263c00
0818261800
1818360000
300ff60000
6000060000
4000020000
0000000000
0000000000
0000000000
ENDCHAR
STARTCHAR 252c
ENCODING 9516
SWIDTH 1020 0
DWIDTH 34 0
BBX 34 35 0 -4
BITMAP
0000000020
0000000000
0000000000
0004040800
007e07fe00
0604061800
0704061800
0406061000
0c02061000
0803062000
0801062000
1001864000
1000c64000
2000764000
40013e4000
5fff862000
0103061000
0103060800
0103060800
0103060400
0103060400
0303060600
0303060600
0203060600
0602060600
040206cc00
0402063c00
0802061000
0986060000
107c060000
201c060000
4000040000
0000000000
0000000000
0000000000
ENDCHAR
STARTCHAR 252d
ENCODING 9517
SWIDTH 1020 0
DWIDTH 34 0
BBX 34 35 0 -4
BITMAP
0000000020
0000000000
2000000000
20ce070000
3fe7060000
3084060000
3184060000
3104060000
3104060000
3204060000
3204060000
3204061800
3404263c00
3404767000
3307fec000
3084070000
3084060000
3044060000
3044060000
3044060000
3044060000
3044060000
30c4060000
3f84060000
3104060400
3004160400
3004660400
3007860400
301e020e00
307803fe00
3060000000
2020000000
0000000000
0000000000
0000000000
ENDCHAR
STARTCHAR 252e
ENCODING 9518
SWIDTH 1020 0
DWIDTH 34 0
BBX 34 35 0 -4
BITMAP
0000000020
0000000000
2000000000
20c0000800
3fe4001c00
3087fffe00
3084000000
3184000000
3104000000
3104401000
32043ff800
3204201000
3204201000
3204201000
3104201000
3084201000
3084201000
304c201000
304c201000
304c203000
306c27f000
304820e000
38c8200000
37c8200000
3118200400
3010200400
3010200400
3020200400
3020300e00
30403ffe00
308007f000
1000000000
0000000000
0000000000
0000000000
ENDCHAR
STARTCHAR 252f
ENCODING 9519
SWIDTH 1020 0
DWIDTH 34 0
BBX 34 35 0 -4
BITMAP
0000000020
0000000000
2000000000
2060080000
3ff00e0000
30400c0000
30c00c0000
30800c0000
30800c0000
31000c0000
31040c0000
32078c0000
32020c0000
32020c1000
31020c1800
30820ffc00
30420c0000
30420c0000
30620c0000
30220c0000
30620c0000
30620c0000
30620c0000
37c20c0000
31820c0000
30020c0000
30020c0000
30020c0000
30020c0c00
30fffffe00
3000000000
3000000000
0000000000
0000000000
0000000000
ENDCHAR
STARTCHAR 2530
ENCODING 9520
SWIDTH 1020 0
DWIDTH 34 0
BBX 34 35 0 -4
BITMAP
0000000020
0000000000
2000200000
2060380000
3ff0380000
3040200000
30c0600000
3080608000
3080c04000
3100802000
3101801000
3201003800
32027fcc00
323ff20c00
3110420400
3090420000
3040420000
3040420000
3060420000
3020c20000
3020c20000
3060820000
3060820000
37c1820400
3181020400
3003020400
3002020400
3004020400
3008020600
301003fe00
306001fc00
3000000000
0000000000
0000000000
0000000000
ENDCHAR
STARTCHAR 2531
ENCODING 9521
SWIDTH 1020 0
DWIDTH 34 0
BBX 34 35 0 -4
BITMAP
0000000020
0000000000
0018200000
001e3c0000
0008100000
0808102000
0408107000
07fffff000
0608106000
0608106000
0608106000
0608106000
07ffffe000
0608106000
0408100000
0018100000
1018101800
0ffffffc00
0818101800
0818101800
1810101800
1810101800
1810101800
1ffffff800
1820101800
0820100000
0040100000
0040300000
0080300000
0100300000
0200300000
0200000000
0000000000
0000000000
0000000000
ENDCHAR
STARTCHAR 2532
ENCODING 9522
SWIDTH 1020 0
DWIDTH 34 0
BBX 34 35 0 -4
BITMAP
0000000020
0000000000
0100100000
01c01c0000
0300180000
0310180000
0310180400
021ffffe00
0610000800
0630001000
0c30009000
0e6001e000
0c0007b000
1c007c0000
1407e00000
2438200000
4400200000
c400201800
0400201e00
04003fe000
047fe00000
0400200000
0400200000
0400200400
0400200400
0400200400
0400200400
0400200400
0400200c00
04003ffe00
0400000000
0400000000
0000000000
0000000000
0000000000
ENDCHAR
STARTCHAR 2533
ENCODING 9523
SWIDTH 1020 0
DWIDTH 34 0
BBX 34 35 0 -4
BITMAP
0000000020
0000000000
0080100000
01e01c0000
0180100000
0180100000
0100100c00
037ffffe00
0200000000
0600000000
0601020000
0f03c18000
0e0200c000
1e06003000
3608003800
2611011800
466101c800
8602830000
0604830000
060c820000
0608460000
06004c0000
0600280000
0600380000
0600380000
06006c0000
0600c60000
060183c000
060600f000
060c007e00
06f0001800
0000000000
0000000000
0000000000
0000000000
ENDCHAR
STARTCHAR 2534
ENCODING 9524
SWIDTH 1020 0
DWIDTH 34 0
BBX 34 35 0 -4
BITMAP
0000000020
0000000000
0080200000
01e03c0000
0180300000
0180300000
0100300800
0340301c00
023ffffe00
0600600000
0400c00000
0f00c10000
0e2181c000
1e13038000
360e030000
2606060000
46030c0000
86019c3000
0601307800
0600606000
0600c0c000
0601818000
0606030000
0618060000
06600c0000
06001b0000
060060c000
0600c07000
0603003800
061c001c00
06e0000400
0400000000
0000000000
0000000000
0000000000
ENDCHAR
STARTCHAR 2535
ENCODING 9525
SWIDTH 1020 0
DWIDTH 34 0
BBX 34 35 0 -4
BITMAP
0000000020
0000000000
0100100000
01c01c0000
0180180000
0300100000
0302100000
0247300400
067f3ffc00
0600200e00
0400600800
0e00470800
0c00c61000
1c00861000
3401062000
2400060000
4400860000
8401060000
0402050000
04040d0000
040c0d0000
0438098000
0470188000
0420188000
0400304000
0400206000
0400602000
0400c03000
0401801c00
0403000f00
040c000400
0408000000
0000000000
0000000000
0000000000
ENDCHAR
STARTCHAR 2536
ENCODING 9526
SWIDTH 1020 0
DWIDTH 34 0
BBX 34 35 0 -4
BITMAP
0000000020
0000000000
0180000000
01c0100c00
01a0180e00
011ffc8c00
030460ec00
020460cc00
020460cc00
060460cc00
040460cc00
0e0460cc00
0c0460cc00
1c0468cc00
34846ecc00
247ffecc00
440c60cc00
840c60cc00
040c60cc00
040c60cc00
040860cc00
040860cc00
040860cc00
0408608c00
0418600c00
0410600c00
0410600c00
0430600c00
0420608c00
0440607800
0440601800
0400000000
0000000000
0000000000
0000000000
ENDCHAR
STARTCHAR 2537
ENCODING 9527
SWIDTH 1020 0
DWIDTH 34 0
BBX 34 35 0 -4
BITMAP
0000000020
0000000000
0080100000
01e01c0000
0180180800
01a0181c00
033ffffe00
0300180000
0200180000
0600181800
041ffffc00
0e00101800
0c00101800
1c10101800
3418101800
241ffff800
4418100000
8410100000
0430300400
043fffff00
0430380600
0420280400
0400640400
0400644c00
0400c23c00
0400811800
0401818000
040300c000
0406007000
040c003f00
0430000c00
0040000000
0000000000
0000000000
0000000000
ENDCHAR
STARTCHAR 2538
ENCODING 9528
SWIDTH 1020 0
DWIDTH 34 0
BBX 34 35 0 -4
BITMAP
0000000020
0000000000
0100100000
01e01e0000
0180180000
0180180000
0100180000
0300180800
0240180e00
063ffffe00
0600180000
0f00180000
0e00180000
1e00180000
1600181000
2610183800
461ffffc00
8600000000
0600000000
0608001000
060c003000
0607fff800
0604003000
0604003000
0604003000
0604003000
0604003000
0604003000
0604003000
060ffff000
060c003000
0604000000
0000000000
0000000000
0000000000
ENDCHAR
STARTCHAR 2539
ENCODING 9529
SWIDTH 1020 0
DWIDTH 34 0
BBX 34 35 0 -4
BITMAP
0000000020
0000000000
0100000000
01c0000800
0310001e00
031ffffc00
0306004000
0206004000
0606004000
0406004000
0c06004000
0e07ffc000
1c06004000
1406004000
3406004000
2406004000
4406004000
8407ffc000
0406004000
0406004000
0406004000
0406004c00
0406004f00
040603f800
0407fe4000
047c004000
0400004000
0400004000
040000c000
060000c000
060000c000
0400004000
0000000000
0000000000
0000000000
ENDCHAR
STARTCHAR 253a
ENCODING 9530
SWIDTH 1020 0
DWIDTH 34 0
BBX 34 35 0 -4
BITMAP
0000000020
0000000000
0100400000
01c0700000
0180c01000
0100c01800
033ffffc00
0201840000
0201020000
0602010000
0406018000
0e0c00e000
0c18027000
1c34071e00
1443ff0e00
2580000000
4400001000
c400001800
043ffffc00
0403000000
0402000000
0406002000
0407fff000
040c003000
0418006000
0400006000
0400004000
040000c000
040000c000
0400738000
04000f0000
04000c0000
0000000000
0000000000
0000000000
ENDCHAR
STARTCHAR 253b
ENCODING 9531
SWIDTH 1020 0
DWIDTH 34 0
BBX 34 35 0 -4
BITMAP
0000000020
0000000000
0100000000
01c0001000
0180001800
011ffffc00
0300c00000
0200800000
0201810000
0601008000
040300c000
0e02006000
0c0203f000
1c3ffc1800
343e001800
2420200800
4400380000
8400100000
0400100000
0400100000
0400103000
043ffffc00
0400100000
0400100000
0400100000
0400100000
0400100000
0400100000
0400100c00
047ffffe00
0400000000
0400000000
0000000000
0000000000
0000000000
ENDCHAR
STARTCHAR 253c
ENCODING 9532
SWIDTH 1020 0
DWIDTH 34 0
BBX 34 35 0 -4
BITMAP
0000000020
0000000000
0100000000
01ec006000
0187fff000
0104006000
0304006000
0304006000
0204006000
0607ffe000
0404006000
0e04006000
0c04006000
1c04006000
3404006000
2407ffe000
4404306000
8404104000
0404101800
0404083c00
040408e000
04040f8000
0404040000
0404020000
0404030000
0404118000
040470c000
0407807000
04be003800
0478001e00
0440000800
0000000000
0000000000
0000000000
0000000000
ENDCHAR
STARTCHAR 253d
ENCODING 9533
SWIDTH 1020 0
DWIDTH 34 0
BBX 34 35 0 -4
BITMAP
0000000020
0000000000
0100000000
01e3020000
0183c38000
0101020000
0301020000
0301020000
023d020000
0639020000
0431020800
0e31221e00
0c313a1800
1c31fa3000
3431024000
2431038000
4431020000
8431020000
0431020000
0431020000
0431020000
0431020000
0431020000
0431020400
04311a0400
0431320400
0431c20400
0437020400
043e020c00
04f803fe00
044001f800
0440000000
0000000000
0000000000
0000000000
ENDCHAR
STARTCHAR 253e
ENCODING 9534
SWIDTH 1020 0
DWIDTH 34 0
BBX 34 35 0 -4
BITMAP
0000000020
0000000000
0100000000
01c8000400
01cffffe00
010c000c00
030c000c00
030c000c00
020c008c00
060d00ec00
040cffec00
0f0c000c00
0e0c000c00
1e0c000c00
360c418c00
260c7fcc00
460c418c00
460c418c00
060c418c00
060c418c00
060c418c00
060c418c00
060c7f8c00
060c418c00
060c418c00
060c000c00
060c000c00
060c000c00
060c000c00
060c03fc00
060c003800
0408001000
0000000000
0000000000
0000000000
ENDCHAR
STARTCHAR 253f
ENCODING 9535
SWIDTH 1020 0
DWIDTH 34 0
BBX 34 35 0 -4
BITMAP
0000000020
0000000000
0100000000
01e0000000
0190000800
0110000c00
031ffffe00
0318000c00
0218000c00
0618000c00
0418000c00
0e18810c00
0c18ff8c00
1c18c18c00
1418c10c00
2418c10c00
4418c10c00
4418c10c00
0418c10c00
0418c10c00
0418c10c00
0418ff0c00
0418c18c00
0418800c00
0418000c00
0418000c00
0418000c00
0418000c00
041ffffc00
0618000c00
0618000800
0000000000
0000000000
0000000000
0000000000
ENDCHAR
STARTCHAR 2540
ENCODING 9536
SWIDTH 1020 0
DWIDTH 34 0
BBX 34 35 0 -4
BITMAP
0000000020
0000000000
0184000000
01e7000000
0186000000
018c000000
030c000800
030c000c00
021ffffe00
0610000c00
0430000c00
0c20000800
0e48060800
1ccfff0800
1488060800
2408060800
4408060800
4408060800
040ffe0800
0408060800
0408060800
0408061800
0408061800
040ffe1800
0408061800
0408061000
0400001000
0400003000
0400203000
06003fe000
060003c000
0400000000
0000000000
0000000000
0000000000
ENDCHAR
STARTCHAR 2541
ENCODING 9537
SWIDTH 1020 0
DWIDTH 34 0
BBX 34 35 0 -4
BITMAP
0000000020
0000000000
0100800000
01e0e00000
0181800000
0101ffc000
030300c000
0306018000
0204418000
06083f0000
06101c0800
0f70000e00
0e1ffffe00
1e10000000
1610000000
2610806000
4610ffe000
4610c04000
0610c04000
0610c04000
0610c04000
0610c04000
0610c04000
0610cec000
0630c18400
0630c10400
0620c00400
0620c00c00
0620c00c00
0640783e00
06403ff800
0400000000
0000000000
0000000000
0000000000
ENDCHAR
STARTCHAR 2542
ENCODING 9538
SWIDTH 1020 0
DWIDTH 34 0
BBX 34 35 0 -4
BITMAP
0000000020
0000000000
0100200000
01e41c0000
0183900000
0106100000
0306100000
0304102000
0204107000
060ffff800
0408100000
0f18100000
0e10100000
1e20100000
1600100000
2600101800
467ffffe00
4600840000
0600840000
0600840000
0600840000
0600840000
0601840000
0601040400
0601040400
0603040400
0602040400
0604040400
0608060e00
063007fe00
06c0000000
0000000000
0000000000
0000000000
0000000000
ENDCHAR
STARTCHAR 2543
ENCODING 9539
SWIDTH 1020 0
DWIDTH 34 0
BBX 34 35 0 -4
BITMAP
0000000020
0000000000
0100000000
01e0002000
018001f800
01001f8000
0307f80000
0338180000
0200180000
0600180000
0600180800
0f00180c00
0e7ffffe00
1600180000
3600180000
6600180000
4600180000
8600180000
0608181000
060c183800
060ffff800
060c003000
060c003000
060c003000
060c003000
060c003000
060c003000
060c003000
060c003000
060ffff000
060c003000
0000000000
0000000000
0000000000
0000000000
ENDCHAR
STARTCHAR 2544
ENCODING 9540
SWIDTH 1020 0
DWIDTH 34 0
BBX 34 35 0 -4
BITMAP
0000000020
0000000000
0100400000
01e0700000
0180400000
0100400000
0300c00000
0320804000
0230806000
063fffe000
0431084000
0e31084000
0c31084000
1c31084000
3431084000
2431084000
4431084000
8431084000
0431084000
0431084000
0431084000
0431084000
0431084000
0431084000
0431084000
0431084000
0431084000
0431084800
0431084c00
05fffffe00
0400000000
0000000000
0000000000
0000000000
0000000000
ENDCHAR
STARTCHAR 2545
ENCODING 9541
SWIDTH 1020 0
DWIDTH 34 0
BBX 34 35 0 -4
BITMAP
0000000020
0000000000
0100300000
01e03c0000
0180300000
0100200000
0308206000
030ffff000
020c006000
060c406000
040c606000
0e0c306000
0c0c186000
1c0c186000
340c086000
240c006800
4404006c00
84fffffe00
040c306000
040c306000
040c306000
040c306000
040c306000
0408306000
0408306000
0408306000
0418306000
0410306000
0410006000
042007e000
044001c000
0040008000
0000000000
0000000000
0000000000
ENDCHAR
STARTCHAR 2546
ENCODING 9542
SWIDTH 1020 0
DWIDTH 34 0
BBX 34 35 0 -4
BITMAP
0000000020
0000000000
0100200000
01e0700000
0180610000
0180408000
0300c06000
0301803000
02010fd800
063ff00c00
041c000400
0e10180000
0c061c0000
1c07180000
340c180000
240c183000
441ffffc00
8410180000
0430180000
0420180000
0440180000
0400180800
0400181c00
047ffffe00
0400180000
0400180000
0400180000
0400180000
0400180000
0400180000
0400180000
0400080000
0000000000
0000000000
0000000000
ENDCHAR
STARTCHAR 2547
ENCODING 9543
SWIDTH 1020 0
DWIDTH 34 0
BBX 34 35 0 -4
BITMAP
0000000020
0000000000
0104000000
01e7000000
0184000000
0104080400
030c040e00
030c07fe00
0208660c00
067ff60c00
0608660c00
0e18460c00
0c18460c00
1c10460c00
1410460c00
2430c60c00
4430c60c00
4420860c00
0460860c00
0461860c00
0459060c00
04cd060c00
04c7060c00
0403060c00
0407860c00
0404c60c00
0408660c00
041827fc00
0430260c00
0640060c00
0680000000
0080000000
0000000000
0000000000
0000000000
ENDCHAR
STARTCHAR 2548
ENCODING 9544
SWIDTH 1020 0
DWIDTH 34 0
BBX 34 35 0 -4
BITMAP
0000000020
0000000000
0100400000
01e0380000
0180300000
0110300800
0310300c00
031ffffe00
0230401800
0620781000
0460603000
0e00400000
0c00400000
1c00c00800
3400800c00
24fffffe00
4401010000
8403030000
0403030000
0406030000
0406030000
040c060000
040f060000
0418cc0000
04003c0000
04001e0000
0400378000
040061c000
040180e000
0407003000
04bc001000
0040000000
0000000000
0000000000
0000000000
ENDCHAR
STARTCHAR 2549
ENCODING 9545
SWIDTH 1020 0
DWIDTH 34 0
BBX 34 35 0 -4
BITMAP
0000000020
0000000000
01000c0000
01e00e0000
01800c0800
01100c0e00
031ffffe00
0310000000
0210007000
061001f800
04100f8000
0e11f80000
0c10180000
1c10180000
1410180000
2410180800
4410180c00
4410181e00
04101fe000
0411f80000
0416180000
0410180000
0410180000
0430180000
0430180000
0430180400
0420180400
0420180400
0420180c00
06401fce00
06400ffc00
0000000000
0000000000
0000000000
0000000000
ENDCHAR
STARTCHAR 254a
ENCODING 9546
SWIDTH 1020 0
DWIDTH 34 0
BBX 34 35 0 -4
BITMAP
0000000020
0000000000
0100000000
01c0000800
0120001e00
031ffffe00
0300180000
0200300000
0600300000
0600200000
0c10200800
0e0ffffc00
0c08430c00
1408430800
3408430800
2408430800
4408430800
8408430800
0408430800
0408430800
0408430800
0408430800
0408430800
0408430800
0408430800
0408430800
0408430800
0408430800
0408430800
0418427800
0418003800
0408000000
0000000000
0000000000
0000000000
ENDCHAR
STARTCHAR 254b
ENCODING 9547
SWIDTH 1020 0
DWIDTH 34 0
BBX 34 35 0 -4
BITMAP
0000000020
0000000000
0100c00000
01c0e00000
0181804000
0101806000
0303fff000
030300c000
0207018000
060d830000
0408830000
0e10460000
0c202c0000
1cc0380000
14003c0000
2400660000
4401c3c000
c40300f800
040c003f00
0470002400
048c002000
040ffff000
040c006000
040c006000
040c006000
040c006000
040c006000
040c006000
040c006000
040fffe000
040c006000
0408000000
0000000000
0000000000
0000000000
ENDCHAR
STARTCHAR 254c
ENCODING 9548
SWIDTH 1020 0
DWIDTH 34 0
BBX 34 35 0 -4
BITMAP
0000000020
0000000000
0100180000
01e03c0000
0180380000
0180640000
0100640000
0300c20000
0201810000
0601008000
060200e000
0606007000
0c0800bc00
0c3401ce00
1463ffc000
2440000000
6400000000
4400000000
0408002000
040ffff800
040c003000
040c003000
040c003000
040c003000
040c003000
040c003000
040c003000
040c003000
040ffff000
040c003000
040c003000
0404000000
0000000000
0000000000
0000000000
ENDCHAR
STARTCHAR 254d
ENCODING 9549
SWIDTH 1020 0
DWIDTH 34 0
BBX 34 35 0 -4
BITMAP
0000000020
0000000000
0800000000
0400000800
07fffffe00
0800001c00
0800001000
1802002000
3001c06000
6001020000
030103c000
0081030000
00c1060000
0061040000
0021080000
0001101000
2001203c00
1ffffffc00
0005400000
000d200000
0019300000
0031180000
00610c0000
00c1070000
0181038000
030101e000
0c01007c00
3001001000
0001000000
0003000000
0003000000
0000000000
0000000000
0000000000
0000000000
ENDCHAR
STARTCHAR 254e
ENCODING 9550
SWIDTH 1020 0
DWIDTH 34 0
BBX 34 35 0 -4
BITMAP
0000000020
0000000000
0000180000
00001c0000
2006100000
2007900000
1806100000
0c04102000
060c103000
068ffff800
0088100000
0090100000
0110100000
0120100000
0140100000
0200101800
0240101c00
027ffffe00
0600860000
0400860000
0c00860000
7c01860000
0801060000
0c01060000
0c03060400
0c06060400
0c04060400
0c08060400
0c10060600
046007fe00
018001f800
0200000000
0000000000
0000000000
0000000000
ENDCHAR
ENDFONT
